<?xml version="1.0" encoding="utf-8"?>
<!-- Generator: Adobe Illustrator 18.1.1, SVG Export Plug-In . SVG Version: 6.00 Build 0)  -->
<svg version="1.1" id="Layer_1" xmlns="http://www.w3.org/2000/svg" xmlns:xlink="http://www.w3.org/1999/xlink" x="0px" y="0px"
	 viewBox="0 0 48 48" enable-background="new 0 0 48 48" xml:space="preserve">
<g>
	<g>
		<path fill="#7B4F68" d="M46.5,47.5c-0.2,0-0.4-0.1-0.6-0.2L4.1,12.9C2,11.3,0.7,9,0.5,6.6C0.4,4.8,0.9,3.2,2.1,2.1
			c1-1,2.4-1.6,4-1.6c2.5,0,5.1,1.4,6.8,3.6l34.4,41.8c0.3,0.4,0.3,0.9-0.1,1.3C47,47.4,46.8,47.5,46.5,47.5z M6.1,2.4
			c-1.1,0-2,0.4-2.7,1c-0.7,0.7-1.1,1.8-1,3c0.1,1.8,1.2,3.6,2.9,4.9l34.3,28.2L11.4,5.3C10.1,3.5,8,2.4,6.1,2.4z"/>
	</g>
	<g>

			<rect x="4.7" y="7.7" transform="matrix(0.7071 0.7071 -0.7071 0.7071 8.6115 -3.5663)" fill="#7B4F68" width="7.8" height="1.9"/>
	</g>
	<g>
		<path fill="#7B4F68" d="M6.6,30.4l-1.6-1c1.4-2.2,3-4.7,3.1-7.3c0.1-1.7-0.5-3.4-1.1-5.2c-0.2-0.5-0.3-1.1-0.5-1.6
			c-1-3.3-0.9-5.9,0.4-7.9l1.6,1c-0.9,1.5-1,3.5-0.2,6.3c0.2,0.5,0.3,1,0.5,1.5c0.6,1.9,1.2,3.8,1.2,5.9C9.9,25.3,8.1,28.1,6.6,30.4
			z"/>
	</g>
</g>
</svg>
