<?xml version="1.0" encoding="utf-8"?>
<!-- Generator: Adobe Illustrator 18.1.1, SVG Export Plug-In . SVG Version: 6.00 Build 0)  -->
<svg version="1.1" id="Layer_1" xmlns="http://www.w3.org/2000/svg" xmlns:xlink="http://www.w3.org/1999/xlink" x="0px" y="0px"
	 viewBox="0 0 48 48" enable-background="new 0 0 48 48" xml:space="preserve">
<g>
	<g>
		<path fill="#010101" d="M36.5,47.5c-3.2,0-6-2-7-5c-1.3-3.9,0.7-8.1,4.6-9.4c0.8-0.3,1.6-0.4,2.4-0.4c3.2,0,6,2,7,5
			c1.3,3.9-0.7,8.1-4.6,9.4C38.2,47.4,37.3,47.5,36.5,47.5z M36.5,34.6c-0.6,0-1.2,0.1-1.8,0.3c-2.9,1-4.4,4.2-3.4,7
			c0.8,2.2,2.9,3.7,5.2,3.7c0.6,0,1.2-0.1,1.8-0.3c2.9-1,4.4-4.2,3.4-7C41,36.1,38.9,34.6,36.5,34.6z"/>
	</g>
	<g>
		<path fill="#010101" d="M11.5,47.5L11.5,47.5c-0.8,0-1.6-0.1-2.4-0.4c-1.9-0.6-3.4-2-4.2-3.8c-0.9-1.8-1-3.8-0.3-5.6
			c1-3,3.8-5,7-5c0.8,0,1.6,0.1,2.4,0.4c3.9,1.3,5.9,5.5,4.6,9.4C17.4,45.5,14.6,47.5,11.5,47.5z M11.5,34.6c-2.4,0-4.5,1.5-5.2,3.7
			c-0.5,1.4-0.4,2.9,0.3,4.2c0.6,1.3,1.8,2.3,3.2,2.8c0.6,0.2,1.2,0.3,1.8,0.3c2.4,0,4.5-1.5,5.2-3.7c1-2.9-0.5-6-3.4-7
			C12.7,34.7,12.1,34.6,11.5,34.6z"/>
	</g>
	<g>
		<path fill="#010101" d="M16.7,38l-2.4-3.6l4.8-7.3c0.7-1,1.6-1.8,2.6-2.3c6-2.9,20.4-22.2,20.5-22.4l1.4-1.9l0.2,2.4
			c1.6,16.8-25.3,33.9-26.4,34.6L16.7,38z M16.5,34.4l0.7,1C21.3,32.7,40.7,19.1,42,5.7C37.9,11,27.6,24,22.4,26.5
			c-0.7,0.3-1.3,0.9-1.8,1.7L16.5,34.4z"/>
	</g>
	<g>
		<g>
			<path fill="#010101" d="M19.8,29.4L19,28.7C11.7,22.2,3.2,12.4,4.2,2.9l0.2-2.4l1.4,1.9c0.1,0.2,12,16.1,18.7,21.2l1,0.7l-1,0.7
				c-0.8,0.6-1.5,1.1-2.1,1.4c-0.7,0.3-1.3,0.9-1.8,1.7L19.8,29.4z M6,5.7c0.7,7.6,7.4,15.3,13.5,20.8c0.6-0.8,1.4-1.4,2.2-1.8
				c0.3-0.1,0.5-0.3,0.8-0.5C17,19.8,9.4,10.1,6,5.7z"/>
		</g>
		<g>
			<path fill="#010101" d="M31.3,38l-0.8-0.5c-0.1-0.1-3.1-2-7.2-5.2l-0.9-0.7l0.9-0.7c1.5-1.2,3-2.4,4.3-3.6l0.8-0.7l5.2,7.9
				L31.3,38z M25.5,31.6c2.4,1.8,4.3,3.2,5.3,3.8l0.7-1l-3.3-5.1C27.3,30.1,26.4,30.9,25.5,31.6z"/>
		</g>
	</g>
</g>
</svg>
