<?xml version="1.0" encoding="utf-8"?>
<!-- Generator: Adobe Illustrator 18.1.1, SVG Export Plug-In . SVG Version: 6.00 Build 0)  -->
<svg version="1.1" id="Layer_1" xmlns="http://www.w3.org/2000/svg" xmlns:xlink="http://www.w3.org/1999/xlink" x="0px" y="0px"
	 viewBox="0 0 48 48" enable-background="new 0 0 48 48" xml:space="preserve">
<g>
	<g>
		<path fill="#010101" d="M31.6,22.6c-3.1,0-7.7-2.6-11.7-6.6c-2.6-2.6-4.6-5.4-5.7-8C13,5.1,13,2.8,14.4,1.5c0.7-0.7,1.6-1,2.8-1
			c3.1,0,7.7,2.6,11.7,6.6c5.7,5.7,8.1,11.9,5.5,14.5C33.7,22.2,32.8,22.6,31.6,22.6z M17.2,2.4c-0.7,0-1.1,0.2-1.5,0.5
			c-0.7,0.7-0.6,2.3,0.2,4.4c1,2.4,2.9,5,5.3,7.4c3.6,3.6,7.8,6,10.4,6c0.7,0,1.1-0.2,1.5-0.5c1.5-1.5-0.6-6.8-5.5-11.8
			C23.9,4.8,19.8,2.4,17.2,2.4z"/>
	</g>
	<g>
		<path fill="#010101" d="M10.9,25.1c-5.7-5.7-8.1-11.9-5.5-14.5l9-9l1.3,1.3l-9,9c-1.5,1.5,0.6,6.9,5.5,11.8L10.9,25.1z"/>
	</g>
	<g>
		
			<rect x="30.9" y="20.1" transform="matrix(0.7071 0.7071 -0.7071 0.7071 25.4147 -15.8859)" fill="#010101" width="1.9" height="5.2"/>
	</g>
	<g>
		<path fill="#010101" d="M27.2,16.5c-1.4,0-3.3-1.1-5-2.8C20,11.6,18.6,8.6,20,7.2c0.3-0.3,0.7-0.6,1.5-0.6c1.4,0,3.3,1.1,5,2.8
			c1.1,1.1,1.9,2.3,2.4,3.3c0.8,1.8,0.2,2.8-0.2,3.2C28.5,16.2,28,16.5,27.2,16.5z M21.5,8.5c-0.1,0-0.2,0-0.2,0
			c-0.1,0.3,0.3,1.9,2.2,3.8c1.4,1.4,2.9,2.2,3.7,2.2c0.1,0,0.2,0,0.2,0c0.1-0.3-0.3-1.9-2.2-3.8C23.8,9.3,22.3,8.5,21.5,8.5z"/>
	</g>
	<g>
		<polygon fill="#010101" points="33.3,47.5 10.9,25.1 12.2,23.7 33.3,44.8 41,37.1 19.9,16 21.2,14.7 43.7,37.1 		"/>
	</g>
	<g>
		
			<rect x="7.3" y="17.1" transform="matrix(0.7071 0.7071 -0.7071 0.7071 15.3745 -0.4662)" fill="#010101" width="1.9" height="2.5"/>
	</g>
	<g>
		
			<rect x="11.9" y="18.7" transform="matrix(0.7071 0.7071 -0.7071 0.7071 18.7089 -2.8627)" fill="#010101" width="1.9" height="4.9"/>
	</g>
	<g>
		
			<rect x="14.7" y="24.5" transform="matrix(0.7071 0.7071 -0.7071 0.7071 22.7614 -3.5262)" fill="#010101" width="1.9" height="2.5"/>
	</g>
	<g>
		
			<rect x="19.2" y="26.1" transform="matrix(0.7071 0.7071 -0.7071 0.7071 26.096 -5.9226)" fill="#010101" width="1.9" height="4.9"/>
	</g>
	<g>
		
			<rect x="22.1" y="31.9" transform="matrix(0.7071 0.7071 -0.7071 0.7071 30.1484 -6.586)" fill="#010101" width="1.9" height="2.5"/>
	</g>
	<g>
		
			<rect x="26.6" y="33.5" transform="matrix(0.7071 0.7071 -0.7071 0.7071 33.483 -8.9824)" fill="#010101" width="1.9" height="4.9"/>
	</g>
	<g>
		
			<rect x="29.5" y="39.3" transform="matrix(0.7071 0.7071 -0.7071 0.7071 37.5354 -9.646)" fill="#010101" width="1.9" height="2.5"/>
	</g>
</g>
</svg>
