<?xml version="1.0" encoding="utf-8"?>
<!-- Generator: Adobe Illustrator 18.1.1, SVG Export Plug-In . SVG Version: 6.00 Build 0)  -->
<svg version="1.1" id="Layer_1" xmlns="http://www.w3.org/2000/svg" xmlns:xlink="http://www.w3.org/1999/xlink" x="0px" y="0px"
	 viewBox="0 0 48 48" enable-background="new 0 0 48 48" xml:space="preserve">
<g>
	<g>
		<path fill="#010101" d="M47.2,47.5H0.8V33.6h46.4V47.5z M2.8,45.5h42.4v-9.9H2.8V45.5z"/>
	</g>
	<g>
		<path fill="#010101" d="M36.8,27.6c-1.9,0-3.5-1.5-3.5-3.5c0-1.9,1.5-3.5,3.5-3.5c1.9,0,3.5,1.5,3.5,3.5
			C40.2,26,38.7,27.6,36.8,27.6z M36.8,22.7c-0.8,0-1.5,0.7-1.5,1.5c0,0.8,0.7,1.5,1.5,1.5c0.8,0,1.5-0.7,1.5-1.5
			C38.2,23.3,37.6,22.7,36.8,22.7z"/>
	</g>
	<g>
		<path fill="#010101" d="M47.2,15.6h-5.7V4.1h5.7V15.6z M43.5,13.6h1.7V6.1h-1.7V13.6z"/>
	</g>
	<g>
		<path fill="#010101" d="M43.5,31.2H30.1V12.5h-17v8.8l-4.9,6.2l-4.9-6.2V0.5h40.2V31.2z M32.1,29.2h9.5V2.5H5.3v18.2l2.9,3.7
			l2.9-3.7V10.5h21V29.2z"/>
	</g>
	<g>
		<rect x="7.2" y="25.9" fill="#010101" width="2" height="6.2"/>
	</g>
</g>
</svg>
