<?xml version="1.0" encoding="utf-8"?>
<!-- Generator: Adobe Illustrator 18.1.1, SVG Export Plug-In . SVG Version: 6.00 Build 0)  -->
<svg version="1.1" id="Layer_1" xmlns="http://www.w3.org/2000/svg" xmlns:xlink="http://www.w3.org/1999/xlink" x="0px" y="0px"
	 viewBox="0 0 48 48" enable-background="new 0 0 48 48" xml:space="preserve">
<g>
	<g>
		<path fill="#010101" d="M35.6,42.2H12.4c-2.3,0-4.1-1.8-4.1-4.1V10c0-2.3,1.8-4.1,4.1-4.1h23.2c2.3,0,4.1,1.8,4.1,4.1V38
			C39.7,40.3,37.9,42.2,35.6,42.2z M12.4,7.8c-1.2,0-2.2,1-2.2,2.2V38c0,1.2,1,2.2,2.2,2.2h23.2c1.2,0,2.2-1,2.2-2.2V10
			c0-1.2-1-2.2-2.2-2.2H12.4z"/>
	</g>
	<g>
		<g>
			<path fill="#010101" d="M34,7.8H14V0.5h20V7.8z M16,5.8H32V2.5H16V5.8z"/>
		</g>
		<g>
			<path fill="#010101" d="M34,47.5H14v-7.3h20V47.5z M16,45.5H32v-3.4H16V45.5z"/>
		</g>
	</g>
	<g>
		<path fill="#010101" d="M35.4,42.2H30l-0.2-0.1c-6.8-2.9-15-4.2-20.7-4.7l-0.9-0.1v-9.3L9.3,28c9.6,0.8,22.6,3.1,29.9,9.6l0.4,0.4
			l-0.1,0.6C39.1,40.7,37.4,42.2,35.4,42.2z M30.4,40.2h4.9c1,0,1.7-0.7,2.1-1.5c-6.6-5.6-18.2-7.8-27.2-8.6v5.4
			C15.9,36.1,23.8,37.4,30.4,40.2z"/>
	</g>
	<g>
		<path fill="#010101" d="M39,40.2L37.7,39c-5.4-4.8-15.2-7.9-28.5-9l-0.9-0.1v-9.3l1.1,0.1c7.7,0.6,21.9,2.5,30,9l0.4,0.3l-0.3,7.7
			c0,0.2,0,0.5-0.1,0.8L39,40.2z M10.2,28.1c12.3,1.1,21.5,3.9,27.3,8.2l0.2-5.4c-7.4-5.7-20-7.6-27.5-8.2V28.1z"/>
	</g>
	<g>
		<path fill="#010101" d="M39.7,24.4l-1.5-1.1c-8.1-5.8-21.7-7.5-29-8l-0.9-0.1v-5c0-1.8,1.1-3.3,2.7-4l0.2-0.1l0.2,0
			c6.8,0.5,19.5,2.2,27.8,7.6l0.4,0.3V24.4z M10.2,13.4c7.2,0.5,19.3,2.2,27.5,7.3v-5.6c-7.8-4.9-19.7-6.5-26.2-7
			c-0.8,0.4-1.3,1.2-1.3,2.1V13.4z"/>
	</g>
</g>
</svg>
