<?xml version="1.0" encoding="utf-8"?>
<!-- Generator: Adobe Illustrator 18.1.1, SVG Export Plug-In . SVG Version: 6.00 Build 0)  -->
<svg version="1.1" id="Layer_1" xmlns="http://www.w3.org/2000/svg" xmlns:xlink="http://www.w3.org/1999/xlink" x="0px" y="0px"
	 viewBox="0 0 48 48" enable-background="new 0 0 48 48" xml:space="preserve">
<g>
	<g>
		<path fill="#010101" d="M32.5,39.4H15.5l-0.1-0.9c-0.1-1.3-1.2-12.4,1.3-16c1.1-1.6,1.7-3.2,1.6-4.7c0-1.4-0.4-2.5-1-3.2l-0.1-0.1
			c-0.3-0.4-2.8-4.2-1.7-7c0.5-1.3,1.7-2.1,3.5-2.5l0.2,0h1.2V3.8c0-1.8,1.5-3.3,3.3-3.3h0.7c1.8,0,3.3,1.5,3.3,3.3v1.4l1.4,0
			c1.8,0.3,2.9,1.2,3.5,2.5c1.1,2.8-1.4,6.6-1.7,7l-0.1,0.1c-0.6,0.7-1,1.8-1,3.2c0,1.5,0.5,3.1,1.6,4.7c2.5,3.6,1.4,14.7,1.3,16
			L32.5,39.4z M17.3,37.4h13.4c0.3-3.7,0.6-11.4-1.1-13.7c-1.4-2-2-3.9-2-5.9c0-1.9,0.5-3.4,1.5-4.5c0.6-0.9,2.1-3.5,1.4-5
			c-0.1-0.2-0.4-0.9-1.9-1.2h-3.1V3.8c0-0.7-0.6-1.3-1.3-1.3h-0.7c-0.7,0-1.3,0.6-1.3,1.3v3.4h-3.1c-1.5,0.3-1.8,1-1.9,1.2
			c-0.6,1.5,0.8,4.2,1.4,5c0.9,1.1,1.5,2.6,1.5,4.5c0,1.9-0.6,3.9-2,5.9C16.7,26,17,33.7,17.3,37.4z"/>
	</g>
	<g>
		<rect x="23" y="38.4" fill="#010101" width="2" height="6.9"/>
	</g>
	<g>
		<path fill="#010101" d="M30,47.5h-2c0-0.2-1.3-1.2-4-1.2s-4,1-4,1.2h-2c0-2.1,3-3.2,6-3.2C27,44.3,30,45.4,30,47.5z"/>
	</g>
</g>
</svg>
