<?xml version="1.0" encoding="utf-8"?>
<!-- Generator: Adobe Illustrator 18.1.1, SVG Export Plug-In . SVG Version: 6.00 Build 0)  -->
<svg version="1.1" id="Layer_1" xmlns="http://www.w3.org/2000/svg" xmlns:xlink="http://www.w3.org/1999/xlink" x="0px" y="0px"
	 viewBox="0 0 48 48" enable-background="new 0 0 48 48" xml:space="preserve">
<g>
	<g>
		<path fill="#010101" d="M38.8,47.5c-2.3,0-4.5-0.9-6.1-2.5c-3.4-3.4-3.4-8.9,0-12.3c1.6-1.6,3.8-2.5,6.1-2.5
			c2.3,0,4.5,0.9,6.1,2.5c3.4,3.4,3.4,8.9,0,12.3C43.3,46.6,41.1,47.5,38.8,47.5z M38.8,32.1c-1.8,0-3.5,0.7-4.8,2
			c-2.6,2.6-2.6,6.9,0,9.6c1.3,1.3,3,2,4.8,2c1.8,0,3.5-0.7,4.8-2c2.6-2.6,2.6-6.9,0-9.6C42.3,32.8,40.6,32.1,38.8,32.1z"/>
	</g>
	<g>
		<path fill="#010101" d="M7.3,19.2c-0.2,0-0.5-0.1-0.7-0.3l-3.7-3.7c-3.2-3.2-3.2-8.4,0-11.6l0.7-0.7c1.5-1.5,3.6-2.4,5.8-2.4
			s4.2,0.9,5.8,2.4l3.7,3.7c0.2,0.2,0.3,0.4,0.3,0.7c0,0.3-0.1,0.5-0.3,0.7l-3.4,3.4c-0.3,0.3-0.8,0.4-1.2,0.1l-0.3-0.2
			c-0.9-0.5-1.6-1.4-2-2.5c-0.2-0.5-0.5-0.9-1-1.2c-0.8-0.6-2-0.5-2.8,0c-0.6,0.4-1,1.1-1.1,1.9c-0.1,0.7,0.2,1.5,0.7,2
			c0.2,0.2,0.5,0.4,0.8,0.6c1.2,0.5,2.1,1.2,2.7,2.2l0.1,0.1c0.2,0.4,0.2,0.9-0.1,1.2L8,18.9C7.8,19.1,7.6,19.2,7.3,19.2z M9.4,2.4
			C7.7,2.4,6.1,3.1,5,4.3L4.3,5c-2.4,2.4-2.4,6.4,0,8.9l3.1,3.1l2.1-2.1c-0.3-0.4-0.8-0.7-1.4-0.9c-0.6-0.2-1.1-0.6-1.5-1
			c-0.9-0.9-1.4-2.2-1.3-3.5C5.4,8,6.1,6.8,7.2,6.1c1.5-1,3.5-1,5,0c0.8,0.5,1.4,1.3,1.7,2.2c0.1,0.4,0.4,0.9,0.8,1.3l2.2-2.2
			l-3.1-3.1C12.6,3.1,11.1,2.4,9.4,2.4z"/>
	</g>
	<g>
		<path fill="#010101" d="M43.8,33.9c-0.2,0-0.5-0.1-0.7-0.3L15.4,5.8c-0.4-0.4-0.4-1,0-1.4c0.4-0.4,1-0.4,1.4,0l27.8,27.8
			c0.4,0.4,0.4,1,0,1.4C44.3,33.8,44.1,33.9,43.8,33.9z"/>
	</g>
	<g>
		<path fill="#010101" d="M32.9,44.8c-0.2,0-0.5-0.1-0.7-0.3L4.4,16.7c-0.4-0.4-0.4-1,0-1.4c0.4-0.4,1-0.4,1.4,0l27.8,27.8
			c0.4,0.4,0.4,1,0,1.4C33.4,44.7,33.2,44.8,32.9,44.8z"/>
	</g>
</g>
</svg>
