<?xml version="1.0" encoding="utf-8"?>
<!-- Generator: Adobe Illustrator 18.1.1, SVG Export Plug-In . SVG Version: 6.00 Build 0)  -->
<svg version="1.1" id="Layer_1" xmlns="http://www.w3.org/2000/svg" xmlns:xlink="http://www.w3.org/1999/xlink" x="0px" y="0px"
	 viewBox="0 0 48 48" enable-background="new 0 0 48 48" xml:space="preserve">
<g>
	<g>
		<path fill="#010101" d="M34.4,39.4H13.6V24c-0.8-1.4-4.4-8-3-12.8c0.5-1.8,1.7-3.2,3.6-4l0.1-0.1c0.1,0,3.2-0.9,6-1.5V4.2
			c0-2,1.7-3.7,3.7-3.7s3.7,1.7,3.7,3.7v1.5c2.8,0.6,5.8,1.5,6,1.5l0.1,0.1c1.8,0.8,3,2.2,3.6,4c1.4,4.8-2.2,11.4-3,12.8V39.4z
			 M15.6,37.5h16.9v-14l0.1-0.2c0-0.1,4.3-7,2.9-11.4c-0.4-1.3-1.2-2.2-2.4-2.8c-0.5-0.2-3.9-1.1-6.6-1.6l-0.8-0.2V4.2
			c0-1-0.8-1.7-1.7-1.7c-1,0-1.7,0.8-1.7,1.7v3.1l-0.8,0.2c-2.6,0.5-6,1.5-6.6,1.6c-1.3,0.6-2.1,1.5-2.4,2.8
			c-1.3,4.4,2.9,11.4,2.9,11.4l0.1,0.2V37.5z"/>
	</g>
	<g>
		<rect x="23" y="38.4" fill="#010101" width="2" height="8.1"/>
	</g>
	<g>
		<rect x="19.9" y="45.5" fill="#010101" width="8.1" height="2"/>
	</g>
</g>
</svg>
