<?xml version="1.0" encoding="utf-8"?>
<!-- Generator: Adobe Illustrator 18.1.1, SVG Export Plug-In . SVG Version: 6.00 Build 0)  -->
<svg version="1.1" id="Layer_1" xmlns="http://www.w3.org/2000/svg" xmlns:xlink="http://www.w3.org/1999/xlink" x="0px" y="0px"
	 viewBox="0 0 48 48" enable-background="new 0 0 48 48" xml:space="preserve">
<g>
	<g>
		<path fill="#010101" d="M42.2,46.5H0.5V33.2h19.3V18.5H12v6.2h-8V8.1h38.3V46.5z M2.5,44.6h37.8V10.1H5.9v12.7H10v-6.2h11.7v18.6
			H2.5V44.6z"/>
	</g>
	<g>
		<rect x="7" y="23.8" fill="#010101" width="2" height="5.6"/>
	</g>
	<g>
		<path fill="#010101" d="M37.8,30.3H24.5v-6.8h13.3V30.3z M26.4,28.4h9.4v-2.8h-9.4V28.4z"/>
	</g>
	<g>
		<rect x="11.1" y="1.5" fill="#010101" width="2" height="7.6"/>
	</g>
	<g>
		<path fill="#010101" d="M44.8,27.5h-4.5V14.7h4.5c1.5,0,2.7,1.2,2.7,2.7v7.4C47.5,26.3,46.3,27.5,44.8,27.5z M42.2,25.6h2.5
			c0.4,0,0.7-0.3,0.7-0.7v-7.4c0-0.4-0.3-0.7-0.7-0.7h-2.5V25.6z"/>
	</g>
</g>
</svg>
