<?xml version="1.0" encoding="utf-8"?>
<!-- Generator: Adobe Illustrator 18.1.1, SVG Export Plug-In . SVG Version: 6.00 Build 0)  -->
<svg version="1.1" id="Layer_1" xmlns="http://www.w3.org/2000/svg" xmlns:xlink="http://www.w3.org/1999/xlink" x="0px" y="0px"
	 viewBox="0 0 48 48" enable-background="new 0 0 48 48" xml:space="preserve">
<g>
	<g>
		<path fill="#010101" d="M24,47.5c-13.2,0-23.5-5.7-23.5-12.9V1.5c0-0.3,0.2-0.6,0.4-0.8c0.3-0.2,0.6-0.2,0.9-0.1
			C9,3.4,16.4,4.8,24,4.8c7.6,0,15-1.4,22.1-4.2c0.3-0.1,0.7-0.1,0.9,0.1c0.3,0.2,0.4,0.5,0.4,0.8v33.1C47.5,41.8,37.2,47.5,24,47.5
			z M2.5,3v31.6c0,5.9,9.8,10.9,21.5,10.9c11.7,0,21.5-5,21.5-10.9V3C38.6,5.5,31.4,6.8,24,6.8C16.6,6.8,9.4,5.5,2.5,3z"/>
	</g>
	<g>
		<path fill="#010101" d="M24,40.6c-10.1,0-16.5-4.3-16.5-7.2V10.3c0-0.3,0.1-0.6,0.4-0.8c0.2-0.2,0.6-0.3,0.9-0.2
			c9.9,2.8,20.6,2.8,30.4,0c0.3-0.1,0.6,0,0.9,0.2c0.2,0.2,0.4,0.5,0.4,0.8v23.1C40.5,36.3,34.1,40.6,24,40.6z M9.5,11.6v21.8
			c0,1.3,5.1,5.2,14.5,5.2s14.5-3.9,14.5-5.2V11.6C29,14,19,14,9.5,11.6z"/>
	</g>
</g>
</svg>
