<?xml version="1.0" encoding="utf-8"?>
<!-- Generator: Adobe Illustrator 18.1.1, SVG Export Plug-In . SVG Version: 6.00 Build 0)  -->
<svg version="1.1" id="Layer_1" xmlns="http://www.w3.org/2000/svg" xmlns:xlink="http://www.w3.org/1999/xlink" x="0px" y="0px"
	 viewBox="0 0 48 48" enable-background="new 0 0 48 48" xml:space="preserve">
<g>
	<g>
		<path fill="#010101" d="M47.5,46.4h-47v-7.1c0-2.5,2.1-4.6,4.6-4.6h38.2c2.4,0,4.3,1.9,4.3,4.3V46.4z M2.4,44.4h43.2V39
			c0-1.3-1.1-2.4-2.4-2.4H5.1c-1.5,0-2.7,1.2-2.7,2.7V44.4z"/>
	</g>
	<g>
		<rect x="10" y="28.5" fill="#010101" width="1.9" height="4.9"/>
	</g>
	<g>
		<path fill="#010101" d="M44.1,20.7h-3.6v-9.6h3.6c1.8,0,3.4,1.5,3.4,3.4v2.9C47.5,19.2,46,20.7,44.1,20.7z M42.5,18.8h1.7
			c0.8,0,1.4-0.6,1.4-1.4v-2.9c0-0.8-0.6-1.4-1.4-1.4h-1.7V18.8z"/>
	</g>
	<g>
		<path fill="#010101" d="M42.5,36.6H25V20.3h-8.7v9.2H5.5V11c0-2.4,1.9-4.3,4.3-4.3h28.8c2.1,0,3.8,1.7,3.8,3.8V36.6z M27,34.7
			h13.6V10.5c0-1-0.8-1.9-1.9-1.9H9.9c-1.3,0-2.4,1.1-2.4,2.4v16.6h6.9v-9.2H27V34.7z"/>
	</g>
	<g>
		<rect x="33.4" y="2.6" fill="#010101" width="1.9" height="5"/>
	</g>
	<g>
		<rect x="31.6" y="1.6" fill="#010101" width="5.4" height="1.9"/>
	</g>
	<g>
		<rect x="30" y="24.5" fill="#010101" width="7.6" height="1.9"/>
	</g>
	<g>
		<rect x="30" y="28.9" fill="#010101" width="7.6" height="1.9"/>
	</g>
</g>
</svg>
