<?xml version="1.0" encoding="utf-8"?>
<!-- Generator: Adobe Illustrator 18.1.1, SVG Export Plug-In . SVG Version: 6.00 Build 0)  -->
<svg version="1.1" id="Layer_1" xmlns="http://www.w3.org/2000/svg" xmlns:xlink="http://www.w3.org/1999/xlink" x="0px" y="0px"
	 viewBox="0 0 48 48" enable-background="new 0 0 48 48" xml:space="preserve">
<g>
	<g>
		<path fill="#010101" d="M40.1,39H7.9L13,5.4c0.4-2.8,3.1-4.9,6.3-4.9h9.5c3.2,0,5.8,2.1,6.3,4.9L40.1,39z M10.1,37.1h27.7
			L33.1,5.6c-0.3-1.8-2.2-3.2-4.4-3.2h-9.5c-2.2,0-4.1,1.4-4.4,3.2L10.1,37.1z"/>
	</g>
	<g>
		<path fill="#010101" d="M42.3,47.5H5.7c-2.9,0-5.2-2.3-5.2-5.2c0-2.9,2.3-5.2,5.2-5.2h36.6c2.9,0,5.2,2.3,5.2,5.2
			C47.5,45.2,45.2,47.5,42.3,47.5z M5.7,39c-1.8,0-3.3,1.5-3.3,3.3c0,1.8,1.5,3.3,3.3,3.3h36.6c1.8,0,3.3-1.5,3.3-3.3
			c0-1.8-1.5-3.3-3.3-3.3H5.7z"/>
	</g>
</g>
</svg>
