<?xml version="1.0" encoding="utf-8"?>
<!-- Generator: Adobe Illustrator 18.1.1, SVG Export Plug-In . SVG Version: 6.00 Build 0)  -->
<svg version="1.1" id="Layer_1" xmlns="http://www.w3.org/2000/svg" xmlns:xlink="http://www.w3.org/1999/xlink" x="0px" y="0px"
	 viewBox="0 0 48 48" enable-background="new 0 0 48 48" xml:space="preserve">
<g>
	<g>
		<path fill="#010101" d="M22.8,35.4L12.6,25.2l12.5-12.5l10.2,10.2L22.8,35.4z M15.3,25.2l7.5,7.5l9.8-9.8l-7.5-7.5L15.3,25.2z"/>
	</g>
	<g>
		<g>
			<path fill="#010101" d="M14.8,25.3c-0.2,0-0.3,0-0.5-0.1l-9.9-5.9c-2.1-1.2-3.5-3.4-3.8-5.8c-0.3-2.7,0.6-5.3,2.6-7.3l3.1-3.1
				c1.7-1.7,3.9-2.6,6.3-2.6c2.9,0,5.4,1.4,6.9,3.9l5.9,9.9c0.2,0.4,0.2,0.9-0.1,1.2L15.4,25C15.3,25.2,15,25.3,14.8,25.3z
				 M12.5,2.4c-1.8,0-3.6,0.7-4.9,2.1L4.5,7.6c-1.5,1.5-2.3,3.6-2,5.7c0.2,1.9,1.3,3.5,2.9,4.4l9.3,5.5l8.5-8.5l-5.5-9.3
				C16.6,3.5,14.7,2.4,12.5,2.4z"/>
		</g>
		<g>
			<path fill="#010101" d="M13.8,14.3C13.8,14.3,13.8,14.3,13.8,14.3c-5.1,0-9.6-1.1-12.5-2.1c-0.4-0.1-0.7-0.6-0.6-1.1
				c0.3-1.9,1.2-3.6,2.5-4.9l0.8-0.8c0.2-0.2,0.6-0.3,0.9-0.3C10,6.4,14.9,6.5,19.3,5.6c0.4-0.1,0.8,0.1,1,0.5l3.2,5.4
				c0.1,0.3,0.2,0.6,0.1,0.8c-0.1,0.3-0.3,0.5-0.6,0.6C20.2,13.8,17.1,14.3,13.8,14.3z M2.7,10.7c2.8,0.8,6.7,1.7,11.1,1.7h0
				c2.6,0,5.1-0.3,7.5-1L19,7.6C14.7,8.4,9.9,8.3,4.9,7.2L4.5,7.6C3.6,8.5,3,9.5,2.7,10.7z"/>
		</g>
		<g>
			<path fill="#010101" d="M14.8,25.3c-0.2,0-0.3,0-0.5-0.1l-9.9-5.9C4.2,19.2,4,19.1,3.9,19c-0.4-0.3-0.5-0.8-0.4-1.2
				c0.2-0.4,0.6-0.7,1.1-0.5C10,18.7,15.3,18.9,20,18c0.4-0.1,0.8,0.1,1,0.5c0.2,0.4,0.1,0.8-0.2,1.1L15.4,25
				C15.3,25.2,15,25.3,14.8,25.3z M9.6,20.2l5.1,3l2.8-2.8C14.9,20.6,12.3,20.5,9.6,20.2z"/>
		</g>
	</g>
	<g>
		<g>
			<path fill="#010101" d="M35.5,47.5L35.5,47.5c-2.9,0-5.4-1.4-6.9-3.9l-5.9-9.9c-0.2-0.4-0.2-0.9,0.1-1.2l9.6-9.6
				c0.3-0.3,0.8-0.4,1.2-0.1l9.9,5.9c2.1,1.2,3.5,3.3,3.8,5.8c0.3,2.7-0.6,5.3-2.6,7.3l-3.1,3.1C40.1,46.6,37.9,47.5,35.5,47.5z
				 M24.8,33.4l5.5,9.3c1.1,1.8,3,2.9,5.2,2.9c1.8,0,3.6-0.7,4.9-2.1l3.1-3.1c1.6-1.6,2.3-3.6,2-5.7c-0.2-1.9-1.3-3.5-2.9-4.4
				l-9.3-5.5L24.8,33.4z"/>
		</g>
		<g>
			<path fill="#010101" d="M36.7,47.4c-0.4,0-0.8-0.3-0.9-0.7c-1.5-4.5-3.5-13.2-0.7-21.8c0.1-0.3,0.3-0.5,0.6-0.6
				c0.3-0.1,0.6-0.1,0.8,0.1l5.4,3.2c0.4,0.2,0.5,0.6,0.5,1c-0.9,4.4-0.8,9.3,0.5,14.5c0.1,0.3,0,0.7-0.3,0.9l-0.8,0.8
				c-1.4,1.4-3.1,2.2-4.9,2.5C36.8,47.4,36.7,47.4,36.7,47.4z M36.6,26.7c-2,7.2-0.5,14.4,0.8,18.6c1.1-0.3,2.2-0.9,3.1-1.8l0.4-0.4
				c-1.1-5-1.3-9.7-0.5-14.1L36.6,26.7z"/>
		</g>
		<g>
			<path fill="#010101" d="M29.8,44.6c-0.3,0-0.6-0.1-0.8-0.4L29,44.1c-0.1-0.2-0.2-0.3-0.3-0.5l-5.9-9.9c-0.2-0.4-0.2-0.9,0.1-1.2
				l5.4-5.4c0.3-0.3,0.8-0.4,1.1-0.2c0.4,0.2,0.6,0.6,0.5,1c-1.2,5.8-0.3,11.4,0.7,15.2c0.1,0.1,0.1,0.3,0.1,0.4
				C30.8,44.2,30.4,44.6,29.8,44.6C29.8,44.6,29.8,44.6,29.8,44.6z M24.8,33.4l3,5.1c-0.3-2.4-0.4-5.1-0.1-7.9L24.8,33.4z"/>
		</g>
	</g>
</g>
</svg>
