<?xml version="1.0" encoding="utf-8"?>
<!-- Generator: Adobe Illustrator 18.1.1, SVG Export Plug-In . SVG Version: 6.00 Build 0)  -->
<svg version="1.1" id="Layer_1" xmlns="http://www.w3.org/2000/svg" xmlns:xlink="http://www.w3.org/1999/xlink" x="0px" y="0px"
	 viewBox="0 0 48 48" enable-background="new 0 0 48 48" xml:space="preserve">
<g>
	<g>
		<path fill="#010101" d="M24.3,47.3c-10.5,0-19-8.5-19-19s8.5-19,19-19s19,8.5,19,19S34.8,47.3,24.3,47.3z M24.3,11.2
			c-9.4,0-17.1,7.7-17.1,17.1s7.7,17.1,17.1,17.1c9.4,0,17.1-7.7,17.1-17.1S33.8,11.2,24.3,11.2z"/>
	</g>
	<g>
		<path fill="#010101" d="M43.1,25l-1.3-0.1c-1.3-0.1-2.5-0.2-3.8-0.4l-2.2-0.3l1.8-1.4c0.9-0.7,1.9-1.5,2.8-2.3l1-0.9l0.5,1.2
			c0.4,0.9,0.7,1.9,0.9,2.8L43.1,25z"/>
	</g>
	<g>
		<path fill="#010101" d="M40.8,33.6c-4.6,0-9.2-0.8-13.8-2.5l-2.2-0.8l2.1-1c3.6-1.7,7.2-3.9,10.7-6.5l0.3-0.3l0.4,0.1
			c1.2,0.2,2.4,0.3,3.6,0.4l0.7,0l0.2,0.7c0.4,1.5,0.6,3,0.6,4.6c0,1.2-0.1,2.4-0.3,3.6L43,32.2l-0.3,0.2c-0.4,0.3-0.8,0.6-1.2,0.9
			l-0.3,0.2L40.8,33.6z M29.9,30c3.6,1.1,7.2,1.6,10.7,1.6c0.2-0.2,0.4-0.3,0.6-0.5c0.2-1,0.2-1.9,0.2-2.9c0-1.1-0.1-2.3-0.3-3.4
			c-0.9-0.1-1.8-0.2-2.7-0.3C35.7,26.7,32.8,28.5,29.9,30z"/>
	</g>
	<g>
		<path fill="#010101" d="M27.8,40.9c-0.1,0-0.2,0-0.2,0c-4.7-1.2-9.4-3.3-14-6.2c-0.3-0.2-0.5-0.6-0.4-1c0.1-0.4,0.4-0.7,0.8-0.7
			c4.3-0.4,8.6-1.7,12.9-3.6c0.2-0.1,0.5-0.1,0.7,0c4.4,1.6,8.8,2.4,13.2,2.4h0.1c0,0,0,0,0,0c0.4,0,0.8,0.3,0.9,0.7
			c0.1,0.4,0,0.8-0.3,1.1c-4.3,3.2-8.8,5.8-13.3,7.5C28.1,40.9,27.9,40.9,27.8,40.9z M16.9,34.5c3.6,2,7.2,3.5,10.9,4.5
			c3.5-1.4,6.9-3.2,10.3-5.5c-3.6-0.3-7.2-1-10.7-2.2C23.9,32.8,20.4,33.9,16.9,34.5z"/>
	</g>
	<g>
		<path fill="#010101" d="M15.9,25.4l-0.3-0.2c-2.5-1.7-4.9-3.6-7.2-5.7L7.7,19l0.4-0.7c1.6-2.6,3.9-4.9,6.6-6.4l0.6-0.3l0.5,0.4
			c3.7,3,7.6,5.5,11.6,7.3l1.7,0.8L27.5,21c-3.7,2-7.4,3.4-11.2,4.4L15.9,25.4z M10.2,18.7c1.9,1.7,3.9,3.3,6,4.7
			c2.9-0.7,5.8-1.8,8.6-3.2c-3.3-1.7-6.6-3.8-9.7-6.3C13.2,15.1,11.5,16.8,10.2,18.7z"/>
	</g>
	<g>
		<path fill="#010101" d="M13.6,43.6L13.6,43.6h-0.2c-0.2,0-0.4-0.1-0.6-0.2c-3.1-2.3-5.3-5.5-6.6-9.2c-0.1-0.3,0-0.6,0.2-0.9
			C6.6,33.1,7,33,7.3,33c2.2,0.2,4.5,0.2,6.7-0.1c0.2,0,0.4,0,0.6,0.1c4.4,2.8,8.9,4.8,13.4,6c0.4,0.1,0.7,0.5,0.7,0.9
			c0,0.4-0.2,0.8-0.6,0.9C23.3,42.7,18.4,43.6,13.6,43.6z M8.6,35c1.1,2.6,2.9,4.9,5.1,6.7c3.6,0,7.3-0.6,10.9-1.7
			c-3.6-1.2-7.3-2.9-10.8-5.2C12.1,35,10.4,35.1,8.6,35z"/>
	</g>
	<g>
		<path fill="#010101" d="M24.3,47.3c-4.2,0-8.2-1.3-11.5-3.9c-0.3-0.2-0.5-0.7-0.3-1.1c0.1-0.4,0.5-0.6,0.9-0.6c0,0,0,0,0,0h0.2
			c4.6,0,9.3-0.9,13.9-2.6c0.2-0.1,0.4-0.1,0.6,0c3,0.8,6,1.2,8.9,1.2c0.4,0,0.7,0.2,0.9,0.6c0.1,0.4,0.1,0.8-0.2,1
			C34.1,45.4,29.3,47.3,24.3,47.3z M16.5,43.5c2.4,1.2,5.1,1.9,7.8,1.9c3.7,0,7.2-1.2,10.2-3.3c-2.2-0.2-4.4-0.5-6.6-1.1
			C24.1,42.4,20.3,43.2,16.5,43.5z"/>
	</g>
	<g>
		<path fill="#010101" d="M27,21.2L26.6,21c-4.1-1.9-8.2-4.4-12-7.5l-1.1-0.9l1.2-0.7c2.9-1.7,6.3-2.6,9.6-2.6c4.4,0,8.6,1.5,12,4.3
			l0.9,0.7L36.4,15c-2.9,2.3-5.9,4.3-8.9,5.9L27,21.2z M16.9,12.9c3.3,2.5,6.6,4.6,10,6.2c2.4-1.3,4.9-2.9,7.2-4.8
			c-2.9-2-6.3-3.1-9.8-3.1C21.8,11.2,19.2,11.8,16.9,12.9z"/>
	</g>
	<g>
		<path fill="#010101" d="M37.3,42.2l-0.4,0c-3.1,0-6.3-0.5-9.4-1.3l-2.9-0.8l2.8-1.1c4.4-1.7,8.7-4.1,12.8-7.2l0.3-0.2l0.3,0
			c0.3,0,0.6,0,1,0l1.3,0l-0.3,1.2c-0.8,3.4-2.6,6.6-5.2,9.1L37.3,42.2z M31,39.7c1.9,0.3,3.7,0.5,5.6,0.6c1.7-1.7,3-3.8,3.8-6.1
			C37.3,36.4,34.2,38.2,31,39.7z"/>
	</g>
	<g>
		<path fill="#010101" d="M7,26.4C7,26.4,7,26.4,7,26.4l-1.6,0l0.2-1.1c0.4-2.5,1.3-4.9,2.6-7l0.6-1l0.9,0.8c2.2,2,4.6,3.9,7,5.5
			l1.8,1.2l-2.1,0.5C13.2,26.1,10,26.4,7,26.4z M9.2,20.3c-0.7,1.3-1.2,2.7-1.6,4.2c2,0,4-0.2,6-0.6C12.2,22.8,10.7,21.6,9.2,20.3z"
			/>
	</g>
	<g>
		<g>
			
				<rect x="35.9" y="7.9" transform="matrix(0.7054 0.7088 -0.7088 0.7054 18.8756 -22.7953)" fill="#010101" width="1.9" height="6.8"/>
		</g>
		<g>
			
				<rect x="4.2" y="37.6" transform="matrix(0.7054 0.7088 -0.7088 0.7054 31.9007 8.9519)" fill="#010101" width="1.9" height="10.5"/>
		</g>
		<g>
			<path fill="#010101" d="M42.1,11.5c-1.4,0-2.8-0.6-3.8-1.6c-2.1-2.1-2.1-5.5,0-7.7c1-1,2.4-1.6,3.8-1.6c1.4,0,2.8,0.6,3.8,1.6
				c1,1,1.6,2.4,1.6,3.8c0,1.4-0.6,2.8-1.6,3.8C44.9,11,43.5,11.5,42.1,11.5z M42.1,2.6c-0.9,0-1.8,0.4-2.5,1c-0.7,0.7-1,1.5-1,2.5
				c0,0.9,0.4,1.8,1,2.5c1.3,1.3,3.6,1.3,4.9,0c0.7-0.7,1-1.5,1-2.5c0-0.9-0.4-1.8-1-2.5C43.9,3,43,2.6,42.1,2.6z"/>
		</g>
	</g>
	<g>
		<g>
			
				<rect x="7.8" y="10.4" transform="matrix(0.7086 0.7056 -0.7056 0.7086 11.2256 -4.5652)" fill="#010101" width="6.8" height="1.9"/>
		</g>
		<g>
			
				<rect x="37.6" y="41.9" transform="matrix(0.7086 0.7056 -0.7056 0.7086 42.7152 -17.7258)" fill="#010101" width="10.5" height="1.9"/>
		</g>
		<g>
			<path fill="#010101" d="M5.9,11.5c-1.4,0-2.8-0.6-3.8-1.6c-1-1-1.6-2.4-1.6-3.8c0-1.4,0.6-2.8,1.6-3.8c1-1,2.4-1.6,3.8-1.6
				c1.4,0,2.8,0.6,3.8,1.6c1,1,1.6,2.4,1.6,3.8c0,1.4-0.6,2.8-1.6,3.8C8.7,10.9,7.4,11.5,5.9,11.5z M5.9,2.6C5,2.6,4.1,3,3.4,3.6
				c-0.7,0.7-1,1.5-1,2.5c0,0.9,0.4,1.8,1,2.5c1.3,1.3,3.6,1.3,4.9,0c0.7-0.7,1-1.5,1-2.5c0-0.9-0.4-1.8-1-2.5
				C7.7,3,6.8,2.6,5.9,2.6z"/>
		</g>
	</g>
</g>
</svg>
