<?xml version="1.0" encoding="utf-8"?>
<!-- Generator: Adobe Illustrator 18.1.1, SVG Export Plug-In . SVG Version: 6.00 Build 0)  -->
<svg version="1.1" id="Layer_1" xmlns="http://www.w3.org/2000/svg" xmlns:xlink="http://www.w3.org/1999/xlink" x="0px" y="0px"
	 viewBox="0 0 48 48" enable-background="new 0 0 48 48" xml:space="preserve">
<g>
	<g>
		<path fill="#010101" d="M12.8,47.5c-0.6,0-1.1-0.1-1.6-0.2c-3.6-0.9-5.7-4.5-4.8-8.1c0.7-3,3.4-5,6.5-5c0.6,0,1.1,0.1,1.6,0.2
			c3.6,0.9,5.7,4.5,4.8,8.1C18.5,45.4,15.9,47.5,12.8,47.5z M12.8,36.1c-2.2,0-4.1,1.5-4.6,3.6c-0.6,2.5,0.9,5.1,3.4,5.8
			c0.4,0.1,0.8,0.1,1.2,0.1c2.2,0,4.1-1.5,4.6-3.6c0.6-2.5-0.9-5.1-3.4-5.8C13.6,36.1,13.2,36.1,12.8,36.1z"/>
	</g>
	<g>
		<path fill="#010101" d="M30.1,38.8c-0.3,0-0.5-0.1-0.7-0.3L9.1,16.8C2.6,8.8,8.9,0.9,9,0.8c0.2-0.2,0.5-0.4,0.8-0.3
			c0.3,0,0.6,0.2,0.8,0.5l20.4,36.4c0.2,0.4,0.1,1-0.3,1.2C30.5,38.7,30.3,38.8,30.1,38.8z M9.6,3.3c-1.3,2.2-3.2,7.2,0.9,12.3
			l14.8,15.8L9.6,3.3z"/>
	</g>
	<g>
		<path fill="#010101" d="M35.2,47.5L35.2,47.5c-3,0-5.7-2.1-6.5-5c-0.9-3.6,1.3-7.2,4.8-8.1c0.5-0.1,1.1-0.2,1.6-0.2
			c3,0,5.7,2.1,6.5,5c0.4,1.7,0.2,3.5-0.7,5c-0.9,1.5-2.4,2.6-4.1,3C36.3,47.4,35.7,47.5,35.2,47.5z M35.2,36.1
			c-0.4,0-0.8,0-1.2,0.1c-2.5,0.6-4.1,3.2-3.4,5.8c0.5,2.1,2.4,3.6,4.6,3.6c0.4,0,0.8,0,1.2-0.1c1.2-0.3,2.3-1.1,2.9-2.2
			c0.6-1.1,0.8-2.4,0.5-3.6C39.3,37.6,37.4,36.1,35.2,36.1z"/>
	</g>
	<g>
		<g>
			<path fill="#010101" d="M17.9,38.8c-0.2,0-0.4-0.1-0.6-0.2c-0.4-0.3-0.5-0.8-0.3-1.2l3.1-5.5c0.1-0.3,0.4-0.4,0.7-0.5
				c0.3,0,0.6,0.1,0.8,0.3l1,1.1c0.3,0.4,0.3,0.9,0,1.3l-4.1,4.4C18.4,38.7,18.2,38.8,17.9,38.8z"/>
		</g>
		<g>
			<path fill="#010101" d="M27.6,28.4c0,0-0.1,0-0.1,0c-0.3,0-0.6-0.2-0.7-0.5l-1.9-3.5c-0.2-0.3-0.2-0.6,0-0.9L37.4,1
				c0.2-0.3,0.4-0.5,0.8-0.5c0.3,0,0.6,0.1,0.8,0.3c0.1,0.1,6.4,7.9-0.1,15.9L28.3,28.1C28.1,28.3,27.9,28.4,27.6,28.4z M26.8,24
				l1,1.9l9.7-10.3c4.2-5.1,2.2-10,0.9-12.2L26.8,24z"/>
		</g>
	</g>
</g>
</svg>
