<?xml version="1.0" encoding="utf-8"?>
<!-- Generator: Adobe Illustrator 18.1.1, SVG Export Plug-In . SVG Version: 6.00 Build 0)  -->
<svg version="1.1" id="Layer_1" xmlns="http://www.w3.org/2000/svg" xmlns:xlink="http://www.w3.org/1999/xlink" x="0px" y="0px"
	 viewBox="0 0 48 48" enable-background="new 0 0 48 48" xml:space="preserve">
<g>
	<g>
		<path fill="#010101" d="M24,43.3c-3.5,0-7-0.9-10-2.5l-1.1-0.6l16-17.4l-8.5-2.1L7.3,35.3l-0.7-1c-2.6-3.7-4-8-4-12.4
			C2.6,10.1,12.2,0.5,24,0.5c11.8,0,21.4,9.6,21.4,21.4S35.8,43.3,24,43.3z M16,39.7c2.5,1.1,5.2,1.7,8,1.7
			c10.7,0,19.5-8.7,19.5-19.5S34.7,2.4,24,2.4c-10.7,0-19.5,8.7-19.5,19.5c0,3.7,1,7.2,3,10.3l12.3-13.6l12.8,3.1L16,39.7z"/>
	</g>
	<g>
		
			<rect x="33" y="42.1" transform="matrix(0.6389 0.7693 -0.7693 0.6389 46.847 -13.6521)" fill="#010101" width="9.9" height="1.9"/>
	</g>
</g>
</svg>
