<?xml version="1.0" encoding="utf-8"?>
<!-- Generator: Adobe Illustrator 18.1.1, SVG Export Plug-In . SVG Version: 6.00 Build 0)  -->
<svg version="1.1" id="Layer_1" xmlns="http://www.w3.org/2000/svg" xmlns:xlink="http://www.w3.org/1999/xlink" x="0px" y="0px"
	 viewBox="0 0 48 48" enable-background="new 0 0 48 48" xml:space="preserve">
<g>
	<g>
		<path fill="#010101" d="M11.7,23c-3,0-5.8-1.2-7.9-3.3c-4.4-4.4-4.4-11.5,0-15.9c2.1-2.1,4.9-3.3,7.9-3.3c3,0,5.8,1.2,7.9,3.3
			c4.4,4.4,4.4,11.5,0,15.9C17.5,21.8,14.7,23,11.7,23z M11.7,2.4c-2.5,0-4.8,1-6.6,2.7c-3.6,3.6-3.6,9.5,0,13.1
			c1.8,1.8,4.1,2.7,6.6,2.7c2.5,0,4.8-1,6.6-2.7c3.6-3.6,3.6-9.5,0-13.1C16.5,3.4,14.2,2.4,11.7,2.4z"/>
	</g>
	<g>
		<polygon fill="#010101" points="47.5,47.5 7,21.8 8,20.2 41.2,41.2 20.2,8 21.8,7 		"/>
	</g>
</g>
</svg>
