<?xml version="1.0" encoding="utf-8"?>
<!-- Generator: Adobe Illustrator 18.1.1, SVG Export Plug-In . SVG Version: 6.00 Build 0)  -->
<svg version="1.1" id="Layer_1" xmlns="http://www.w3.org/2000/svg" xmlns:xlink="http://www.w3.org/1999/xlink" x="0px" y="0px"
	 viewBox="0 0 48 48" enable-background="new 0 0 48 48" xml:space="preserve">
<g>
	<path fill="#010101" d="M5.5,47.5l-0.2-0.8c-1.9-10.1,5.9-24.9,10.8-32.8c0.6-0.9,0.8-1.8,0.8-2.8L16.8,0.5h19.7l0,10.6
		c0,0.9,0.3,1.8,0.7,2.6c3.8,6.4,5.3,15.2,5.6,17.7c0.2,1.3-0.6,2.6-2.2,3.3c-1.7,0.8-3.9,0.9-5.4,0.9c-0.3,0-0.5,0-0.8,0
		c-2.1,3.7-7,4.3-9.8,4.3c-0.3,0-0.6,0-0.9,0c-1,2.5-3.9,3.9-7.9,3.9c-0.3,0-0.6,0-0.8,0c-3.1,3.3-8.6,3.7-8.8,3.7L5.5,47.5z
		 M18.8,2.4l0.1,8.7c0,1.3-0.4,2.6-1.1,3.8c-3.7,6-11.9,20.7-10.6,30.6c1.6-0.2,5.1-1,6.9-3.3l0.3-0.4l0.5,0.1c0,0,0.4,0,1.1,0
		c2.1,0,5.6-0.4,6.3-3.2l0.2-0.8l0.8,0.1c0,0,0.6,0.1,1.4,0.1c2.5,0,6.9-0.5,8.4-3.8l0.3-0.6l0.7,0.1c0,0,0.5,0,1.2,0
		c1.9,0,3.6-0.3,4.6-0.7c0.7-0.3,1.1-0.8,1.1-1.3c-0.4-2.5-1.8-11-5.4-17c-0.7-1.1-1-2.3-1-3.6l0-8.7H18.8z"/>
</g>
</svg>
