<?xml version="1.0" encoding="utf-8"?>
<!-- Generator: Adobe Illustrator 18.1.1, SVG Export Plug-In . SVG Version: 6.00 Build 0)  -->
<svg version="1.1" id="Layer_1" xmlns="http://www.w3.org/2000/svg" xmlns:xlink="http://www.w3.org/1999/xlink" x="0px" y="0px"
	 viewBox="0 0 48 48" enable-background="new 0 0 48 48" xml:space="preserve">
<g>
	<g>
		<path fill="#010101" d="M19.6,37.2l-8.8-8.8l17.6-17.6l8.8,8.8L19.6,37.2z M13.5,28.4l6.1,6.1l14.9-14.9l-6.1-6.1L13.5,28.4z"/>
	</g>
	<g>
		<g>
			<g>
				<path fill="#010101" d="M13.3,28.2c-0.1,0-0.2,0-0.3-0.1l-9.5-3.6C2,24,1,22.8,0.6,21.2C0,18.1,1.9,13.7,5.5,10L10,5.5
					c3.1-3.1,6.8-5,9.9-5c2.2,0,3.9,1.1,4.6,2.9l3.6,9.5c0.1,0.4,0,0.8-0.2,1L14,28C13.8,28.1,13.6,28.2,13.3,28.2z M19.9,2.4
					c-2.5,0-5.8,1.7-8.6,4.4l-4.5,4.5c-3.1,3.1-4.9,7-4.4,9.5c0.2,0.9,0.7,1.6,1.6,1.9l9,3.4l13.1-13.1l-3.4-9
					C22.3,3,21.4,2.4,19.9,2.4z"/>
			</g>
			<g>
				<path fill="#010101" d="M4.5,17.4C4.5,17.4,4.5,17.4,4.5,17.4c-0.8,0-1.5,0-2.3-0.1c-0.3,0-0.6-0.2-0.8-0.4
					c-0.2-0.3-0.2-0.6-0.1-0.9c0.9-2.1,2.3-4.2,4.2-6l1.2-1.2c0.2-0.2,0.4-0.3,0.6-0.3c5.6-0.2,11.1-1.6,16.6-4
					c0.2-0.1,0.5-0.1,0.8,0c0.2,0.1,0.4,0.3,0.5,0.5l2,5.2c0.2,0.4,0,0.9-0.4,1.2C17.7,16.4,9.7,17.4,4.5,17.4z M3.7,15.5
					c0.2,0,0.5,0,0.7,0c4.8,0,12.3-0.9,20.6-5.3l-1.3-3.5c-5.2,2.2-10.6,3.5-16,3.8l-0.9,0.9C5.6,12.7,4.5,14.1,3.7,15.5z"/>
			</g>
			<g>
				<path fill="#010101" d="M13.3,28.2c-0.1,0-0.2,0-0.3-0.1l-9.5-3.6c-0.2-0.1-0.3-0.2-0.5-0.2c-0.4-0.2-0.6-0.7-0.5-1.1
					c0.1-0.4,0.5-0.7,0.9-0.7c4,0,10.3-0.7,17.5-4c0.4-0.2,0.9-0.1,1.2,0.3c0.3,0.4,0.2,0.9-0.1,1.2L14,28
					C13.8,28.1,13.6,28.2,13.3,28.2z M7.7,24.1l5.4,2l4.2-4.2C13.7,23.2,10.5,23.8,7.7,24.1z"/>
			</g>
		</g>
		<g>
			<g>
				<path fill="#010101" d="M28.1,47.5L28.1,47.5c-2.2,0-3.9-1.1-4.6-2.9L19.8,35c-0.1-0.4,0-0.8,0.2-1l14-14c0.3-0.3,0.7-0.4,1-0.2
					l9.5,3.6c1.5,0.6,2.5,1.7,2.8,3.3c0.7,3.2-1.2,7.6-4.9,11.2L38,42.5C34.9,45.6,31.1,47.5,28.1,47.5z M21.8,34.9l3.4,9
					c0.4,1.1,1.4,1.7,2.8,1.7c2.5,0,5.8-1.7,8.6-4.4l4.5-4.5c3.1-3.1,4.9-7,4.4-9.5c-0.2-0.9-0.7-1.6-1.6-1.9l-9-3.4L21.8,34.9z"/>
			</g>
			<g>
				<path fill="#010101" d="M31.6,46.7c-0.2,0-0.4,0-0.5-0.1c-0.3-0.2-0.4-0.4-0.4-0.8c-0.3-4.6,0.1-14,5.9-24.5
					c0.2-0.4,0.7-0.6,1.2-0.4l5.2,2c0.2,0.1,0.4,0.3,0.5,0.5c0.1,0.2,0.1,0.5,0,0.8c-2.5,5.4-3.8,11-4,16.6c0,0.2-0.1,0.5-0.3,0.6
					L38,42.5c-1.9,1.9-3.9,3.3-6,4.2C31.8,46.7,31.7,46.7,31.6,46.7z M37.8,22.9c-4.7,8.8-5.4,16.7-5.3,21.3
					c1.4-0.8,2.9-1.8,4.2-3.1l0.9-0.9c0.2-5.4,1.5-10.7,3.8-16L37.8,22.9z"/>
			</g>
			<g>
				<path fill="#010101" d="M24.6,45.6c-0.3,0-0.7-0.2-0.8-0.5l0.8-0.5l-0.9,0.4c-0.1-0.2-0.2-0.3-0.2-0.5L19.8,35
					c-0.1-0.4,0-0.8,0.2-1l7.9-7.9c0.3-0.3,0.8-0.4,1.2-0.1c0.4,0.3,0.5,0.8,0.3,1.2c-3.2,7.2-3.9,13.5-4,17.5
					c0,0.4-0.3,0.8-0.7,0.9C24.7,45.6,24.6,45.6,24.6,45.6z M21.8,34.9l2,5.4c0.3-2.8,1-6,2.2-9.6L21.8,34.9z"/>
			</g>
		</g>
	</g>
</g>
</svg>
