<?xml version="1.0" encoding="utf-8"?>
<!-- Generator: Adobe Illustrator 18.1.1, SVG Export Plug-In . SVG Version: 6.00 Build 0)  -->
<svg version="1.1" id="Layer_1" xmlns="http://www.w3.org/2000/svg" xmlns:xlink="http://www.w3.org/1999/xlink" x="0px" y="0px"
	 viewBox="0 0 48 48" enable-background="new 0 0 48 48" xml:space="preserve">
<g>
	<g>
		<path fill="#010101" d="M24,47.5C11,47.5,0.5,37,0.5,24C0.5,11,11,0.5,24,0.5S47.5,11,47.5,24C47.5,37,37,47.5,24,47.5z M24,2.4
			C12.1,2.4,2.4,12.1,2.4,24c0,11.9,9.7,21.6,21.6,21.6c11.9,0,21.6-9.7,21.6-21.6C45.6,12.1,35.9,2.4,24,2.4z"/>
	</g>
	<g>
		<path fill="#010101" d="M1.1,29.3l-0.2-1c-0.3-1.5-0.4-2.9-0.4-4.4C0.5,11,11,0.5,24,0.5c4.2,0,8.4,1.2,12.1,3.4L37,4.4l-0.6,0.8
			c-6.6,8.8-17.9,20.1-34.3,23.8L1.1,29.3z M24,2.4C12.1,2.4,2.4,12.1,2.4,24c0,1,0.1,2,0.2,3c14.8-3.7,25.2-13.8,31.5-22
			C31,3.3,27.5,2.4,24,2.4z"/>
	</g>
	<g>
		<path fill="#010101" d="M14.1,45.2c-0.1,0-0.3,0-0.4-0.1c-3.6-1.8-6.7-4.5-9-7.8c-0.2-0.3-0.2-0.6-0.1-0.9
			c0.1-0.3,0.4-0.5,0.7-0.6c18.6-3.6,30.7-17.5,36.2-25.5c0.2-0.3,0.5-0.4,0.8-0.4c0,0,0,0,0,0c0.3,0,0.6,0.1,0.8,0.4
			c2.2,3,3.6,6.6,4.2,10.3c0,0.3,0,0.5-0.2,0.7C40.8,29.8,30,40.9,14.3,45.1C14.2,45.2,14.2,45.2,14.1,45.2z M7.1,37.4
			c1.9,2.4,4.3,4.4,7.1,5.8c14.7-4.1,25-14.5,31.1-22.7c-0.5-2.8-1.5-5.5-3-7.9C36.4,20.7,24.6,33.5,7.1,37.4z"/>
	</g>
	<g>
		<path fill="#010101" d="M12.8,25.3c-2.9-2.4-5.4-5.6-7.3-8.2c-0.8-1-1.5-2-2.2-2.8l-0.4-0.5l0.3-0.6c1.3-2.6,3.1-4.8,5.2-6.7l0,0
			l0.8-0.6c0,0,0,0,0,0l0.7-0.6l0,0c2.4-1.8,5.2-3.2,8.2-4l0.5-0.1l0.4,0.4c0.9,0.9,1.8,1.8,2.8,2.9c2.3,2.4,4.9,5.2,7.7,6.9l-1,1.6
			c-3-1.9-5.7-4.7-8.1-7.2C19.5,4.9,18.7,4,18,3.3c-2.5,0.7-4.8,1.9-6.9,3.4c0.5,0.6,1,1.2,1.6,1.8c2.6,3.1,5.9,7,9.7,9.7l-1.1,1.6
			c-4-2.8-7.4-6.8-10.1-10c-0.5-0.6-1.1-1.3-1.6-1.8c-1.8,1.6-3.3,3.5-4.5,5.6C5.7,14.2,6.3,15,7,15.9c1.9,2.5,4.3,5.7,7,7.9
			L12.8,25.3z"/>
	</g>
</g>
</svg>
