<?xml version="1.0" encoding="utf-8"?>
<!-- Generator: Adobe Illustrator 18.1.1, SVG Export Plug-In . SVG Version: 6.00 Build 0)  -->
<svg version="1.1" id="Layer_1" xmlns="http://www.w3.org/2000/svg" xmlns:xlink="http://www.w3.org/1999/xlink" x="0px" y="0px"
	 viewBox="0 0 48 48" enable-background="new 0 0 48 48" xml:space="preserve">
<g>
	<g>
		<g>
			<path fill="#010101" d="M31.1,32.5l-7.2-7.2l0-0.4c0.3-10.1,3.7-15.6,6.4-18.5c1.2-1.2,2.7-1.9,4.4-1.9c1,0,2.1,0.3,3,0.7
				c9,4.6,9.6,10.8,9.6,11.1c1.6,12.6-15.6,16-15.8,16.1L31.1,32.5z M25.8,24.5l5.9,5.9c2.6-0.6,15-4.1,13.8-13.8
				c0-0.3-0.7-5.5-8.6-9.6C35.1,6,33,6.4,31.7,7.7C29.2,10.2,26.2,15.2,25.8,24.5z"/>
		</g>
		<g>
			<path fill="#010101" d="M17.9,47.5c-0.5,0-1.1,0-1.6-0.1c-0.2,0-6.5-0.7-11-9.6c-1.3-2.6-0.9-5.6,1.1-7.5
				c2.9-2.7,8.4-6.1,18.5-6.4l0.4,0l7.2,7.2l-0.1,0.5C32.2,32.2,29.2,47.5,17.9,47.5z M24.5,25.8c-9.2,0.4-14.2,3.4-16.8,5.9
				C6.3,33,6,35.1,6.9,36.9c4,7.9,9.3,8.6,9.5,8.6c0.5,0.1,1,0.1,1.4,0.1c8.7,0,11.8-11.3,12.4-13.9L24.5,25.8z"/>
		</g>
	</g>
	<g>
		<g>
			
				<rect x="24.2" y="3.1" transform="matrix(0.707 0.7072 -0.7072 0.707 11.1328 -18.7619)" fill="#010101" width="8.1" height="1.9"/>
		</g>
		<g>
			<rect x="0" y="27.2" transform="matrix(0.7071 0.7071 -0.7071 0.7071 21.137 5.3971)" fill="#010101" width="8.1" height="1.9"/>
		</g>
	</g>
</g>
</svg>
