<?xml version="1.0" encoding="utf-8"?>
<!-- Generator: Adobe Illustrator 18.1.1, SVG Export Plug-In . SVG Version: 6.00 Build 0)  -->
<svg version="1.1" id="Layer_1" xmlns="http://www.w3.org/2000/svg" xmlns:xlink="http://www.w3.org/1999/xlink" x="0px" y="0px"
	 viewBox="0 0 48 48" enable-background="new 0 0 48 48" xml:space="preserve">
<g>
	<path fill="#010101" d="M39.2,47.5c-1.8,0-3.5-0.5-5-1.6L10.6,29.8c-1.4-1-2.5-2.2-3.3-3.7L0.6,13.6c-0.2-0.4-0.1-0.8,0.2-1.1
		c0.3-0.3,0.8-0.4,1.1-0.2l17.3,9c0.3,0.1,0.5,0.4,0.5,0.7c0,0.3-0.1,0.6-0.3,0.8L19,23.2L34.9,39c0.7,0.7,2,0.7,2.8,0l1.2-1.2
		c0.4-0.4,0.6-0.9,0.6-1.4c0-0.5-0.2-1-0.6-1.4L23,19.2l-0.4,0.4c-0.2,0.2-0.5,0.3-0.8,0.3c-0.3,0-0.6-0.2-0.7-0.5L11.8,1.9
		c-0.2-0.4-0.1-0.8,0.2-1.1c0.3-0.3,0.8-0.4,1.1-0.2l13,7.1c1.4,0.8,2.7,1.9,3.6,3.2L46,34.5c2.5,3.6,1.8,8.4-1.6,11.2
		C43,46.8,41.1,47.5,39.2,47.5z M3.8,15.4L9,25.2c0.6,1.2,1.6,2.3,2.7,3l23.6,16.1c1.1,0.8,2.5,1.2,3.9,1.2c1.5,0,2.9-0.5,4-1.4
		c2.6-2.1,3.1-5.8,1.2-8.6L28.1,12c-0.8-1.1-1.8-2-2.9-2.7L15,3.8l7.1,13.5l0.2-0.2c0.4-0.4,1-0.4,1.4,0l16.5,16.4
		c0.7,0.7,1.1,1.7,1.1,2.7s-0.4,2-1.1,2.7L39,40.3c-0.7,0.7-1.7,1.1-2.7,1.1c-1,0-2-0.4-2.7-1.1L17,23.9c-0.2-0.2-0.3-0.4-0.3-0.7
		c0-0.3,0.1-0.5,0.3-0.7l0.1-0.1L3.8,15.4z"/>
</g>
</svg>
