<?xml version="1.0" encoding="utf-8"?>
<!-- Generator: Adobe Illustrator 18.1.1, SVG Export Plug-In . SVG Version: 6.00 Build 0)  -->
<svg version="1.1" id="Layer_1" xmlns="http://www.w3.org/2000/svg" xmlns:xlink="http://www.w3.org/1999/xlink" x="0px" y="0px"
	 viewBox="0 0 48 48" enable-background="new 0 0 48 48" xml:space="preserve">
<g>
	<g>
		<path fill="#010101" d="M47.5,47.1h-47V38c0-2.5,2.1-4.6,4.6-4.6h38.2c2.4,0,4.3,1.9,4.3,4.3V47.1z M2.4,45.1h43.2v-7.4
			c0-1.3-1.1-2.4-2.4-2.4H5.1c-1.5,0-2.7,1.2-2.7,2.7V45.1z"/>
	</g>
	<g>
		<path fill="#010101" d="M43.8,20.7h-3.2v-12h3.2c2,0,3.7,1.7,3.7,3.7v4.6C47.5,19,45.8,20.7,43.8,20.7z M42.5,18.7h1.3
			c1,0,1.8-0.8,1.8-1.8v-4.6c0-1-0.8-1.8-1.8-1.8h-1.3V18.7z"/>
	</g>
	<g>
		<path fill="#010101" d="M33.9,29.7c-2.7,0-4.9-2.2-4.9-4.9s2.2-4.9,4.9-4.9c2.7,0,4.9,2.2,4.9,4.9S36.6,29.7,33.9,29.7z
			 M33.9,21.8c-1.6,0-3,1.3-3,3c0,1.6,1.3,3,3,3c1.6,0,3-1.3,3-3C36.9,23.1,35.6,21.8,33.9,21.8z"/>
	</g>
	<g>
		<path fill="#010101" d="M37.9,14.9H29V9h8.8V14.9z M31,13h5v-2h-5V13z"/>
	</g>
	<g>
		<path fill="#010101" d="M42.5,35.3H25V19h-8.7v1.3c0,3-2.4,5.4-5.4,5.4c-3,0-5.4-2.4-5.4-5.4V5.4h36.9V35.3z M27,33.4h13.6V7.3
			H7.5v13c0,1.9,1.6,3.5,3.5,3.5s3.5-1.6,3.5-3.5v-3.2H27V33.4z"/>
	</g>
	<g>
		<path fill="#010101" d="M37.6,43.3H10.4v-6h27.3V43.3z M12.3,41.3h23.4v-2.1H12.3V41.3z"/>
	</g>
	<g>
		<rect x="34.2" y="0.9" fill="#010101" width="1.9" height="5.4"/>
	</g>
	<g>
		<rect x="11.9" y="0.9" fill="#010101" width="1.9" height="5.4"/>
	</g>
</g>
</svg>
