<?xml version="1.0" encoding="utf-8"?>
<!-- Generator: Adobe Illustrator 18.1.1, SVG Export Plug-In . SVG Version: 6.00 Build 0)  -->
<svg version="1.1" id="Layer_1" xmlns="http://www.w3.org/2000/svg" xmlns:xlink="http://www.w3.org/1999/xlink" x="0px" y="0px"
	 viewBox="0 0 48 48" enable-background="new 0 0 48 48" xml:space="preserve">
<g>
	<g>
		<path fill="#010101" d="M24,47.5C11,47.5,0.5,37,0.5,24C0.5,11,11,0.5,24,0.5S47.5,11,47.5,24C47.5,37,37,47.5,24,47.5z M24,2.4
			C12.1,2.4,2.4,12.1,2.4,24c0,11.9,9.7,21.6,21.6,21.6S45.6,35.9,45.6,24C45.6,12.1,35.9,2.4,24,2.4z"/>
	</g>
	<g>
		<g>
			<g>
				<path fill="#010101" d="M24,13.1c-2.4,0-4.3-1.9-4.3-4.3c0-2.4,1.9-4.3,4.3-4.3c2.4,0,4.3,1.9,4.3,4.3
					C28.3,11.1,26.4,13.1,24,13.1z M24,6.3c-1.3,0-2.4,1.1-2.4,2.4c0,1.3,1.1,2.4,2.4,2.4s2.4-1.1,2.4-2.4C26.4,7.4,25.3,6.3,24,6.3
					z"/>
			</g>
			<g>
				<path fill="#010101" d="M24,43.6c-2.4,0-4.3-1.9-4.3-4.3c0-2.4,1.9-4.3,4.3-4.3c2.4,0,4.3,1.9,4.3,4.3
					C28.3,41.6,26.4,43.6,24,43.6z M24,36.8c-1.3,0-2.4,1.1-2.4,2.4c0,1.3,1.1,2.4,2.4,2.4s2.4-1.1,2.4-2.4
					C26.4,37.9,25.3,36.8,24,36.8z"/>
			</g>
		</g>
		<g>
			<g>
				<path fill="#010101" d="M39.2,28.3c-2.4,0-4.3-1.9-4.3-4.3c0-2.4,1.9-4.3,4.3-4.3c2.4,0,4.3,1.9,4.3,4.3
					C43.6,26.4,41.6,28.3,39.2,28.3z M39.2,21.6c-1.3,0-2.4,1.1-2.4,2.4c0,1.3,1.1,2.4,2.4,2.4s2.4-1.1,2.4-2.4
					C41.7,22.7,40.6,21.6,39.2,21.6z"/>
			</g>
			<g>
				<path fill="#010101" d="M8.8,28.3c-2.4,0-4.3-1.9-4.3-4.3c0-2.4,1.9-4.3,4.3-4.3c2.4,0,4.3,1.9,4.3,4.3
					C13.1,26.4,11.1,28.3,8.8,28.3z M8.8,21.6c-1.3,0-2.4,1.1-2.4,2.4c0,1.3,1.1,2.4,2.4,2.4s2.4-1.1,2.4-2.4
					C11.2,22.7,10.1,21.6,8.8,21.6z"/>
			</g>
		</g>
		<g>
			<path fill="#010101" d="M34.8,17.6c-1.2,0-2.2-0.5-3.1-1.3c-1.7-1.7-1.7-4.4,0-6.1c0.8-0.8,1.9-1.3,3.1-1.3
				c1.2,0,2.2,0.5,3.1,1.3c0.8,0.8,1.3,1.9,1.3,3.1c0,1.2-0.5,2.2-1.3,3.1C37,17.1,35.9,17.6,34.8,17.6z M34.8,10.8
				c-0.6,0-1.3,0.3-1.7,0.7c-0.9,0.9-0.9,2.5,0,3.4c0.9,0.9,2.5,0.9,3.4,0c0.5-0.5,0.7-1.1,0.7-1.7c0-0.6-0.3-1.3-0.7-1.7
				C36,11.1,35.4,10.8,34.8,10.8z"/>
		</g>
		<g>
			<path fill="#010101" d="M24,31.7c-2.1,0-4-0.8-5.5-2.3c-1.5-1.5-2.3-3.4-2.3-5.5c0-2.1,0.8-4,2.3-5.5c1.5-1.5,3.4-2.3,5.5-2.3
				c2.1,0,4,0.8,5.5,2.3c1.5,1.5,2.3,3.4,2.3,5.5c0,2.1-0.8,4-2.3,5.5C28,30.9,26.1,31.7,24,31.7z M24,18.2c-1.6,0-3,0.6-4.1,1.7
				c-1.1,1.1-1.7,2.6-1.7,4.1c0,1.6,0.6,3,1.7,4.1c1.1,1.1,2.6,1.7,4.1,1.7c1.6,0,3-0.6,4.1-1.7c1.1-1.1,1.7-2.6,1.7-4.1
				c0-1.6-0.6-3-1.7-4.1C27,18.8,25.6,18.2,24,18.2z"/>
		</g>
		<g>
			<path fill="#010101" d="M13.2,39.1c-1.2,0-2.2-0.5-3.1-1.3c-1.7-1.7-1.7-4.4,0-6.1c0.8-0.8,1.9-1.3,3.1-1.3s2.2,0.5,3.1,1.3
				c1.7,1.7,1.7,4.4,0,6.1C15.5,38.7,14.4,39.1,13.2,39.1z M13.2,32.4c-0.6,0-1.3,0.3-1.7,0.7c-0.9,0.9-0.9,2.5,0,3.4
				c0.9,0.9,2.5,0.9,3.4,0c0.9-0.9,0.9-2.5,0-3.4C14.5,32.6,13.9,32.4,13.2,32.4z"/>
		</g>
		<g>
			<g>
				<path fill="#010101" d="M34.8,39.1c-1.2,0-2.2-0.5-3.1-1.3c-1.7-1.7-1.7-4.4,0-6.1c0.8-0.8,1.9-1.3,3.1-1.3
					c1.2,0,2.2,0.5,3.1,1.3c0.8,0.8,1.3,1.9,1.3,3.1c0,1.2-0.5,2.2-1.3,3.1C37,38.7,35.9,39.1,34.8,39.1z M34.8,32.4
					c-0.6,0-1.3,0.3-1.7,0.7c-0.9,0.9-0.9,2.5,0,3.4c0.9,0.9,2.5,0.9,3.4,0c0.5-0.5,0.7-1.1,0.7-1.7c0-0.6-0.3-1.3-0.7-1.7
					C36,32.6,35.4,32.4,34.8,32.4z"/>
			</g>
			<g>
				<path fill="#010101" d="M13.2,17.6c-1.2,0-2.2-0.5-3.1-1.3c-1.7-1.7-1.7-4.4,0-6.1c0.8-0.8,1.9-1.3,3.1-1.3s2.2,0.5,3.1,1.3
					c1.7,1.7,1.7,4.4,0,6.1C15.5,17.1,14.4,17.6,13.2,17.6z M13.2,10.8c-0.6,0-1.3,0.3-1.7,0.7c-0.9,0.9-0.9,2.5,0,3.4
					c0.9,0.9,2.5,0.9,3.4,0c0.9-0.9,0.9-2.5,0-3.4C14.5,11.1,13.9,10.8,13.2,10.8z"/>
			</g>
		</g>
	</g>
</g>
</svg>
