<?xml version="1.0" encoding="utf-8"?>
<!-- Generator: Adobe Illustrator 18.1.1, SVG Export Plug-In . SVG Version: 6.00 Build 0)  -->
<svg version="1.1" id="Layer_1" xmlns="http://www.w3.org/2000/svg" xmlns:xlink="http://www.w3.org/1999/xlink" x="0px" y="0px"
	 viewBox="0 0 48 48" enable-background="new 0 0 48 48" xml:space="preserve">
<g>
	<g>
		<g>
			<path fill="#010101" d="M35.5,9.4H12.5c-1.7,0-3.1-1.4-3.1-3.1V3.6c0-1.7,1.4-3.1,3.1-3.1h22.9c1.7,0,3.1,1.4,3.1,3.1v2.8
				C38.5,8,37.1,9.4,35.5,9.4z M12.5,2.4c-0.6,0-1.1,0.5-1.1,1.1v2.8c0,0.6,0.5,1.1,1.1,1.1h22.9c0.6,0,1.1-0.5,1.1-1.1V3.6
				c0-0.6-0.5-1.1-1.1-1.1H12.5z"/>
		</g>
		<g>
			<path fill="#010101" d="M35.5,47.5H12.5c-1.7,0-3.1-1.4-3.1-3.1v-2.8c0-1.7,1.4-3.1,3.1-3.1h22.9c1.7,0,3.1,1.4,3.1,3.1v2.8
				C38.5,46.1,37.1,47.5,35.5,47.5z M12.5,40.5c-0.6,0-1.1,0.5-1.1,1.1v2.8c0,0.6,0.5,1.1,1.1,1.1h22.9c0.6,0,1.1-0.5,1.1-1.1v-2.8
				c0-0.6-0.5-1.1-1.1-1.1H12.5z"/>
		</g>
	</g>
	<g>
		<g>
			<rect x="13" y="11.7" fill="#010101" width="22" height="1.9"/>
		</g>
		<g>
			<rect x="13" y="16.3" fill="#010101" width="22" height="1.9"/>
		</g>
		<g>
			<rect x="13" y="20.8" fill="#010101" width="22" height="1.9"/>
		</g>
		<g>
			<rect x="13" y="25.3" fill="#010101" width="22" height="1.9"/>
		</g>
		<g>
			<rect x="13" y="29.8" fill="#010101" width="22" height="1.9"/>
		</g>
		<g>
			<rect x="13" y="34.3" fill="#010101" width="22" height="1.9"/>
		</g>
	</g>
</g>
</svg>
