<?xml version="1.0" encoding="utf-8"?>
<!-- Generator: Adobe Illustrator 18.1.1, SVG Export Plug-In . SVG Version: 6.00 Build 0)  -->
<svg version="1.1" id="Layer_1" xmlns="http://www.w3.org/2000/svg" xmlns:xlink="http://www.w3.org/1999/xlink" x="0px" y="0px"
	 viewBox="0 0 48 48" enable-background="new 0 0 48 48" xml:space="preserve">
<g>
	<g>
		<g>
			<path fill="#010101" d="M36.5,46.2h-25V27.9l-2.6,3.2l-8.3-7l11.2-13.5h4.4l0.1,0.8c0.3,1.7,3.3,3.5,7.8,3.5
				c4.4,0,7.5-1.8,7.8-3.5l0.1-0.8h4.4L47.5,24l-8.3,7l-2.7-3.2V46.2z M13.4,44.2h21.2V22.5l4.8,5.8l5.4-4.5l-9.4-11.3h-2
				c-1,2.6-4.8,4.3-9.4,4.3c-4.6,0-8.4-1.8-9.4-4.3h-2L3.2,23.8l5.4,4.5l4.8-5.8V44.2z"/>
		</g>
		<g>
			<rect x="12.5" y="40" fill="#010101" width="23.1" height="1.9"/>
		</g>
	</g>
	<g>
		<path fill="#010101" d="M16.2,14.3l-0.9-1.7l6.3-3.3c1.5-0.8,3.3-0.8,4.9,0l6,3.2l-0.9,1.7l-6-3.2c-1-0.5-2.1-0.5-3.1,0L16.2,14.3
			z"/>
	</g>
	<g>
		<path fill="#010101" d="M25,9.3H23V8.1c-1.3-0.4-2.2-1.6-2.2-3c0-1.8,1.4-3.2,3.2-3.2c1.8,0,3.2,1.4,3.2,3.2h-1.9
			c0-0.7-0.6-1.3-1.3-1.3c-0.7,0-1.3,0.6-1.3,1.3c0,0.7,0.6,1.3,1.3,1.3h1V9.3z"/>
	</g>
</g>
</svg>
