<?xml version="1.0" encoding="utf-8"?>
<!-- Generator: Adobe Illustrator 18.1.1, SVG Export Plug-In . SVG Version: 6.00 Build 0)  -->
<svg version="1.1" id="Layer_1" xmlns="http://www.w3.org/2000/svg" xmlns:xlink="http://www.w3.org/1999/xlink" x="0px" y="0px"
	 viewBox="0 0 48 48" enable-background="new 0 0 48 48" xml:space="preserve">
<g>
	<g>
		<path fill="#010101" d="M40,34.8H0.5l1-1.5C15.1,12.2,28.9,9.1,36,9.1c2.4,0,3.8,0.4,3.9,0.4l0.5,0.1l6,18.6L40,34.8z M4.1,32.8
			h35.1l5-5.2l-5.4-16.4C38.3,11.1,37.3,11,36,11C29.5,11,16.9,13.9,4.1,32.8z M34.9,29.2c-0.2,0-0.5,0-0.7-0.1l-6.7-1.8
			c-2-0.4-3.2-1.4-3.7-2.7c-0.7-2.1,1-4.3,1.2-4.6c0.8-1.1,4.2-4.6,4.5-5c1.3-1.2,2.5-1.9,3.7-1.9c2.6,0,4,2.8,4.4,4
			c0.1,0.2,0.1,0.4,0.2,0.7l0.9,5c0.4,1.9,0.1,3.5-0.7,4.6c-0.9,1.2-2.2,1.6-2.9,1.7C35.2,29.2,35.1,29.2,34.9,29.2z M33.3,15.1
			c-0.7,0-1.5,0.4-2.3,1.3c-1,1-3.8,3.9-4.4,4.8c-0.4,0.5-1.3,1.8-0.9,2.8c0.3,0.8,1.4,1.2,2.3,1.4l6.7,1.8c0.1,0,0.2,0,0.3,0
			c0.4-0.1,1.1-0.3,1.6-0.9c0.5-0.7,0.6-1.7,0.3-3.1l-0.9-5c0-0.1-0.1-0.2-0.1-0.3C35.8,17.4,34.8,15.1,33.3,15.1z"/>
	</g>
	<g>
		<path fill="#010101" d="M42.6,22.6l-3.3-9.7l2.5-1.2c0.4-0.2,0.8-0.3,1.3-0.3c1.3,0,2.3,0.7,2.7,1.8l1.6,4.6
			c0.4,1.2-0.2,2.6-1.4,3.1L42.6,22.6z M41.7,13.9l2,6l1.4-0.6c0.3-0.2,0.5-0.5,0.4-0.8L44,13.9c-0.1-0.4-0.8-0.7-1.3-0.4L41.7,13.9
			z"/>
	</g>
	<g>
		<rect x="0.8" y="37" fill="#010101" width="38.6" height="1.9"/>
	</g>
</g>
</svg>
