<?xml version="1.0" encoding="utf-8"?>
<!-- Generator: Adobe Illustrator 18.1.1, SVG Export Plug-In . SVG Version: 6.00 Build 0)  -->
<svg version="1.1" id="Layer_1" xmlns="http://www.w3.org/2000/svg" xmlns:xlink="http://www.w3.org/1999/xlink" x="0px" y="0px"
	 viewBox="0 0 48 48" enable-background="new 0 0 48 48" xml:space="preserve">
<g>
	<g>
		<path fill="#010101" d="M37.4,47.5L0.5,10.6l4.3-4.3c3.8-3.8,8.7-5.8,14.1-5.8s10.3,2.1,14.1,5.8l8.8,8.8c7.8,7.8,7.8,20.4,0,28.1
			L37.4,47.5z M3.2,10.6l34.2,34.2l2.9-2.9c7-7,7-18.4,0-25.4l-8.8-8.8c-3.4-3.4-7.9-5.3-12.7-5.3S9.5,4.3,6.1,7.7L3.2,10.6z"/>
	</g>
	<g>
		<path fill="#010101" d="M9.7,46.4c-2.2,0-4.2-0.8-5.8-2.4c-3.2-3.2-3.2-8.3,0-11.5L14.5,22l11.5,11.5L15.5,44
			C13.9,45.6,11.9,46.4,9.7,46.4z M14.5,24.6l-9.2,9.2c-2.4,2.4-2.4,6.4,0,8.8c1.2,1.2,2.7,1.8,4.4,1.8s3.2-0.6,4.4-1.8l9.2-9.2
			L14.5,24.6z"/>
	</g>
</g>
</svg>
