<?xml version="1.0" encoding="utf-8"?>
<!-- Generator: Adobe Illustrator 18.1.1, SVG Export Plug-In . SVG Version: 6.00 Build 0)  -->
<svg version="1.1" id="Layer_1" xmlns="http://www.w3.org/2000/svg" xmlns:xlink="http://www.w3.org/1999/xlink" x="0px" y="0px"
	 viewBox="0 0 48 48" enable-background="new 0 0 48 48" xml:space="preserve">
<g>
	<path fill="#010101" d="M15.6,47.5c-4.4,0-8.2-1.4-10.9-4.2c-7.3-7.3-4.6-22,6-32.7C17.1,4.3,25.2,0.5,32.4,0.5
		c4.4,0,8.2,1.4,10.9,4.2c7.3,7.3,4.6,22-6,32.7C30.9,43.7,22.8,47.5,15.6,47.5z M32.4,2.4C25.7,2.4,18.1,6,12,12
		C2.1,22-0.6,35.4,6,42c2.4,2.4,5.7,3.6,9.6,3.6c6.7,0,14.3-3.6,20.4-9.6C45.9,26,48.6,12.6,42,6C39.6,3.7,36.3,2.4,32.4,2.4z"/>
</g>
<g>
	<g>
		<path fill="#010101" d="M29.3,24.3c-1.5,0-2.9-0.6-3.9-1.6c-2.2-2.2-2.2-5.7,0-7.9c1.1-1.1,2.5-1.6,3.9-1.6s2.9,0.6,3.9,1.6
			c2.2,2.2,2.2,5.7,0,7.9C32.1,23.7,30.7,24.3,29.3,24.3z M29.3,15.2c-1,0-1.9,0.4-2.5,1c-1.4,1.4-1.4,3.7,0,5.1
			c1.3,1.3,3.7,1.3,5.1,0c1.4-1.4,1.4-3.7,0-5.1C31.1,15.5,30.2,15.2,29.3,15.2z"/>
	</g>
	<g>
		<path fill="#010101" d="M18.7,34.8c-1.5,0-2.9-0.6-3.9-1.6c-2.2-2.2-2.2-5.7,0-7.9c1.1-1.1,2.5-1.6,3.9-1.6c1.5,0,2.9,0.6,3.9,1.6
			c2.2,2.2,2.2,5.7,0,7.9C21.6,34.2,20.2,34.8,18.7,34.8z M18.7,25.7c-1,0-1.9,0.4-2.5,1c-1.4,1.4-1.4,3.7,0,5.1
			c1.3,1.3,3.7,1.3,5.1,0c1.4-1.4,1.4-3.7,0-5.1C20.6,26.1,19.7,25.7,18.7,25.7z"/>
	</g>
</g>
</svg>
