<?xml version="1.0" encoding="utf-8"?>
<!-- Generator: Adobe Illustrator 18.1.1, SVG Export Plug-In . SVG Version: 6.00 Build 0)  -->
<svg version="1.1" id="Layer_1" xmlns="http://www.w3.org/2000/svg" xmlns:xlink="http://www.w3.org/1999/xlink" x="0px" y="0px"
	 viewBox="0 0 48 48" enable-background="new 0 0 48 48" xml:space="preserve">
<g>
	<g>
		<path fill="#010101" d="M40.5,47.2H7.9v-7.7h32.6V47.2z M9.9,45.3h28.7v-3.9H9.9V45.3z"/>
	</g>
	<g>
		<path fill="#010101" d="M35.9,41.4H12.5v-1c0-4.6,3.7-8.3,8.3-8.3h6.8c4.6,0,8.3,3.7,8.3,8.3V41.4z M14.5,39.5h19.4
			c-0.5-3.1-3.1-5.4-6.3-5.4h-6.8C17.7,34.1,15,36.4,14.5,39.5z"/>
	</g>
	<g>
		<g>
			<g>
				<path fill="#010101" d="M27.4,33.3c-0.1,0-0.2,0-0.3,0c-0.5-0.2-0.8-0.6-0.7-1.1l5.9-27.4c0.4-2.3,2.1-4,4.1-4
					c0.3,0,0.7,0.1,1,0.2c0.9,0.3,1.7,1,2.1,2C40,4.1,39.9,5.7,39.3,7l-11,25.7C28.1,33.1,27.7,33.3,27.4,33.3z M36.4,2.7
					c-0.9,0-2,0.9-2.2,2.4l-3.8,17.7l7.1-16.6C38,5.4,38,4.4,37.7,3.7c-0.1-0.3-0.4-0.7-0.9-0.9C36.7,2.7,36.5,2.7,36.4,2.7z"/>
			</g>
		</g>
		<g>
			
				<rect x="36.1" y="14.1" transform="matrix(0.8741 0.4858 -0.4858 0.8741 16.9626 -14.8184)" fill="#010101" width="1.9" height="22.4"/>
		</g>
		<g>
			<path fill="#010101" d="M43.6,17.4c-0.7,0-1.3-0.2-1.9-0.5c-1.9-1-2.5-3.4-1.5-5.3c0.7-1.2,2-2,3.4-2c0.7,0,1.3,0.2,1.9,0.5
				c1.9,1,2.5,3.4,1.5,5.3C46.3,16.6,45,17.4,43.6,17.4z M43.6,11.6c-0.7,0-1.4,0.4-1.7,1c-0.5,0.9-0.2,2.1,0.8,2.6
				c0.9,0.5,2.1,0.1,2.6-0.7c0.5-0.9,0.2-2.1-0.7-2.6C44.3,11.6,44,11.6,43.6,11.6z"/>
		</g>
	</g>
	<g>
		<g>
			<g>
				<path fill="#010101" d="M20.6,33.3c-0.4,0-0.7-0.2-0.9-0.6L8.7,7C8.1,5.7,8,4.1,8.5,2.9c0.4-1,1.2-1.7,2.1-2
					c0.3-0.1,0.6-0.2,1-0.2c2,0,3.7,1.7,4.1,4L21.5,32c0.1,0.1,0.1,0.2,0.1,0.4C21.6,32.9,21.2,33.3,20.6,33.3L20.6,33.3
					C20.6,33.3,20.6,33.3,20.6,33.3z M11.6,2.7c-0.1,0-0.3,0-0.4,0.1c-0.5,0.2-0.8,0.6-0.9,0.9C10,4.4,10,5.4,10.5,6.2l7.2,16.7
					L13.8,5.2C13.6,3.6,12.5,2.7,11.6,2.7z"/>
			</g>
		</g>
		<g>
			
				<rect x="-0.3" y="24.3" transform="matrix(0.4859 0.874 -0.874 0.4859 27.7424 3.4477)" fill="#010101" width="22.4" height="1.9"/>
		</g>
		<g>
			<path fill="#010101" d="M4.4,17.4L4.4,17.4c-1.4,0-2.7-0.8-3.4-2c-0.5-0.9-0.6-1.9-0.3-2.9c0.3-1,0.9-1.8,1.8-2.3
				c0.6-0.3,1.2-0.5,1.9-0.5c1.4,0,2.7,0.8,3.4,2c1,1.9,0.4,4.2-1.5,5.3C5.7,17.2,5,17.4,4.4,17.4z M4.4,11.6
				c-0.3,0-0.6,0.1-0.9,0.2C3,12.1,2.7,12.5,2.5,13c-0.1,0.5-0.1,1,0.2,1.5c0.5,0.9,1.7,1.3,2.6,0.7c0.9-0.5,1.3-1.7,0.8-2.6
				C5.7,11.9,5.1,11.6,4.4,11.6z"/>
		</g>
	</g>
	<g>
		<g>
			<path fill="#010101" d="M24.2,21.8c-0.6,0-1.3-0.2-1.8-0.5c-0.9-0.5-1.5-1.3-1.8-2.3c-0.3-1-0.2-2,0.3-2.9
				c0.7-1.2,1.9-1.9,3.3-1.9c0.6,0,1.3,0.2,1.8,0.5c0.9,0.5,1.5,1.3,1.8,2.3c0.3,1,0.2,2-0.3,2.9C26.9,21,25.6,21.8,24.2,21.8z
				 M24.2,16.1c-0.7,0-1.3,0.4-1.6,1c-0.2,0.4-0.3,0.9-0.2,1.4c0.1,0.5,0.4,0.9,0.9,1.1c0.9,0.5,2,0.1,2.5-0.7
				c0.2-0.4,0.3-0.9,0.2-1.4c-0.1-0.5-0.4-0.9-0.9-1.1C24.9,16.2,24.6,16.1,24.2,16.1z"/>
		</g>
		<g>
			<rect x="23.3" y="20.8" fill="#010101" width="1.9" height="12.3"/>
		</g>
	</g>
</g>
</svg>
