<?xml version="1.0" encoding="utf-8"?>
<!-- Generator: Adobe Illustrator 18.1.1, SVG Export Plug-In . SVG Version: 6.00 Build 0)  -->
<svg version="1.1" id="Layer_1" xmlns="http://www.w3.org/2000/svg" xmlns:xlink="http://www.w3.org/1999/xlink" x="0px" y="0px"
	 viewBox="0 0 48 48" enable-background="new 0 0 48 48" xml:space="preserve">
<g>
	<g>
		<path fill="#010101" d="M47.5,46.8h-47V32.5h47V46.8z M2.4,44.9h43.2V34.5H2.4V44.9z"/>
	</g>
	<g>
		<path fill="#010101" d="M38.2,34.5H26.5l0.9-1.5c1.3-2.1,2-6,2.2-11.2c0-0.7-0.2-1.4-0.7-1.9c-0.5-0.5-1.1-0.8-1.8-0.8H16.6
			c-2.5,0-4.5,2-4.5,4.5c0,2.3-1.9,4.2-4.2,4.2H5.3V7.6h32.9V34.5z M29.8,32.5h6.5v-23h-29V26h0.7c1.3,0,2.3-1,2.3-2.3
			c0-3.5,2.9-6.4,6.4-6.4H27c1.2,0,2.3,0.5,3.2,1.3c0.9,0.9,1.3,2,1.3,3.3C31.4,26.5,30.8,30.1,29.8,32.5z"/>
	</g>
	<g>
		<rect x="6.7" y="26.9" fill="#010101" width="1.9" height="4.5"/>
	</g>
	<g>
		<path fill="#010101" d="M42.7,21.8h-6.5v-7.2h6.5V21.8z M38.2,19.9h2.6v-3.4h-2.6V19.9z"/>
	</g>
	<g>
		<rect x="40.8" y="8.9" fill="#010101" width="1.9" height="18.6"/>
	</g>
	<g>
		
			<rect x="3.1" y="14.8" transform="matrix(0.6563 0.7545 -0.7545 0.6563 13.6031 1.646)" fill="#010101" width="3.8" height="1.9"/>
	</g>
	<g>
		<g>
			<rect x="29.5" y="1.2" fill="#010101" width="1.9" height="7.4"/>
		</g>
		<g>
			<rect x="12" y="1.2" fill="#010101" width="1.9" height="7.4"/>
		</g>
	</g>
</g>
</svg>
