<?xml version="1.0" encoding="utf-8"?>
<!-- Generator: Adobe Illustrator 18.1.1, SVG Export Plug-In . SVG Version: 6.00 Build 0)  -->
<svg version="1.1" id="Layer_1" xmlns="http://www.w3.org/2000/svg" xmlns:xlink="http://www.w3.org/1999/xlink" x="0px" y="0px"
	 viewBox="0 0 48 48" enable-background="new 0 0 48 48" xml:space="preserve">
<g>
	<g>
		<g>
			
				<rect x="17.7" y="23.8" transform="matrix(0.4969 0.8678 -0.8678 0.4969 37.8726 -15.7348)" fill="#010101" width="29.6" height="1.9"/>
		</g>
		<g>
			<path fill="#010101" d="M41.5,45.6L41.5,45.6c-1.8,0-3.5-1-4.4-2.5c-0.7-1.2-0.8-2.5-0.5-3.8c0.4-1.3,1.2-2.4,2.4-3.1
				c0.8-0.4,1.6-0.7,2.5-0.7c1.8,0,3.5,1,4.4,2.5c0.7,1.2,0.8,2.5,0.5,3.8c-0.4,1.3-1.2,2.4-2.4,3.1C43.3,45.3,42.4,45.6,41.5,45.6z
				 M41.5,37.4c-0.5,0-1.1,0.1-1.6,0.4c-0.7,0.4-1.3,1.1-1.5,1.9c-0.2,0.8-0.1,1.7,0.3,2.4c0.6,1,1.6,1.6,2.7,1.6
				c0.5,0,1.1-0.1,1.6-0.4c0.7-0.4,1.3-1.1,1.5-1.9c0.2-0.8,0.1-1.7-0.3-2.4C43.7,38,42.6,37.4,41.5,37.4z"/>
		</g>
	</g>
	<g>
		<g>
			
				<rect x="31.5" y="8.2" transform="matrix(0.8677 0.4971 -0.4971 0.8677 15.7341 -13.1154)" fill="#010101" width="1.9" height="29.6"/>
		</g>
		<g>
			<path fill="#010101" d="M41.5,12.3c-0.9,0-1.7-0.2-2.5-0.7c-1.2-0.7-2-1.8-2.4-3.1c-0.4-1.3-0.2-2.7,0.5-3.8
				c0.9-1.6,2.6-2.5,4.4-2.5c0.9,0,1.7,0.2,2.5,0.7c2.4,1.4,3.3,4.5,1.9,6.9C45,11.4,43.3,12.3,41.5,12.3z M41.5,4.1
				c-1.1,0-2.2,0.6-2.7,1.6c-0.4,0.7-0.5,1.6-0.3,2.4c0.2,0.8,0.7,1.5,1.5,1.9c0.5,0.3,1,0.4,1.6,0.4c1.1,0,2.2-0.6,2.7-1.6
				c0.9-1.5,0.3-3.4-1.2-4.3C42.6,4.3,42.1,4.1,41.5,4.1z"/>
		</g>
	</g>
	<g>
		<g>
			<path fill="#010101" d="M19.8,31.3H4V16.3h15.8V31.3z M5.9,29.4h12V18.2h-12V29.4z"/>
		</g>
		<g>
			<g>
				<path fill="#010101" d="M4.5,18.4c-2-2-3.1-4.6-3.1-7.4c0-5.8,4.7-10.5,10.5-10.5S22.4,5.2,22.4,11c0,2.8-1.1,5.4-3,7.4L18,17
					c1.6-1.6,2.5-3.8,2.5-6c0-4.7-3.8-8.5-8.5-8.5c-4.7,0-8.5,3.8-8.5,8.5c0,2.3,0.9,4.4,2.5,6L4.5,18.4z"/>
			</g>
			<g>
				<path fill="#010101" d="M21.2,11.9C8.5,9.6,7.1,2.8,7,2.5l1.9-0.4L8,2.3l0.9-0.2c0,0.1,1.4,5.9,12.7,7.9L21.2,11.9z"/>
			</g>
			<g>
				<path fill="#010101" d="M20.7,16.1C7.5,16,3.3,6.4,3.1,6l1.8-0.7c0.2,0.4,3.9,8.8,15.8,8.9L20.7,16.1z"/>
			</g>
		</g>
		<g>
			<g>
				<path fill="#010101" d="M11.9,47.5C6.1,47.5,1.4,42.8,1.4,37c0-2.8,1.1-5.4,3.1-7.4L5.8,31c-1.6,1.6-2.5,3.8-2.5,6
					c0,4.7,3.8,8.5,8.5,8.5c4.7,0,8.5-3.8,8.5-8.5c0-2.3-0.9-4.4-2.5-6l1.4-1.4c2,2,3,4.6,3,7.4C22.4,42.8,17.7,47.5,11.9,47.5z"/>
			</g>
			<g>
				<path fill="#010101" d="M8.9,45.9L7,45.5c0.1-0.3,1.5-7.1,14.2-9.4l0.3,1.9C10.3,40,8.9,45.8,8.9,45.9z"/>
			</g>
			<g>
				<path fill="#010101" d="M4.9,42.7L3.1,42c0.2-0.4,4.4-9.9,17.6-10.1l0,1.9C8.8,33.9,5,42.4,4.9,42.7z"/>
			</g>
		</g>
	</g>
</g>
</svg>
