<?xml version="1.0" encoding="utf-8"?>
<!-- Generator: Adobe Illustrator 18.1.1, SVG Export Plug-In . SVG Version: 6.00 Build 0)  -->
<svg version="1.1" id="Layer_1" xmlns="http://www.w3.org/2000/svg" xmlns:xlink="http://www.w3.org/1999/xlink" x="0px" y="0px"
	 viewBox="0 0 48 48" enable-background="new 0 0 48 48" xml:space="preserve">
<g>
	<g>
		<path fill="#010101" d="M47.5,46.8H5.1V33.3h42.4V46.8z M7.1,44.9h38.5v-9.7H7.1V44.9z"/>
	</g>
	<g>
		<path fill="#010101" d="M25.5,35.2H5.1V5.4h38.4v22h-9v-8.9H21.6L25.5,35.2z M7.1,33.3h16.1l-3.9-16.8h17.3v8.9h5.1V7.3H7.1V33.3z
			"/>
	</g>
	<g>
		<rect x="36.4" y="2.1" fill="#010101" width="1.9" height="3.7"/>
	</g>
	<g>
		<rect x="35.3" y="1.2" fill="#010101" width="4.1" height="1.9"/>
	</g>
	<g>
		<path fill="#010101" d="M14,30.5c-2.5,0-4.6-2.1-4.6-4.6s2.1-4.6,4.6-4.6c2.5,0,4.6,2.1,4.6,4.6S16.5,30.5,14,30.5z M14,23.3
			c-1.5,0-2.7,1.2-2.7,2.7c0,1.5,1.2,2.7,2.7,2.7c1.5,0,2.7-1.2,2.7-2.7C16.7,24.5,15.5,23.3,14,23.3z"/>
	</g>
	<g>
		<rect x="17.1" y="39.1" fill="#010101" width="18.4" height="1.9"/>
	</g>
	<g>
		<path fill="#010101" d="M7.1,24.1H3.2c-1.5,0-2.7-1.2-2.7-2.7v-5.3c0-1.5,1.2-2.7,2.7-2.7h3.8V24.1z M3.2,15.3
			c-0.4,0-0.8,0.4-0.8,0.8v5.3c0,0.4,0.4,0.8,0.8,0.8h1.9v-6.9H3.2z"/>
	</g>
</g>
</svg>
