<?xml version="1.0" encoding="utf-8"?>
<!-- Generator: Adobe Illustrator 18.1.1, SVG Export Plug-In . SVG Version: 6.00 Build 0)  -->
<svg version="1.1" id="Layer_1" xmlns="http://www.w3.org/2000/svg" xmlns:xlink="http://www.w3.org/1999/xlink" x="0px" y="0px"
	 viewBox="0 0 48 48" enable-background="new 0 0 48 48" xml:space="preserve">
<g>
	<g>
		<path fill="#010101" d="M10.5,47.5c-3.2,0-6.3-1.4-8.5-3.9l-0.2-0.3V5.2h1.9v37.4c1.8,1.9,4.2,3,6.8,3c2.6,0,5-1.1,6.8-3V5.2h1.9
			v38.1l-0.2,0.3C16.8,46.1,13.7,47.5,10.5,47.5z"/>
	</g>
	<g>
		<path fill="#010101" d="M10.5,9.7c-5,0-8.7-2-8.7-4.6s3.7-4.6,8.7-4.6c5,0,8.7,2,8.7,4.6S15.4,9.7,10.5,9.7z M10.5,2.4
			C6.2,2.4,3.7,4,3.7,5.1s2.6,2.7,6.8,2.7c4.2,0,6.8-1.6,6.8-2.7S14.7,2.4,10.5,2.4z"/>
	</g>
	<g>
		<path fill="#010101" d="M46.3,43.4h-29V5.7h29V43.4z M19.2,41.5h25.2V7.6H19.2V41.5z"/>
	</g>
	<g>
		<g>
			<rect x="25.4" y="12" fill="#010101" width="2.2" height="1.9"/>
		</g>
		<g>
			<rect x="30.6" y="19.1" fill="#010101" width="2.2" height="1.9"/>
		</g>
		<g>
			<rect x="35.9" y="12" fill="#010101" width="2.2" height="1.9"/>
		</g>
		<g>
			<rect x="25.4" y="28.1" fill="#010101" width="2.2" height="1.9"/>
		</g>
		<g>
			<rect x="30.6" y="35.2" fill="#010101" width="2.2" height="1.9"/>
		</g>
		<g>
			<rect x="35.9" y="28.1" fill="#010101" width="2.2" height="1.9"/>
		</g>
	</g>
</g>
</svg>
