<?xml version="1.0" encoding="utf-8"?>
<!-- Generator: Adobe Illustrator 18.1.1, SVG Export Plug-In . SVG Version: 6.00 Build 0)  -->
<svg version="1.1" id="Layer_1" xmlns="http://www.w3.org/2000/svg" xmlns:xlink="http://www.w3.org/1999/xlink" x="0px" y="0px"
	 viewBox="0 0 48 48" enable-background="new 0 0 48 48" xml:space="preserve">
<g>
	<g>
		<g>
			<path fill="#010101" d="M25.2,9.2H7.4V0.5h17.8V9.2z M9.3,7.3h14V2.4h-14V7.3z"/>
		</g>
		<g>
			<path fill="#010101" d="M25.2,47.5H7.4v-8.7h17.8V47.5z M9.3,45.6h14v-4.9h-14V45.6z"/>
		</g>
	</g>
	<g>
		<rect x="1.4" y="11.1" fill="#010101" width="29.8" height="1.9"/>
	</g>
	<g>
		<rect x="1.4" y="15.9" fill="#010101" width="29.8" height="1.9"/>
	</g>
	<g>
		<rect x="1.4" y="20.7" fill="#010101" width="29.8" height="1.9"/>
	</g>
	<g>
		<rect x="1.4" y="25.4" fill="#010101" width="29.8" height="1.9"/>
	</g>
	<g>
		<rect x="1.4" y="30.2" fill="#010101" width="29.8" height="1.9"/>
	</g>
	<g>
		<rect x="1.4" y="35" fill="#010101" width="29.8" height="1.9"/>
	</g>
	<g>
		<path fill="#010101" d="M46,32.8c-2.2,0-5.7-0.4-7.7-2.3c-0.7-0.7-1.1-1.5-1.4-2.3c-0.7-1.8-1.2-3.6-1.3-5.4c0-0.2,0-0.5,0-0.7
			c-0.1-1.5-0.1-2.7-1.1-3.6c-0.3-0.3-0.7-0.5-1.1-0.6c-0.3-0.1-0.7-0.1-1.1-0.1l-4.7,0l0-1l0-1l4.7,0c0.5,0,1,0,1.5,0.1
			c0.7,0.2,1.4,0.5,2,1.1c1.6,1.5,1.6,3.3,1.7,5c0,0.2,0,0.4,0,0.7c0.1,1.6,0.5,3.2,1.1,4.8c0.2,0.6,0.5,1.2,1,1.6
			c1.2,1.2,3.8,1.8,6.9,1.8l0,1.9C46.4,32.8,46.2,32.8,46,32.8z"/>
	</g>
</g>
</svg>
