<?xml version="1.0" encoding="utf-8"?>
<!-- Generator: Adobe Illustrator 18.1.1, SVG Export Plug-In . SVG Version: 6.00 Build 0)  -->
<svg version="1.1" id="Layer_1" xmlns="http://www.w3.org/2000/svg" xmlns:xlink="http://www.w3.org/1999/xlink" x="0px" y="0px"
	 viewBox="0 0 48 48" enable-background="new 0 0 48 48" xml:space="preserve">
<g>
	<g>
		<path fill="#010101" d="M43.3,47.5c-0.2,0-0.4-0.1-0.6-0.2L6.8,17.8c-1.8-1.3-3-3.4-3.1-5.5c-0.1-1.6,0.4-3,1.4-4
			C6,7.4,7.3,6.9,8.7,6.9c2.2,0,4.5,1.2,5.9,3.2l29.5,35.9c0.3,0.4,0.3,0.9-0.1,1.3C43.8,47.4,43.6,47.5,43.3,47.5z M8.7,8.8
			C8,8.8,7.2,9,6.5,9.7c-0.6,0.6-0.9,1.5-0.8,2.5c0.1,1.5,1,3.1,2.4,4.1l28.3,23.3L13.1,11.2C12,9.7,10.3,8.8,8.7,8.8z"/>
	</g>
	<g>
		<rect x="7.4" y="13" transform="matrix(0.7071 0.7071 -0.7071 0.7071 13.0529 -3.535)" fill="#010101" width="6.7" height="1.9"/>
	</g>
	<g>
		<path fill="#010101" d="M9.2,32.7l-1.6-1c1.2-1.9,2.5-4,2.6-6.2c0.1-1.5-0.4-2.9-0.9-4.4c-0.1-0.5-0.3-0.9-0.4-1.4
			c-0.9-2.9-0.7-5.1,0.3-6.9l1.6,1c-0.8,1.2-0.8,3-0.1,5.3c0.1,0.4,0.3,0.9,0.4,1.3c0.5,1.6,1.1,3.3,1,5.1
			C12,28.3,10.5,30.8,9.2,32.7z"/>
	</g>
	<g>
		<path fill="#010101" d="M13.1,8.8l-1.9-0.1c0-0.8,0.2-1.5,0.5-2.3c0.7-1.8,2.1-3.1,3.4-4.3c0.6-0.6,1.4-1.3,2.4-1.7l0.6,1.8
			c-0.6,0.2-1.2,0.7-1.7,1.2c-1.1,1-2.4,2.2-2.9,3.6C13.2,7.7,13.1,8.3,13.1,8.8z"/>
	</g>
</g>
</svg>
