<?xml version="1.0" encoding="utf-8"?>
<!-- Generator: Adobe Illustrator 18.1.1, SVG Export Plug-In . SVG Version: 6.00 Build 0)  -->
<svg version="1.1" id="Layer_1" xmlns="http://www.w3.org/2000/svg" xmlns:xlink="http://www.w3.org/1999/xlink" x="0px" y="0px"
	 viewBox="0 0 48 48" enable-background="new 0 0 48 48" xml:space="preserve">
<g>
	<g>
		<path fill="#010101" d="M42.2,46H0.5V33h41.7V46z M2.4,44.1h37.9v-9.2H2.4V44.1z"/>
	</g>
	<g>
		<path fill="#010101" d="M39.3,34.9H26.6V13.6H15v6.5c0,1.6-1.3,3-3,3H5.3c-1.6,0-3-1.3-3-3V2h36.9V34.9z M28.5,33h8.8V3.9H4.3
			v16.2c0,0.6,0.5,1,1,1h6.8c0.6,0,1-0.5,1-1v-8.4h15.4V33z"/>
	</g>
	<g>
		<path fill="#010101" d="M47.5,23.3h-6.4V7.4h6.4V23.3z M43,21.4h2.6V9.3H43V21.4z"/>
	</g>
	<g>
		<rect x="7.6" y="22.3" fill="#010101" width="1.9" height="9"/>
	</g>
	<g>
		<path fill="#010101" d="M33,29.3c-1.8,0-3.2-1.5-3.2-3.2c0-1.8,1.5-3.2,3.2-3.2c1.8,0,3.2,1.5,3.2,3.2
			C36.2,27.9,34.7,29.3,33,29.3z M33,24.7c-0.7,0-1.3,0.6-1.3,1.3s0.6,1.3,1.3,1.3c0.7,0,1.3-0.6,1.3-1.3S33.7,24.7,33,24.7z"/>
	</g>
</g>
</svg>
