<?xml version="1.0" encoding="utf-8"?>
<!-- Generator: Adobe Illustrator 18.1.1, SVG Export Plug-In . SVG Version: 6.00 Build 0)  -->
<svg version="1.1" id="Layer_1" xmlns="http://www.w3.org/2000/svg" xmlns:xlink="http://www.w3.org/1999/xlink" x="0px" y="0px"
	 viewBox="0 0 48 48" enable-background="new 0 0 48 48" xml:space="preserve">
<g>
	<g>
		<path fill="#010101" d="M33.3,36H14.7l-0.3-0.3c-1.6-1.6-0.1-8.9,0.5-10.4c0.5-1.3,0.8-2.7,0.8-4.1l0-0.5c0-2.2-0.6-4.4-1.7-6.1
			c-2.6-4.2-2-6.9-2-7.1l0.1-0.7l0.7-0.1c5.1-0.7,6.6-5.4,6.6-5.6l0.2-0.7l8.6,0l0.2,0.7c0.1,0.2,1.5,4.9,6.6,5.6l0.7,0.1L36,7.5
			c0,0.1,0.6,2.9-2,7.1c-1.1,1.8-1.7,3.9-1.7,6.1l0,0.5c0,1.4,0.3,2.7,0.8,4.1c0.6,1.5,2.1,8.8,0.5,10.4L33.3,36z M15.8,34h16.5
			c0.3-1.4-0.3-5.9-1-8.1c-0.6-1.6-0.9-3.2-0.9-4.8l0-0.5c0-2.6,0.7-5.1,2-7.2c1.5-2.4,1.8-4.1,1.8-5c-4.6-1-6.6-4.6-7.2-6.1h-5.7
			c-0.6,1.6-2.6,5.2-7.2,6.1c0,0.9,0.3,2.6,1.8,5c1.3,2.1,2,4.6,2,7.2l0,0.5c0,1.6-0.3,3.2-0.9,4.8C16,28.1,15.5,32.6,15.8,34z"/>
	</g>
	<g>
		<rect x="23" y="35" fill="#010101" width="2" height="10.4"/>
	</g>
	<g>
		<g>
			
				<rect x="18.6" y="38.9" transform="matrix(0.5041 0.8636 -0.8636 0.5041 47.7246 4.9696)" fill="#010101" width="2" height="10.3"/>
		</g>
		<g>
			
				<rect x="23.3" y="43.1" transform="matrix(0.8635 0.5044 -0.5044 0.8635 26.1034 -8.3444)" fill="#010101" width="10.3" height="2"/>
		</g>
	</g>
</g>
</svg>
