<?xml version="1.0" encoding="utf-8"?>
<!-- Generator: Adobe Illustrator 18.1.1, SVG Export Plug-In . SVG Version: 6.00 Build 0)  -->
<svg version="1.1" id="Layer_1" xmlns="http://www.w3.org/2000/svg" xmlns:xlink="http://www.w3.org/1999/xlink" x="0px" y="0px"
	 viewBox="0 0 48 48" enable-background="new 0 0 48 48" xml:space="preserve">
<g>
	<g>
		<path fill="#010101" d="M46.5,47.5H25.2l-1.6-11.8l-1.4,11.8H1.5l-1-47h47L46.5,47.5z M26.9,45.6h17.7l1-43.2H2.5l1,43.2h17
			l1.9-16c0.1-0.6,0.6-1,1.1-1c0.6,0,1.1,0.4,1.1,1L26.9,45.6z"/>
	</g>
	<g>
		<rect x="1.6" y="7" fill="#010101" width="44.8" height="1.9"/>
	</g>
	<g>
		<path fill="#010101" d="M23.4,31.6h-1V7H30v18C30,28.6,27,31.6,23.4,31.6z M24.4,8.9v20.6c2.1-0.4,3.7-2.3,3.7-4.5V8.9H24.4z"/>
	</g>
	<g>
		<path fill="#010101" d="M45.2,20.4c-3.1,0-5.7-0.9-7.6-2.8C33.8,14,34,8.2,34,7.9L35.9,8c0,0.1-0.1,5.3,3.1,8.3
			c1.8,1.7,4.3,2.4,7.5,2.2l0.2,1.9C46.2,20.4,45.7,20.4,45.2,20.4z"/>
	</g>
	<g>
		<path fill="#010101" d="M2.8,20.4c-0.5,0-0.9,0-1.4-0.1l0.2-1.9c3.2,0.3,5.7-0.5,7.5-2.2c3.2-3,3.1-8.3,3.1-8.3l1.9-0.1
			c0,0.2,0.2,6.1-3.7,9.8C8.5,19.5,5.9,20.4,2.8,20.4z"/>
	</g>
</g>
</svg>
