<?xml version="1.0" encoding="utf-8"?>
<!-- Generator: Adobe Illustrator 18.1.1, SVG Export Plug-In . SVG Version: 6.00 Build 0)  -->
<svg version="1.1" id="Layer_1" xmlns="http://www.w3.org/2000/svg" xmlns:xlink="http://www.w3.org/1999/xlink" x="0px" y="0px"
	 viewBox="0 0 48 48" enable-background="new 0 0 48 48" xml:space="preserve">
<g>
	<g>
		<g>
			<path fill="#010101" d="M47.5,38.8H0.6l3.8-16.4H36l0.2,0.1c0.4,0.3,10.6,6.5,11.2,15.2L47.5,38.8z M3,36.8h42.3
				c-1.1-6.5-8.5-11.5-9.9-12.4H5.9L3,36.8z"/>
		</g>
		<g>
			<polygon fill="#010101" points="5.7,25 3.8,24.7 7.7,4.2 29.5,4.2 29.5,6.2 9.3,6.2 			"/>
		</g>
		<g>
			<path fill="#010101" d="M27.8,24.3H16v-4.9c0-2.2,1.8-3.9,3.9-3.9h4c2.2,0,3.9,1.8,3.9,3.9V24.3z M18,22.4h7.9v-2.9
				c0-1.1-0.9-1.9-1.9-1.9h-4c-1.1,0-1.9,0.9-1.9,1.9V22.4z"/>
		</g>
	</g>
	<g>
		<rect x="0.5" y="41.8" fill="#010101" width="46.8" height="2"/>
	</g>
</g>
</svg>
