<?xml version="1.0" encoding="utf-8"?>
<!-- Generator: Adobe Illustrator 18.1.1, SVG Export Plug-In . SVG Version: 6.00 Build 0)  -->
<svg version="1.1" id="Layer_1" xmlns="http://www.w3.org/2000/svg" xmlns:xlink="http://www.w3.org/1999/xlink" x="0px" y="0px"
	 viewBox="0 0 48 48" enable-background="new 0 0 48 48" xml:space="preserve">
<g>
	<g>
		<path fill="#010101" d="M36.4,47.5H27l-3.2-23.4L21,47.5h-9.5l-1-47h26.9L36.4,47.5z M28.7,45.6h5.9l0.9-43.2h-23l0.9,43.2h5.9
			l3.3-28.4c0.1-0.5,0.5-0.9,1.1-0.9c0.5,0,1,0.4,1.1,0.9L28.7,45.6z"/>
	</g>
	<g>
		<rect x="11.6" y="4.1" fill="#010101" width="24.8" height="1.9"/>
	</g>
	<g>
		<path fill="#010101" d="M23.7,18.8h-1V4.2h5v10.6C27.7,17,25.9,18.8,23.7,18.8z M24.6,6.1v10.6c0.7-0.4,1.2-1.1,1.2-1.9V6.1H24.6z
			"/>
	</g>
	<g>
		<path fill="#010101" d="M35.8,12.5c-1.8,0-3.3-0.5-4.5-1.6c-2.3-2.2-2.2-5.7-2.2-5.8L31,5.1l-1,0l1,0c0,0-0.1,2.8,1.6,4.4
			c0.9,0.8,2.2,1.2,3.8,1.1l0.2,1.9C36.3,12.5,36,12.5,35.8,12.5z"/>
	</g>
	<g>
		<path fill="#010101" d="M12.3,12.5c-0.3,0-0.5,0-0.8,0l0.2-1.9c1.6,0.1,2.9-0.2,3.8-1.1C17.1,7.9,17,5.2,17,5.1l1.9-0.1
			c0,0.1,0.1,3.7-2.2,5.8C15.6,12,14.1,12.5,12.3,12.5z"/>
	</g>
</g>
</svg>
