<?xml version="1.0" encoding="utf-8"?>
<!-- Generator: Adobe Illustrator 18.1.1, SVG Export Plug-In . SVG Version: 6.00 Build 0)  -->
<svg version="1.1" id="Layer_1" xmlns="http://www.w3.org/2000/svg" xmlns:xlink="http://www.w3.org/1999/xlink" x="0px" y="0px"
	 viewBox="0 0 48 48" enable-background="new 0 0 48 48" xml:space="preserve">
<g>
	<g>
		<path fill="#010101" d="M29.2,43.4H18.9c-1.8,0-3.3-1.5-3.3-3.3V7.9c0-1.8,1.5-3.3,3.3-3.3h10.3c1.8,0,3.3,1.5,3.3,3.3v32.3
			C32.4,41.9,31,43.4,29.2,43.4z M18.9,6.5c-0.7,0-1.4,0.6-1.4,1.4v32.3c0,0.7,0.6,1.4,1.4,1.4h10.3c0.7,0,1.4-0.6,1.4-1.4V7.9
			c0-0.7-0.6-1.4-1.4-1.4H18.9z"/>
	</g>
	<g>
		<g>
			<path fill="#010101" d="M29,6.5h-9.8v-6H29V6.5z M21,4.6h6V2.4h-6V4.6z"/>
		</g>
		<g>
			<path fill="#010101" d="M29,47.5h-9.8v-6H29V47.5z M21,45.6h6v-2.2h-6V45.6z"/>
		</g>
	</g>
	<g>
		<polygon fill="#010101" points="31.1,40 15.4,32.4 29.5,16.3 16.2,9.6 17,7.8 32.6,15.7 18.5,31.7 31.9,38.3 		"/>
	</g>
</g>
</svg>
