<?xml version="1.0" encoding="utf-8"?>
<!-- Generator: Adobe Illustrator 18.1.1, SVG Export Plug-In . SVG Version: 6.00 Build 0)  -->
<svg version="1.1" id="Layer_1" xmlns="http://www.w3.org/2000/svg" xmlns:xlink="http://www.w3.org/1999/xlink" x="0px" y="0px"
	 viewBox="0 0 48 48" enable-background="new 0 0 48 48" xml:space="preserve">
<g>
	<g>
		<path fill="#010101" d="M47.5,46.5h-47V30.8h28.8V17.4h-9.5c-1.1,0-2,0.9-2,2c0,2.6-2.1,4.7-4.7,4.7H8.7c-1.9,0-3.5-1.6-3.5-3.5
			V4.6c0-1.8,1.4-3.2,3.2-3.2h39.1V46.5z M2.4,44.6h43.2V3.4H8.4c-0.7,0-1.3,0.6-1.3,1.3v15.9c0,0.9,0.7,1.5,1.5,1.5h4.5
			c1.5,0,2.7-1.2,2.7-2.7c0-2.1,1.7-3.9,3.9-3.9h11.4v17.2H2.4V44.6z"/>
	</g>
	<g>
		<path fill="#010101" d="M38.4,27.5c-3,0-5.4-2.4-5.4-5.4s2.4-5.4,5.4-5.4c3,0,5.4,2.4,5.4,5.4S41.4,27.5,38.4,27.5z M38.4,18.6
			c-1.9,0-3.5,1.6-3.5,3.5s1.6,3.5,3.5,3.5c1.9,0,3.5-1.6,3.5-3.5S40.4,18.6,38.4,18.6z"/>
	</g>
	<g>
		<rect x="9.9" y="23.1" fill="#010101" width="1.9" height="5"/>
	</g>
</g>
</svg>
