<?xml version="1.0" encoding="utf-8"?>
<!-- Generator: Adobe Illustrator 18.1.1, SVG Export Plug-In . SVG Version: 6.00 Build 0)  -->
<svg version="1.1" id="Layer_1" xmlns="http://www.w3.org/2000/svg" xmlns:xlink="http://www.w3.org/1999/xlink" x="0px" y="0px"
	 viewBox="0 0 48 48" enable-background="new 0 0 48 48" xml:space="preserve">
<g>
	<g>
		<path fill="#010101" d="M24,47.5L0.5,24L24,0.5L47.5,24L24,47.5z M3.2,24L24,44.8L44.8,24L24,3.2L3.2,24z"/>
	</g>
	<g>
		<path fill="#010101" d="M16.8,28.6c-2.5,0-4.6-2-4.6-4.6s2-4.6,4.6-4.6c2.5,0,4.6,2,4.6,4.6S19.3,28.6,16.8,28.6z M16.8,21.3
			c-1.5,0-2.7,1.2-2.7,2.7c0,1.5,1.2,2.7,2.7,2.7c1.5,0,2.7-1.2,2.7-2.7C19.5,22.5,18.3,21.3,16.8,21.3z"/>
	</g>
	<g>
		<path fill="#010101" d="M31.2,28.6c-2.5,0-4.6-2-4.6-4.6s2-4.6,4.6-4.6s4.6,2,4.6,4.6S33.7,28.6,31.2,28.6z M31.2,21.3
			c-1.5,0-2.7,1.2-2.7,2.7c0,1.5,1.2,2.7,2.7,2.7c1.5,0,2.7-1.2,2.7-2.7C33.9,22.5,32.7,21.3,31.2,21.3z"/>
	</g>
</g>
</svg>
