<?xml version="1.0" encoding="utf-8"?>
<!-- Generator: Adobe Illustrator 18.1.1, SVG Export Plug-In . SVG Version: 6.00 Build 0)  -->
<svg version="1.1" id="Layer_1" xmlns="http://www.w3.org/2000/svg" xmlns:xlink="http://www.w3.org/1999/xlink" x="0px" y="0px"
	 viewBox="0 0 48 48" enable-background="new 0 0 48 48" xml:space="preserve">
<g>
	<g>
		<path fill="#010101" d="M24,47.5C11,47.5,0.5,37,0.5,24S11,0.5,24,0.5C37,0.5,47.5,11,47.5,24S37,47.5,24,47.5z M24,2.4
			C12.1,2.4,2.4,12.1,2.4,24S12.1,45.6,24,45.6c11.9,0,21.6-9.7,21.6-21.6S35.9,2.4,24,2.4z"/>
	</g>
	<g>
		<path fill="#010101" d="M24,40.8c-9.3,0-16.8-7.6-16.8-16.8S14.7,7.2,24,7.2S40.8,14.7,40.8,24S33.3,40.8,24,40.8z M24,9.1
			C15.8,9.1,9.1,15.8,9.1,24S15.8,38.9,24,38.9c8.2,0,14.9-6.7,14.9-14.9S32.2,9.1,24,9.1z"/>
	</g>
	<g>
		<g>
			<path fill="#010101" d="M19.5,23.4c-2.1,0-3.8-1.7-3.8-3.8c0-2.1,1.7-3.8,3.8-3.8c2.1,0,3.8,1.7,3.8,3.8
				C23.2,21.7,21.5,23.4,19.5,23.4z M19.5,17.8c-1,0-1.8,0.8-1.8,1.8s0.8,1.8,1.8,1.8s1.8-0.8,1.8-1.8S20.5,17.8,19.5,17.8z"/>
		</g>
		<g>
			<path fill="#010101" d="M28.6,23.4c-2.1,0-3.8-1.7-3.8-3.8c0-2.1,1.7-3.8,3.8-3.8c2.1,0,3.8,1.7,3.8,3.8
				C32.3,21.7,30.6,23.4,28.6,23.4z M28.6,17.8c-1,0-1.8,0.8-1.8,1.8s0.8,1.8,1.8,1.8s1.8-0.8,1.8-1.8S29.6,17.8,28.6,17.8z"/>
		</g>
	</g>
	<g>
		<g>
			<path fill="#010101" d="M19.5,32.2c-2.1,0-3.8-1.7-3.8-3.8c0-2.1,1.7-3.8,3.8-3.8c2.1,0,3.8,1.7,3.8,3.8
				C23.2,30.5,21.5,32.2,19.5,32.2z M19.5,26.5c-1,0-1.8,0.8-1.8,1.8s0.8,1.8,1.8,1.8s1.8-0.8,1.8-1.8S20.5,26.5,19.5,26.5z"/>
		</g>
		<g>
			<path fill="#010101" d="M28.6,32.2c-2.1,0-3.8-1.7-3.8-3.8c0-2.1,1.7-3.8,3.8-3.8c2.1,0,3.8,1.7,3.8,3.8
				C32.3,30.5,30.6,32.2,28.6,32.2z M28.6,26.5c-1,0-1.8,0.8-1.8,1.8s0.8,1.8,1.8,1.8s1.8-0.8,1.8-1.8S29.6,26.5,28.6,26.5z"/>
		</g>
	</g>
</g>
</svg>
