<?xml version="1.0" encoding="utf-8"?>
<!-- Generator: Adobe Illustrator 18.1.1, SVG Export Plug-In . SVG Version: 6.00 Build 0)  -->
<svg version="1.1" id="Layer_1" xmlns="http://www.w3.org/2000/svg" xmlns:xlink="http://www.w3.org/1999/xlink" x="0px" y="0px"
	 viewBox="0 0 48 48" enable-background="new 0 0 48 48" xml:space="preserve">
<g>
	<g>
		<path fill="#010101" d="M39.8,47.5H8.2v-31l3.2-1.4c2.8-1.2,5.2-3.2,6.7-5.8c0.9-1.4,1.4-2.9,1.6-4.4l0.6-4.4h19.5V47.5z
			 M10.1,45.6h27.8V2.4H22l-0.3,2.7c-0.2,1.8-0.9,3.5-1.9,5.2c-1.8,2.9-4.5,5.2-7.6,6.5l-2.1,0.9V45.6z"/>
	</g>
	<g>
		<path fill="#010101" d="M31.3,43.5h-2.9v-1.9h2.9V43.5z M24.6,43.5h-2.9v-1.9h2.9V43.5z M17.9,43.5H15v-1.9h2.9V43.5z M34.6,41.1
			h-1.9v-2.9h1.9V41.1z M15.3,39.4h-1.9v-2.9h1.9V39.4z M34.6,34.4h-1.9v-2.9h1.9V34.4z M15.3,32.6h-1.9v-2.9h1.9V32.6z M34.6,27.6
			h-1.9v-2.9h1.9V27.6z M15.3,25.9h-1.9V23h1.9V25.9z M34.6,20.9h-1.9V18h1.9V20.9z M15,20.2l-0.8-1.8c0.8-0.4,1.6-0.8,2.4-1.3
			l1,1.6C16.8,19.4,15.9,19.8,15,20.2z M20.9,16.4L19.6,15c0.7-0.6,1.3-1.3,1.9-2l1.5,1.2C22.3,15,21.6,15.7,20.9,16.4z M34.6,14.2
			h-1.9v-2.9h1.9V14.2z M24.5,12l-1.6-1c0.5-0.8,0.9-1.6,1.2-2.4l1.8,0.7C25.5,10.2,25.1,11.1,24.5,12z M34.6,7.5h-1.9V5.4h0.2v-1
			h1.8V7.5z M29,6.4h-2.9V4.5H29V6.4z"/>
	</g>
</g>
</svg>
