<?xml version="1.0" encoding="utf-8"?>
<!-- Generator: Adobe Illustrator 18.1.1, SVG Export Plug-In . SVG Version: 6.00 Build 0)  -->
<svg version="1.1" id="Layer_1" xmlns="http://www.w3.org/2000/svg" xmlns:xlink="http://www.w3.org/1999/xlink" x="0px" y="0px"
	 viewBox="0 0 48 48" enable-background="new 0 0 48 48" xml:space="preserve">
<g>
	<g>
		<path fill="#010101" d="M47.5,46.7h-47v-11c0-2.5,2.1-4.6,4.6-4.6h38.2c2.4,0,4.3,1.9,4.3,4.3V46.7z M2.4,44.8h43.2v-9.4
			c0-1.3-1.1-2.4-2.4-2.4H5.1c-1.5,0-2.7,1.2-2.7,2.7V44.8z"/>
	</g>
	<g>
		<rect x="7.1" y="22.5" fill="#010101" width="1.9" height="7.4"/>
	</g>
	<g>
		<path fill="#010101" d="M43.8,23.5h-3.2v-12h3.2c2,0,3.7,1.7,3.7,3.7v4.6C47.5,21.8,45.8,23.5,43.8,23.5z M42.5,21.6h1.3
			c1,0,1.8-0.8,1.8-1.8v-4.6c0-1-0.8-1.8-1.8-1.8h-1.3V21.6z"/>
	</g>
	<g>
		<path fill="#010101" d="M33.5,27.4c-2.7,0-4.9-2.2-4.9-4.9c0-2.7,2.2-4.9,4.9-4.9c2.7,0,4.9,2.2,4.9,4.9
			C38.4,25.2,36.2,27.4,33.5,27.4z M33.5,19.5c-1.6,0-3,1.3-3,3c0,1.6,1.3,3,3,3c1.6,0,3-1.3,3-3C36.4,20.9,35.1,19.5,33.5,19.5z"/>
	</g>
	<g>
		<path fill="#010101" d="M38,12.3h-9.1V5.3H38V12.3z M30.8,10.4h5.3V7.2h-5.3V10.4z"/>
	</g>
	<g>
		<path fill="#010101" d="M42.5,33.1H25V16.8h-5.9c-3.2,0-5.7,2.6-5.7,5.7v1H2.7V5.6c0-2.4,1.9-4.3,4.3-4.3h31.7
			c2.1,0,3.8,1.7,3.8,3.8V33.1z M27,31.2h13.6V5.1c0-1-0.8-1.9-1.9-1.9H7c-1.3,0-2.4,1.1-2.4,2.4v16h7c0.5-3.8,3.7-6.7,7.6-6.7H27
			V31.2z"/>
	</g>
</g>
</svg>
