<?xml version="1.0" encoding="utf-8"?>
<!-- Generator: Adobe Illustrator 18.1.1, SVG Export Plug-In . SVG Version: 6.00 Build 0)  -->
<svg version="1.1" id="Layer_1" xmlns="http://www.w3.org/2000/svg" xmlns:xlink="http://www.w3.org/1999/xlink" x="0px" y="0px"
	 viewBox="0 0 48 48" enable-background="new 0 0 48 48" xml:space="preserve">
<g>
	<g>
		<path fill="#010101" d="M32.4,36.5H15.6v-4.1c0-1.7,0.2-3.3,0.7-4.6c0.8-2.3,0.8-4.2,0.6-5.4c-0.1-0.6-0.3-1.1-0.6-1.6
			c-1.2-1.8-2.1-3.7-2.6-5.7c-0.6-2.4,0.3-4.9,2.1-5.8C19.5,7.1,20,1.4,20,1.4l0.1-0.9l7.8,0L28,1.4c0,0.1,0.5,5.8,4.1,7.7
			c1.8,1,2.7,3.5,2.1,5.8c-0.5,2-1.4,4-2.6,5.7c-0.3,0.5-0.5,1.1-0.6,1.6c-0.1,1.2-0.1,3.1,0.6,5.4c0.4,1.4,0.7,2.9,0.7,4.6V36.5z
			 M17.6,34.5h12.9v-2.2c0-1.5-0.2-2.9-0.6-4C29,25.6,29,23.4,29.1,22c0.1-0.9,0.4-1.7,0.9-2.5c1.1-1.6,1.9-3.3,2.3-5.1
			c0.4-1.5-0.2-3.1-1.2-3.7c-3.6-1.9-4.7-6.4-5-8.3h-4.4c-0.3,1.9-1.4,6.4-5,8.3c-1,0.5-1.5,2.2-1.2,3.7c0.4,1.8,1.2,3.5,2.3,5.1
			c0.5,0.8,0.8,1.6,0.9,2.5c0.1,1.4,0.1,3.6-0.7,6.2c-0.4,1.2-0.6,2.5-0.6,4V34.5z"/>
	</g>
	<g>
		<rect x="23" y="35.5" fill="#010101" width="1.9" height="7.4"/>
	</g>
	<g>
		
			<rect x="19.9" y="40.3" transform="matrix(0.6085 0.7936 -0.7936 0.6085 43.3252 0.8114)" fill="#010101" width="1.9" height="8"/>
	</g>
	<g>
		
			<rect x="23.2" y="43.3" transform="matrix(0.7935 0.6086 -0.6086 0.7935 32.5766 -7.3783)" fill="#010101" width="8" height="1.9"/>
	</g>
	<g>
		<rect x="23" y="40.8" fill="#010101" width="1.9" height="5.5"/>
	</g>
</g>
</svg>
