<?xml version="1.0" encoding="utf-8"?>
<!-- Generator: Adobe Illustrator 18.1.1, SVG Export Plug-In . SVG Version: 6.00 Build 0)  -->
<svg version="1.1" id="Layer_1" xmlns="http://www.w3.org/2000/svg" xmlns:xlink="http://www.w3.org/1999/xlink" x="0px" y="0px"
	 viewBox="0 0 48 48" enable-background="new 0 0 48 48" xml:space="preserve">
<g>
	<g>
		<path fill="#010101" d="M36.5,47.1h-25v-29l-2.7,3.2l-8.3-7L11.7,0.9h4.4l0.1,0.8c0.3,1.7,3.3,3.6,7.8,3.6s7.5-1.8,7.8-3.6
			l0.1-0.8h4.4l11.2,13.5l-8.3,7l-2.7-3.2V47.1z M13.4,45.2h21.2V12.9l4.8,5.8l5.4-4.6L35.4,2.8h-2c-1,2.6-4.8,4.4-9.4,4.4
			c-4.6,0-8.4-1.8-9.4-4.4h-2L3.2,14.1l5.4,4.6l4.8-5.8V45.2z"/>
	</g>
	<g>
		<rect x="12.4" y="41" fill="#010101" width="23.1" height="1.9"/>
	</g>
</g>
</svg>
