<?xml version="1.0" encoding="utf-8"?>
<!-- Generator: Adobe Illustrator 18.1.1, SVG Export Plug-In . SVG Version: 6.00 Build 0)  -->
<svg version="1.1" id="Layer_1" xmlns="http://www.w3.org/2000/svg" xmlns:xlink="http://www.w3.org/1999/xlink" x="0px" y="0px"
	 viewBox="0 0 48 48" enable-background="new 0 0 48 48" xml:space="preserve">
<g>
	<g>
		<path fill="#010101" d="M40.8,47.5L21.1,27.8l5.5-5.5L46.4,42L40.8,47.5z M23.8,27.8l17,17l2.8-2.8l-17-17L23.8,27.8z"/>
	</g>
	<g>
		<path fill="#010101" d="M21.1,30.5L16,25.4l8.3-8.3l5.1,5.1L21.1,30.5z M18.7,25.4l2.4,2.4l5.6-5.6l-2.4-2.4L18.7,25.4z"/>
	</g>
	<g>
		<polygon fill="#010101" points="20.1,22.6 14.8,17.3 14.8,14.5 9.2,8.9 10.5,7.5 16.7,13.7 16.7,16.5 21.5,21.3 		"/>
	</g>
	<g>
		<path fill="#010101" d="M6.8,10.8c-1.4,0-2.7-0.5-3.6-1.5c-2-2-2-5.3,0-7.3c1-1,2.3-1.5,3.6-1.5S9.5,1,10.4,2c2,2,2,5.3,0,7.3
			C9.5,10.3,8.2,10.8,6.8,10.8z M6.8,2.4c-0.9,0-1.7,0.3-2.3,1C3.2,4.6,3.2,6.7,4.5,8c1.2,1.2,3.4,1.2,4.6,0c1.3-1.3,1.3-3.3,0-4.6
			C8.5,2.7,7.7,2.4,6.8,2.4z"/>
	</g>
</g>
</svg>
