<?xml version="1.0" encoding="utf-8"?>
<!-- Generator: Adobe Illustrator 18.1.1, SVG Export Plug-In . SVG Version: 6.00 Build 0)  -->
<svg version="1.1" id="Layer_1" xmlns="http://www.w3.org/2000/svg" xmlns:xlink="http://www.w3.org/1999/xlink" x="0px" y="0px"
	 viewBox="0 0 48 48" enable-background="new 0 0 48 48" xml:space="preserve">
<g>
	<g>
		<path fill="#010101" d="M41.6,36.7H6.4l4-36.2h27.3L41.6,36.7z M8.6,34.7h30.8L35.9,2.5H12.1L8.6,34.7z"/>
	</g>
	<g>
		<path fill="#010101" d="M47.5,47.5h-47V34.7h47V47.5z M2.5,45.5h43.1v-8.9H2.5V45.5z"/>
	</g>
	<g>
		<path fill="#010101" d="M23.9,36.7H6.4l0.9-8.5l1.3,0.8c3.7,2.2,7.5,4.1,11.2,5.8L23.9,36.7z M8.6,34.7h6.5c-2-1-4.1-2.1-6.1-3.3
			L8.6,34.7z"/>
	</g>
	<g>
		<path fill="#010101" d="M39.4,16.4L38,16C26.9,12.6,17,7,10.6,3l-0.5-0.3l0.2-2.1h27.3L39.4,16.4z M13.5,2.5
			c5.9,3.7,14.3,8.2,23.6,11.2L35.9,2.5H13.5z"/>
	</g>
	<g>
		<path fill="#010101" d="M41.4,34.7l-1.3-0.3C27.7,32,16.2,26,8.6,21.4l-0.5-0.3L9.3,9.7l1.3,0.8c6.8,4.3,17.3,9.9,28.8,12.9
			l0.7,0.2L41.4,34.7z M10.2,20.1c7.1,4.3,17.7,9.7,29,12.2l-0.8-7.1C27.6,22.3,17.8,17.2,11,13L10.2,20.1z"/>
	</g>
</g>
</svg>
