<?xml version="1.0" encoding="utf-8"?>
<!-- Generator: Adobe Illustrator 18.1.1, SVG Export Plug-In . SVG Version: 6.00 Build 0)  -->
<svg version="1.1" id="Layer_1" xmlns="http://www.w3.org/2000/svg" xmlns:xlink="http://www.w3.org/1999/xlink" x="0px" y="0px"
	 viewBox="0 0 48 48" enable-background="new 0 0 48 48" xml:space="preserve">
<g>
	<g>
		<g>
			
				<rect x="40.3" y="-1.1" transform="matrix(0.7071 0.7071 -0.7071 0.7071 16.8504 -27.1713)" fill="#010101" width="1.9" height="15.8"/>
		</g>
		<g>
			
				<rect x="33.3" y="5.8" transform="matrix(0.7071 0.7071 -0.7071 0.7071 16.8511 -27.1718)" fill="#010101" width="15.8" height="1.9"/>
		</g>
	</g>
	<g>
		<g>
			
				<rect x="23" y="-1.1" transform="matrix(0.7071 0.7071 -0.7071 0.7071 11.8048 -14.9916)" fill="#010101" width="1.9" height="15.8"/>
		</g>
		<g>
			
				<rect x="16.1" y="5.8" transform="matrix(0.7071 0.7071 -0.7071 0.7071 11.806 -14.9923)" fill="#010101" width="15.8" height="1.9"/>
		</g>
	</g>
	<g>
		<g>
			
				<rect x="40.3" y="16.1" transform="matrix(0.7071 0.7071 -0.7071 0.7071 29.0463 -22.1207)" fill="#010101" width="1.9" height="15.8"/>
		</g>
		<g>
			
				<rect x="33.3" y="23" transform="matrix(0.7071 0.7071 -0.7071 0.7071 29.0457 -22.1205)" fill="#010101" width="15.8" height="1.9"/>
		</g>
	</g>
	<g>
		<g>
			
				<rect x="23" y="16.1" transform="matrix(0.7071 0.7071 -0.7071 0.7071 23.9999 -9.941)" fill="#010101" width="1.9" height="15.8"/>
		</g>
		<g>
			
				<rect x="16.1" y="23" transform="matrix(0.7071 0.7071 -0.7071 0.7071 24.0006 -9.941)" fill="#010101" width="15.8" height="1.9"/>
		</g>
	</g>
	<g>
		<g>
			
				<rect x="40.3" y="33.4" transform="matrix(0.7071 0.7071 -0.7071 0.7071 41.2413 -17.0691)" fill="#010101" width="1.9" height="15.8"/>
		</g>
		<g>
			
				<rect x="33.3" y="40.3" transform="matrix(0.7071 0.7071 -0.7071 0.7071 41.2393 -17.0691)" fill="#010101" width="15.8" height="1.9"/>
		</g>
	</g>
	<g>
		
			<rect x="23" y="33.4" transform="matrix(0.7071 0.7071 -0.7071 0.7071 36.1944 -4.8898)" fill="#010101" width="1.9" height="15.8"/>
	</g>
	<g>
		
			<rect x="16.1" y="40.3" transform="matrix(0.7071 0.7071 -0.7071 0.7071 36.1944 -4.8898)" fill="#010101" width="15.8" height="1.9"/>
	</g>
	<g>
		<g>
			
				<rect x="5.8" y="-1.1" transform="matrix(0.7071 0.7071 -0.7071 0.7071 6.7605 -2.8131)" fill="#010101" width="1.9" height="15.8"/>
		</g>
		<g>
			
				<rect x="-1.1" y="5.8" transform="matrix(0.7071 0.7071 -0.7071 0.7071 6.7611 -2.8131)" fill="#010101" width="15.8" height="1.9"/>
		</g>
	</g>
</g>
</svg>
