<?xml version="1.0" encoding="utf-8"?>
<!-- Generator: Adobe Illustrator 18.1.1, SVG Export Plug-In . SVG Version: 6.00 Build 0)  -->
<svg version="1.1" id="Layer_1" xmlns="http://www.w3.org/2000/svg" xmlns:xlink="http://www.w3.org/1999/xlink" x="0px" y="0px"
	 viewBox="0 0 48 48" enable-background="new 0 0 48 48" xml:space="preserve">
<g>
	<g>
		<path fill="#010101" d="M25,8.9H23V7.3c-1.5-0.4-2.5-1.8-2.5-3.4c0-1.9,1.6-3.5,3.5-3.5c1.9,0,3.5,1.6,3.5,3.5h-1.9
			c0-0.9-0.7-1.6-1.6-1.6c-0.9,0-1.6,0.7-1.6,1.6c0,0.9,0.7,1.6,1.6,1.6h1V8.9z"/>
	</g>
	<g>
		<path fill="#010101" d="M28.4,19.3h-8.7l-0.3-0.5c-1-2-1.7-4.6-1.9-7.2l0-0.6l3.8-2C23,8,25,8,26.7,8.9l3.8,2l0,0.6
			c-0.2,2.6-0.8,5.2-1.9,7.2L28.4,19.3z M20.8,17.3h6.4c0.7-1.5,1.2-3.4,1.3-5.3l-2.7-1.4c-1.1-0.6-2.5-0.6-3.6,0L19.5,12
			C19.7,13.9,20.1,15.8,20.8,17.3z"/>
	</g>
	<g>
		<path fill="#010101" d="M38.7,47.5H9.3V27l0.8-0.1c2.6-0.5,3.5-1.6,3.5-4.3V9.4h5.7l0,1c0,5.2,2.3,10.3,4.6,10.3s4.6-5.1,4.6-10.3
			l0-1h5.7v13.2c0,2.7,0.9,3.8,3.5,4.3l0.8,0.1V47.5z M11.3,45.6h25.5v-17c-2.9-0.8-4.3-2.7-4.3-6V11.3h-1.9
			c-0.3,5.6-2.9,11.2-6.5,11.2c-3.6,0-6.2-5.6-6.5-11.2h-1.9v11.3c0,3.3-1.4,5.2-4.3,6V45.6z"/>
	</g>
	<g>
		<path fill="#010101" d="M38.3,19.3h-5.8v-7.3l6.7,3.6c0.8,0.4,1.2,1.3,1,2.3C40,18.7,39.2,19.3,38.3,19.3z M34.4,17.3h3.9
			c0,0,0.1,0,0.1-0.1c0-0.1,0-0.1,0-0.1l-3.9-2.1V17.3z"/>
	</g>
	<g>
		<path fill="#010101" d="M15.5,19.3H9.7c-0.9,0-1.7-0.6-1.9-1.5c-0.2-0.9,0.2-1.8,1-2.3l6.7-3.6V19.3z M13.6,15.1l-3.9,2.1
			c0,0-0.1,0,0,0.1c0,0.1,0,0.1,0.1,0.1h3.9V15.1z"/>
	</g>
</g>
</svg>
