<?xml version="1.0" encoding="utf-8"?>
<!-- Generator: Adobe Illustrator 18.1.1, SVG Export Plug-In . SVG Version: 6.00 Build 0)  -->
<svg version="1.1" id="Layer_1" xmlns="http://www.w3.org/2000/svg" xmlns:xlink="http://www.w3.org/1999/xlink" x="0px" y="0px"
	 viewBox="0 0 48 48" enable-background="new 0 0 48 48" xml:space="preserve">
<g>
	<g>
		<path fill="#010101" d="M43.6,47H0.5V31.4h22.1V19c0-0.9-0.7-1.7-1.6-1.7c-2.7,0-6.4,2.3-6.4,4.6v0.9c0,1.5-1.2,2.7-2.6,2.7H6.2
			c-1.5,0-2.6-1.2-2.6-2.7V5.5h40.1L43.6,47L43.6,47z M2.4,45.1h39.3V7.4H5.5v15.4c0,0.4,0.3,0.8,0.7,0.8h5.7c0.4,0,0.7-0.3,0.7-0.8
			v-0.9c0-3.8,5-6.5,8.3-6.5c2,0,3.6,1.6,3.6,3.6v14.3H2.4V45.1z"/>
	</g>
	<g>
		<rect x="8.8" y="24.6" fill="#010101" width="1.9" height="6"/>
	</g>
	<g>
		<rect x="7.2" y="26.3" fill="#010101" width="1.9" height="1.9"/>
	</g>
	<g>
		<path fill="#010101" d="M44.5,23.1h-2.8v-9.7h2.8c1.7,0,3,1.3,3,2.9v3.8C47.5,21.8,46.2,23.1,44.5,23.1z M43.6,21.2h0.9
			c0.6,0,1.1-0.5,1.1-1v-3.8c0-0.6-0.5-1-1.1-1h-0.9V21.2z"/>
	</g>
	<g>
		<path fill="#010101" d="M44.5,36.3h-2.8v-9.7h2.8c1.7,0,3,1.3,3,2.9v3.8C47.5,35,46.2,36.3,44.5,36.3z M43.6,34.4h0.9
			c0.6,0,1.1-0.5,1.1-1v-3.8c0-0.6-0.5-1-1.1-1h-0.9V34.4z"/>
	</g>
	<g>
		<rect x="36.1" y="1" fill="#010101" width="1.9" height="5.5"/>
	</g>
	<g>
		<path fill="#010101" d="M37,42.7H7.1v-6.2H37V42.7z M9.1,40.8h26v-2.4h-26C9.1,38.4,9.1,40.8,9.1,40.8z"/>
	</g>
</g>
</svg>
