<?xml version="1.0" encoding="utf-8"?>
<!-- Generator: Adobe Illustrator 18.1.1, SVG Export Plug-In . SVG Version: 6.00 Build 0)  -->
<svg version="1.1" id="Layer_1" xmlns="http://www.w3.org/2000/svg" xmlns:xlink="http://www.w3.org/1999/xlink" x="0px" y="0px"
	 viewBox="0 0 48 48" enable-background="new 0 0 48 48" xml:space="preserve">
<g>
	<g>
		<path fill="#010101" d="M24.2,44.6c-9.8,0-17.8-8-17.8-17.8S14.4,9,24.2,9C34,9,42,17,42,26.8S34,44.6,24.2,44.6z M24.2,10.9
			c-8.8,0-15.9,7.1-15.9,15.9s7.1,15.9,15.9,15.9c8.8,0,15.9-7.1,15.9-15.9S32.9,10.9,24.2,10.9z"/>
	</g>
	<g>
		<path fill="#010101" d="M41.8,23.8l-1.3-0.1c-1.2-0.1-2.4-0.2-3.5-0.4L34.7,23l1.8-1.4c0.9-0.7,1.7-1.4,2.6-2.1l1-0.9l0.5,1.2
			c0.4,0.9,0.7,1.7,0.9,2.7L41.8,23.8z"/>
	</g>
	<g>
		<path fill="#010101" d="M39.5,31.8c-4.3,0-8.6-0.8-12.9-2.3l-2.2-0.8l2.2-1c3.4-1.5,6.7-3.6,9.9-6.1l0.3-0.3l0.4,0.1
			c1.1,0.2,2.2,0.3,3.3,0.4l0.7,0l0.2,0.7c0.3,1.4,0.5,2.8,0.5,4.3c0,1.1-0.1,2.2-0.3,3.4l-0.1,0.4l-0.3,0.2
			c-0.4,0.3-0.7,0.6-1.1,0.9L40,31.8L39.5,31.8z M29.6,28.4c3.2,0.9,6.5,1.4,9.8,1.5c0.2-0.1,0.4-0.3,0.5-0.4
			c0.1-0.9,0.2-1.8,0.2-2.7c0-1-0.1-2.1-0.3-3.1c-0.8-0.1-1.6-0.2-2.4-0.3C34.8,25.3,32.2,27,29.6,28.4z"/>
	</g>
	<g>
		<path fill="#010101" d="M27.4,38.6c-0.1,0-0.2,0-0.2,0c-4.4-1.1-8.8-3.1-13.1-5.8c-0.3-0.2-0.5-0.6-0.4-1c0.1-0.4,0.4-0.7,0.8-0.7
			c4-0.4,8-1.5,12-3.4c0.2-0.1,0.5-0.1,0.7,0c4.1,1.5,8.2,2.2,12.2,2.2c0.4,0,0.8,0.3,1,0.7c0.1,0.4,0,0.8-0.3,1.1
			c-4,3-8.2,5.4-12.4,7C27.7,38.6,27.6,38.6,27.4,38.6z M17.5,32.6c3.3,1.8,6.6,3.2,9.9,4.1c3.2-1.2,6.3-2.9,9.4-5
			c-3.3-0.3-6.5-0.9-9.7-2.1C23.9,31,20.7,32,17.5,32.6z"/>
	</g>
	<g>
		<path fill="#010101" d="M16.3,24.2L15.9,24c-2.3-1.6-4.6-3.3-6.7-5.3l-0.6-0.5L9,17.4c1.5-2.5,3.6-4.5,6.1-6l0.6-0.3l0.5,0.4
			c3.5,2.8,7.1,5.1,10.8,6.8l1.8,0.8L27.1,20c-3.4,1.9-7,3.2-10.5,4.1L16.3,24.2z M11.1,17.8c1.8,1.6,3.6,3,5.5,4.3
			c2.6-0.7,5.3-1.6,7.9-2.9c-3-1.5-6-3.5-8.9-5.7C13.8,14.6,12.3,16.1,11.1,17.8z"/>
	</g>
	<g>
		<path fill="#010101" d="M14.2,41.2C14.2,41.2,14.2,41.2,14.2,41.2l-0.2,0c-0.2,0-0.4-0.1-0.6-0.2c-2.9-2.2-5-5.2-6.1-8.6
			c-0.1-0.3,0-0.7,0.2-0.9c0.2-0.3,0.5-0.4,0.8-0.4c2.1,0.2,4.2,0.2,6.3-0.1c0.2,0,0.4,0,0.6,0.1c4.1,2.6,8.3,4.5,12.5,5.5
			c0.4,0.1,0.7,0.5,0.7,0.9c0,0.4-0.2,0.8-0.6,1C23.3,40.3,18.7,41.2,14.2,41.2z M9.6,33.1c1,2.4,2.6,4.5,4.7,6.1
			c3.3,0,6.6-0.5,9.9-1.5c-3.3-1.1-6.6-2.7-9.8-4.7C12.8,33.2,11.2,33.2,9.6,33.1z"/>
	</g>
	<g>
		<path fill="#010101" d="M24.2,44.6c-3.9,0-7.7-1.3-10.8-3.6c-0.3-0.3-0.5-0.7-0.3-1.1c0.1-0.4,0.5-0.7,0.9-0.7c0,0,0,0,0,0l0.2,0
			c4.3,0,8.6-0.8,12.9-2.5c0.2-0.1,0.4-0.1,0.6,0c2.8,0.7,5.5,1.1,8.3,1.1c0.4,0,0.7,0.2,0.9,0.6c0.1,0.4,0.1,0.8-0.2,1.1
			C33.3,42.8,28.9,44.6,24.2,44.6z M17.2,41c2.2,1.1,4.5,1.6,7,1.6c3.4,0,6.6-1,9.3-3c-2-0.2-4-0.5-6-1C24.1,40,20.6,40.7,17.2,41z"
			/>
	</g>
	<g>
		<path fill="#010101" d="M26.7,20.3l-0.4-0.2c-3.8-1.8-7.6-4.1-11.2-7L14,12.1l1.2-0.7C17.9,9.8,21,9,24.2,9c4.1,0,8.1,1.4,11.3,4
			l0.9,0.8l-0.9,0.8c-2.7,2.1-5.5,4-8.3,5.5L26.7,20.3z M17.4,12.4c3,2.3,6.1,4.2,9.2,5.7c2.2-1.2,4.5-2.7,6.6-4.3
			c-2.6-1.8-5.8-2.8-9-2.8C21.9,10.9,19.5,11.4,17.4,12.4z"/>
	</g>
	<g>
		<path fill="#010101" d="M36.4,39.8l-0.4,0c-2.9,0-5.8-0.4-8.8-1.2l-3-0.8l2.9-1.1C31.2,35.2,35.2,33,39,30l0.3-0.2l0.3,0
			c0.3,0,0.6,0,0.9,0l1.3,0L41.5,31c-0.8,3.2-2.5,6.2-4.9,8.5L36.4,39.8z M30.7,37.4c1.6,0.3,3.3,0.4,4.9,0.5
			c1.5-1.5,2.7-3.4,3.4-5.4C36.3,34.4,33.5,36.1,30.7,37.4z"/>
	</g>
	<g>
		<path fill="#010101" d="M8,25.1l-1.6,0L6.6,24C7,21.7,7.8,19.5,9,17.4l0.6-1l0.9,0.8c2.1,1.9,4.3,3.6,6.5,5.1l1.8,1.2l-2.1,0.5
			C13.8,24.8,10.9,25.1,8,25.1z M10.1,19.5c-0.6,1.2-1.1,2.4-1.4,3.7c1.8,0,3.6-0.2,5.3-0.5C12.7,21.7,11.4,20.6,10.1,19.5z"/>
	</g>
	<g>
		<g>
			
				<rect x="35.1" y="8" transform="matrix(0.6953 0.7187 -0.7187 0.6953 18.9917 -22.5134)" fill="#010101" width="1.9" height="6.3"/>
		</g>
		<g>
			
				<rect x="5.1" y="35.2" transform="matrix(0.6953 0.7187 -0.7187 0.6953 30.6827 7.8515)" fill="#010101" width="1.9" height="9.8"/>
		</g>
		<g>
			<path fill="#010101" d="M41,11.5c-1.4,0-2.7-0.6-3.7-1.6c-1-1-1.5-2.3-1.4-3.6c0-1.4,0.6-2.6,1.6-3.6c1-0.9,2.2-1.4,3.6-1.4
				c1.4,0,2.7,0.6,3.7,1.6c2,2,1.9,5.3-0.1,7.2C43.6,11,42.3,11.5,41,11.5z M41,3.2c-0.8,0-1.6,0.3-2.2,0.9c-0.6,0.6-1,1.4-1,2.2
				c0,0.8,0.3,1.7,0.9,2.3c1.2,1.2,3.3,1.3,4.5,0.1c1.3-1.2,1.3-3.2,0.1-4.5C42.7,3.5,41.9,3.2,41,3.2z"/>
		</g>
	</g>
	<g>
		<g>
			
				<rect x="9.7" y="9.6" transform="matrix(0.6889 0.7248 -0.7248 0.6889 11.6994 -6.0352)" fill="#010101" width="6.3" height="1.9"/>
		</g>
		<g>
			
				<rect x="36.7" y="39.9" transform="matrix(0.6889 0.7248 -0.7248 0.6889 42.5307 -17.451)" fill="#010101" width="9.8" height="1.9"/>
		</g>
		<g>
			<path fill="#010101" d="M8.1,10.8L8.1,10.8c-1.4,0-2.7-0.6-3.7-1.6C3.5,8.2,3,6.9,3,5.5c0-1.4,0.6-2.6,1.6-3.6
				c1-0.9,2.2-1.4,3.5-1.4c1.4,0,2.8,0.6,3.7,1.6c0.9,1,1.4,2.3,1.4,3.7c0,1.4-0.6,2.6-1.6,3.6C10.7,10.3,9.5,10.8,8.1,10.8z
				 M8.1,2.4c-0.8,0-1.6,0.3-2.2,0.9C5.3,3.9,5,4.7,5,5.5c0,0.8,0.3,1.7,0.9,2.3c0.6,0.6,1.4,1,2.3,1l0,0c0.8,0,1.6-0.3,2.2-0.9
				c0.6-0.6,1-1.4,1-2.2c0-0.8-0.3-1.7-0.9-2.3C9.8,2.8,9,2.4,8.1,2.4z"/>
		</g>
	</g>
	<g>
		<path fill="none" stroke="#010101" stroke-width="2" stroke-miterlimit="10" d="M41.1,47.5"/>
	</g>
</g>
</svg>
