<?xml version="1.0" encoding="utf-8"?>
<!-- Generator: Adobe Illustrator 18.1.1, SVG Export Plug-In . SVG Version: 6.00 Build 0)  -->
<svg version="1.1" id="Layer_1" xmlns="http://www.w3.org/2000/svg" xmlns:xlink="http://www.w3.org/1999/xlink" x="0px" y="0px"
	 viewBox="0 0 48 48" enable-background="new 0 0 48 48" xml:space="preserve">
<g>
	<g>
		<path fill="#010101" d="M18,19.4l-4.1-4.1c-0.9,0.6-2,1-3.1,1c-1.5,0-2.8-0.6-3.8-1.6C4.9,12.6,4.9,9.1,7,7c1-1,2.4-1.6,3.8-1.6
			c1.5,0,2.8,0.6,3.8,1.6l-1.4,1.4c-1.3-1.3-3.6-1.3-4.9,0C7,9.7,7,12,8.4,13.3c1.3,1.3,3.6,1.3,4.9,0l0.7-0.7l5.4,5.4L18,19.4z"/>
	</g>
	<g>
		<path fill="#010101" d="M2.4,47.5l-1.9-0.5c0.1-0.3,10.1-33.7,46.4-46.4l0.6,1.8C12.2,14.7,2.5,47.1,2.4,47.5z"/>
	</g>
	<g>
		
			<rect x="5.2" y="39.4" transform="matrix(0.7071 0.7071 -0.7071 0.7071 31.4531 4.7197)" fill="#010101" width="9.7" height="1.9"/>
	</g>
	<g>
		
			<rect x="35.5" y="9.1" transform="matrix(0.7071 0.7071 -0.7071 0.7071 18.9107 -25.561)" fill="#010101" width="9.7" height="1.9"/>
	</g>
</g>
</svg>
