<?xml version="1.0" encoding="utf-8"?>
<!-- Generator: Adobe Illustrator 18.1.1, SVG Export Plug-In . SVG Version: 6.00 Build 0)  -->
<svg version="1.1" id="Layer_1" xmlns="http://www.w3.org/2000/svg" xmlns:xlink="http://www.w3.org/1999/xlink" x="0px" y="0px"
	 viewBox="0 0 48 48" enable-background="new 0 0 48 48" xml:space="preserve">
<g>
	<g>
		<path fill="#010101" d="M42.7,46.3H0.5v-9.7h42.2V46.3z M2.4,44.4h38.4v-5.9H2.4V44.4z"/>
	</g>
	<g>
		<path fill="#010101" d="M44.6,21.9h-3.8V11.4h3.8c1.6,0,2.9,1.3,2.9,2.9V19C47.5,20.6,46.2,21.9,44.6,21.9z M42.7,20h1.9
			c0.5,0,1-0.4,1-1v-4.7c0-0.5-0.4-1-1-1h-1.9V20z"/>
	</g>
	<g>
		<path fill="#010101" d="M42.7,34.7H24.9V20.8h-9.8v7.3l-5.4,2.5l-5.4-2.5v-22h38.4V34.7z M26.8,32.8h14V8H6.3v18.9l3.4,1.6
			l3.4-1.6v-8h13.6V32.8z"/>
	</g>
	<g>
		<rect x="8.7" y="29.5" fill="#010101" width="1.9" height="5.6"/>
	</g>
	<g>
		<rect x="11.4" y="2.7" fill="#010101" width="1.9" height="4.4"/>
	</g>
	<g>
		<rect x="9.6" y="1.7" fill="#010101" width="5.6" height="1.9"/>
	</g>
	<g>
		<rect x="10.9" y="12.6" fill="#010101" width="25.2" height="1.9"/>
	</g>
</g>
</svg>
