<?xml version="1.0" encoding="utf-8"?>
<!-- Generator: Adobe Illustrator 18.1.1, SVG Export Plug-In . SVG Version: 6.00 Build 0)  -->
<svg version="1.1" id="Layer_1" xmlns="http://www.w3.org/2000/svg" xmlns:xlink="http://www.w3.org/1999/xlink" x="0px" y="0px"
	 viewBox="0 0 48 48" enable-background="new 0 0 48 48" xml:space="preserve">
<g>
	<g>
		<path fill="#010101" d="M14.4,20.7C14.4,20.7,14.4,20.7,14.4,20.7c-2.8,0-6-1.5-8.5-4.1C2.8,13.6,1.3,8,1,4.9c0-0.4,0.2-0.8,0.6-1
			c0.4-0.1,0.9,0,1.1,0.3c0.3,0.4,0.7,1.2,1.3,2c0.7,1.1,1.4,2.3,1.9,2.9c2.2,3,5.3,4.3,7.3,4.3c0.7,0,1.3-0.2,1.6-0.5
			c1-1,0.3-4-2.5-7.4c-0.3-0.4-0.3-0.9,0-1.2c0.3-0.4,0.8-0.4,1.2-0.2c0.9,0.6,1.8,1.3,2.6,2.1c2,2,3.3,4.3,3.8,6.7
			c0.5,2.5,0,4.6-1.4,6.1C17.5,20.1,16.1,20.7,14.4,20.7z M4.2,10.1c0.7,1.9,1.7,3.8,3,5.1c2.2,2.2,4.9,3.5,7.2,3.5c0,0,0,0,0,0
			c1.2,0,2.1-0.4,2.8-1c1-1,1.3-2.5,0.9-4.3c-0.2-0.9-0.6-1.9-1.1-2.8c0.3,1.6,0,2.9-0.8,3.8c-0.7,0.7-1.7,1-3,1
			c-2.5,0-6.2-1.6-8.8-5.1C4.3,10.3,4.3,10.2,4.2,10.1z"/>
	</g>
	<g>
		
			<rect x="16.4" y="21" transform="matrix(0.7071 0.7071 -0.7071 0.7071 21.8526 -8.7508)" fill="#010101" width="10.2" height="1.9"/>
	</g>
	<g>
		<path fill="#010101" d="M43,47.5c-1.1,0-2.1-0.4-2.8-1.2L21.6,27.7l5.6-5.6l18.6,18.6c1.5,1.5,1.5,4.1,0,5.6
			C45.1,47.1,44.1,47.5,43,47.5z M24.3,27.7L41.6,45c0.8,0.8,2.1,0.8,2.9,0c0.8-0.8,0.8-2.1,0-2.9L27.2,24.8L24.3,27.7z"/>
	</g>
	<g>
		<path fill="#010101" d="M11.2,6.8c-0.8,0-1.6-0.3-2.2-0.9C7.7,4.6,7.7,2.6,9,1.4c1.2-1.2,3.3-1.2,4.5,0c0.6,0.6,0.9,1.4,0.9,2.2
			c0,0.8-0.3,1.6-0.9,2.2C12.9,6.5,12.1,6.8,11.2,6.8z M11.2,2.4c-0.3,0-0.6,0.1-0.9,0.4c-0.5,0.5-0.5,1.3,0,1.8
			c0.5,0.5,1.3,0.5,1.8,0c0.2-0.2,0.4-0.6,0.4-0.9c0-0.3-0.1-0.6-0.4-0.9C11.9,2.5,11.6,2.4,11.2,2.4z"/>
	</g>
</g>
</svg>
