<?xml version="1.0" encoding="utf-8"?>
<!-- Generator: Adobe Illustrator 18.1.1, SVG Export Plug-In . SVG Version: 6.00 Build 0)  -->
<svg version="1.1" id="Layer_1" xmlns="http://www.w3.org/2000/svg" xmlns:xlink="http://www.w3.org/1999/xlink" x="0px" y="0px"
	 viewBox="0 0 48 48" enable-background="new 0 0 48 48" xml:space="preserve">
<g>
	<g>
		<path fill="#7B4F68" d="M47.5,47h-47V36.5h47V47z M2.5,45.1h43.1v-6.6H2.5V45.1z"/>
	</g>
	<g>
		<path fill="#7B4F68" d="M43.1,38.4H27V23.1c0-3.2-2.8-5.9-6.2-5.9h-2.6c-5.1,1-5.3,6.1-5,10.9c0,0.6,0.1,1.1,0.1,1.6v1H4.9v-24
			h8.3l0.2,0.1c2.4,1.5,6,2.4,9.9,2.4s7.5-0.9,9.9-2.4l0.2-0.1h9.6V38.4z M28.9,36.5h12.2V8.6h-7.1c-2.7,1.6-6.6,2.5-10.7,2.5
			c-4.1,0-8-0.9-10.7-2.5H6.9v20.1h4.4c0-0.2,0-0.3,0-0.5c-0.2-3.8-0.7-11.6,6.7-12.9l0.2,0h2.7c4.5,0,8.1,3.5,8.1,7.8V36.5z"/>
	</g>
	<g>
		<g>
			<rect x="36.4" y="1" fill="#7B4F68" width="2" height="6.6"/>
		</g>
		<g>
			<rect x="9.6" y="1" fill="#7B4F68" width="2" height="6.6"/>
		</g>
	</g>
	<g>
		<rect x="7.9" y="28.6" fill="#7B4F68" width="2" height="6.8"/>
	</g>
	<g>
		<rect x="1.5" y="12.1" fill="#7B4F68" width="4.9" height="2"/>
	</g>
</g>
</svg>
