<?xml version="1.0" encoding="utf-8"?>
<!-- Generator: Adobe Illustrator 18.1.1, SVG Export Plug-In . SVG Version: 6.00 Build 0)  -->
<svg version="1.1" id="Layer_1" xmlns="http://www.w3.org/2000/svg" xmlns:xlink="http://www.w3.org/1999/xlink" x="0px" y="0px"
	 viewBox="0 0 48 48" enable-background="new 0 0 48 48" xml:space="preserve">
<g>
	<g>
		<path fill="#010101" d="M9.8,47.5c-2.2,0-4.3-0.9-5.9-2.5c-3.3-3.3-3.3-8.6,0-11.9c1.6-1.6,3.7-2.5,5.9-2.5s4.3,0.9,5.9,2.5
			c3.3,3.3,3.3,8.6,0,11.9C14.1,46.6,12,47.5,9.8,47.5z M9.8,32.7c-1.7,0-3.3,0.7-4.6,1.9c-2.5,2.5-2.5,6.6,0,9.1
			c1.2,1.2,2.8,1.9,4.6,1.9s3.3-0.7,4.6-1.9c2.5-2.5,2.5-6.6,0-9.1C13.1,33.3,11.5,32.7,9.8,32.7z"/>
	</g>
	<g>
		<path fill="#010101" d="M40,20.3c-0.2,0-0.5-0.1-0.7-0.3l-3.3-3.3c-0.3-0.3-0.4-0.8-0.2-1.2l0.2-0.3c0.5-0.9,1.4-1.5,2.5-1.9
			c0.5-0.2,0.9-0.5,1.2-0.9c0.5-0.8,0.5-1.9,0-2.7c-0.5-0.7-1.2-1-2-1c-0.6,0-1.2,0.2-1.7,0.7c-0.2,0.2-0.4,0.5-0.5,0.8
			c-0.5,1.2-1.2,2.1-2.1,2.6l-0.1,0.1c-0.4,0.2-0.9,0.2-1.2-0.2l-3.3-3.3c-0.4-0.4-0.4-1,0-1.4l3.6-3.6C34,3.1,35.9,2.2,38,2.2
			c2.1,0,4.1,0.8,5.6,2.3l0.7,0.7c1.5,1.5,2.3,3.5,2.3,5.6c0,2.1-0.8,4.1-2.3,5.6L40.7,20C40.5,20.2,40.3,20.3,40,20.3z M38,15.9
			l2,2l2.9-2.9c1.1-1.1,1.7-2.6,1.7-4.2c0-1.6-0.6-3.1-1.7-4.2l-0.7-0.7c-1.1-1.1-2.6-1.7-4.2-1.7c-1.6,0-3.1,0.6-4.2,1.7l-2.9,2.9
			l2,2c0.3-0.3,0.6-0.8,0.8-1.3c0.2-0.5,0.5-1,1-1.4c0.8-0.8,1.9-1.3,3-1.3c1.4,0,2.7,0.7,3.5,1.9c1,1.4,1,3.4,0,4.9
			c-0.5,0.8-1.2,1.3-2.1,1.6C38.8,15.3,38.4,15.5,38,15.9z"/>
	</g>
	<g>
		<path fill="#010101" d="M15.4,44.9c-0.2,0-0.5-0.1-0.7-0.3c-0.4-0.4-0.4-1,0-1.4l26.7-26.7c0.4-0.4,1-0.4,1.4,0
			c0.4,0.4,0.4,1,0,1.4L16.1,44.6C15.9,44.8,15.7,44.9,15.4,44.9z"/>
	</g>
	<g>
		
			<rect x="14.5" y="-2.1" transform="matrix(0.8391 0.544 -0.544 0.8391 11.861 -5.6345)" fill="#010101" width="1.9" height="38.6"/>
	</g>
</g>
</svg>
