<?xml version="1.0" encoding="utf-8"?>
<!-- Generator: Adobe Illustrator 18.1.1, SVG Export Plug-In . SVG Version: 6.00 Build 0)  -->
<svg version="1.1" id="Layer_1" xmlns="http://www.w3.org/2000/svg" xmlns:xlink="http://www.w3.org/1999/xlink" x="0px" y="0px"
	 viewBox="0 0 48 48" enable-background="new 0 0 48 48" xml:space="preserve">
<g>
	<g>
		<path fill="#010101" d="M47,46H0.5V35.3c0-2,1.6-3.6,3.6-3.6h39.2c2,0,3.6,1.6,3.6,3.6V46z M2.4,44.1H45v-8.7
			c0-0.9-0.8-1.7-1.7-1.7H4.1c-0.9,0-1.7,0.8-1.7,1.7V44.1z"/>
	</g>
	<g>
		<path fill="#010101" d="M42.8,33.6H31.2V16.9H6.3V2h36.5V33.6z M33.1,31.7h7.7V3.9H8.2V15h24.9V31.7z"/>
	</g>
	<g>
		<path fill="#010101" d="M15.1,25H8.7V15h6.4V25z M10.6,23.1h2.6v-6.2h-2.6V23.1z"/>
	</g>
	<g>
		<rect x="11" y="24.1" fill="#010101" width="1.9" height="6"/>
	</g>
	<g>
		<path fill="#010101" d="M21.3,13.3c-1.9,0-3.4-1.5-3.4-3.4s1.5-3.4,3.4-3.4c1.9,0,3.4,1.5,3.4,3.4S23.2,13.3,21.3,13.3z M21.3,8.4
			c-0.8,0-1.5,0.7-1.5,1.5c0,0.8,0.7,1.5,1.5,1.5s1.5-0.7,1.5-1.5C22.8,9.1,22.1,8.4,21.3,8.4z"/>
	</g>
	<g>
		<path fill="#010101" d="M30,13.3c-1.9,0-3.4-1.5-3.4-3.4s1.5-3.4,3.4-3.4c1.9,0,3.4,1.5,3.4,3.4S31.8,13.3,30,13.3z M30,8.4
			c-0.8,0-1.5,0.7-1.5,1.5c0,0.8,0.7,1.5,1.5,1.5s1.5-0.7,1.5-1.5C31.4,9.1,30.8,8.4,30,8.4z"/>
	</g>
	<g>
		<path fill="#010101" d="M44.8,18.3h-3.9V9h3.9c1.5,0,2.7,1.2,2.7,2.7v3.9C47.5,17,46.3,18.3,44.8,18.3z M42.8,16.3h2
			c0.4,0,0.8-0.3,0.8-0.8v-3.9c0-0.4-0.3-0.8-0.8-0.8h-2V16.3z"/>
	</g>
</g>
</svg>
