<?xml version="1.0" encoding="utf-8"?>
<!-- Generator: Adobe Illustrator 18.1.1, SVG Export Plug-In . SVG Version: 6.00 Build 0)  -->
<svg version="1.1" id="Layer_1" xmlns="http://www.w3.org/2000/svg" xmlns:xlink="http://www.w3.org/1999/xlink" x="0px" y="0px"
	 viewBox="0 0 48 48" enable-background="new 0 0 48 48" xml:space="preserve">
<g>
	<g>
		<path fill="#010101" d="M1.5,47.5c-0.2,0-0.5-0.1-0.7-0.3c-0.3-0.3-0.4-0.9-0.1-1.3L31.4,8.3c0.3-0.4,0.9-0.5,1.3-0.1
			c0.4,0.3,0.5,0.9,0.1,1.3L8.1,39.9l30.4-24.8c0.4-0.3,1-0.3,1.3,0.1c0.3,0.4,0.3,1-0.1,1.3L2.1,47.3C1.9,47.4,1.7,47.5,1.5,47.5z"
			/>
	</g>
	<g>
		<path fill="#010101" d="M39.4,16.8c-2.2,0-4.2-0.8-5.8-2.4c-1.5-1.5-2.4-3.6-2.4-5.8c0-2.2,0.8-4.2,2.4-5.8
			c1.5-1.5,3.6-2.4,5.8-2.4c2.2,0,4.2,0.8,5.8,2.4s2.4,3.6,2.4,5.8c0,2.2-0.8,4.2-2.4,5.8S41.5,16.8,39.4,16.8z M39.4,2.4
			c-1.7,0-3.2,0.6-4.4,1.8c-1.2,1.2-1.8,2.7-1.8,4.4c0,1.7,0.6,3.2,1.8,4.4c1.2,1.2,2.7,1.8,4.4,1.8c1.7,0,3.2-0.6,4.4-1.8
			c1.2-1.2,1.8-2.7,1.8-4.4c0-1.7-0.6-3.2-1.8-4.4C42.6,3.1,41,2.4,39.4,2.4z"/>
	</g>
</g>
</svg>
