<?xml version="1.0" encoding="utf-8"?>
<!-- Generator: Adobe Illustrator 18.1.1, SVG Export Plug-In . SVG Version: 6.00 Build 0)  -->
<svg version="1.1" id="Layer_1" xmlns="http://www.w3.org/2000/svg" xmlns:xlink="http://www.w3.org/1999/xlink" x="0px" y="0px"
	 viewBox="0 0 48 48" enable-background="new 0 0 48 48" xml:space="preserve">
<g>
	<g>
		<path fill="#010101" d="M5.1,47.5c-1,0-1.9-0.5-2.5-1.2c-0.6-0.8-0.7-1.7-0.4-2.6l8.2-26.4c1-3.3,3.6-5.9,6.9-6.9l26.4-8.2
			c1.5-0.5,3.1,0.3,3.7,1.7c0.5,1.1,0.2,2.4-0.7,3.3L7.2,46.6C6.6,47.2,5.9,47.5,5.1,47.5z M44.5,4c-0.1,0-0.2,0-0.4,0.1l-26.4,8.2
			c-2.7,0.8-4.8,2.9-5.6,5.6L4,44.2c-0.1,0.4,0,0.8,0.1,0.9c0.4,0.5,1.2,0.6,1.7,0.1L45.3,5.8c0.5-0.5,0.3-1,0.2-1.2
			C45.4,4.3,45,4,44.5,4z"/>
	</g>
	<g>
		<path fill="#010101" d="M12.5,13.9l-2.6-2.6c-1,0.7-2.2,1.1-3.4,1.1c-1.6,0-3.1-0.6-4.2-1.7c-2.3-2.3-2.3-6.1,0-8.4
			c2.3-2.3,6.1-2.3,8.4,0L9.2,3.6C7.7,2,5.1,2,3.6,3.6C2,5.1,2,7.7,3.6,9.2c1.6,1.6,4.1,1.6,5.6,0l0.7-0.7l3.9,3.9L12.5,13.9z"/>
	</g>
</g>
</svg>
