<?xml version="1.0" encoding="utf-8"?>
<!-- Generator: Adobe Illustrator 18.1.1, SVG Export Plug-In . SVG Version: 6.00 Build 0)  -->
<svg version="1.1" id="Layer_1" xmlns="http://www.w3.org/2000/svg" xmlns:xlink="http://www.w3.org/1999/xlink" x="0px" y="0px"
	 viewBox="0 0 48 48" enable-background="new 0 0 48 48" xml:space="preserve">
<g>
	<g>
		<path fill="#010101" d="M23.9,47.3c-2,0-3.9-0.2-5.8-0.7C12,45,6.9,41.2,3.7,35.8c-3.2-5.4-4-11.6-2.5-17.6
			C3.9,7.9,13.3,0.7,24,0.7c2,0,3.9,0.2,5.8,0.7C35.9,3,41,6.8,44.2,12.2c3.2,5.4,4,11.6,2.5,17.6C44,40.1,34.6,47.3,23.9,47.3z
			 M24,2.6c-9.8,0-18.4,6.6-20.9,16.1c-1.4,5.5-0.6,11.3,2.3,16.2c2.9,4.9,7.6,8.4,13.2,9.9c1.8,0.4,3.6,0.7,5.4,0.7
			c9.8,0,18.4-6.6,20.9-16.1c1.4-5.5,0.6-11.3-2.3-16.2c-2.9-4.9-7.6-8.4-13.2-9.9C27.6,2.8,25.8,2.6,24,2.6z"/>
	</g>
	<g>
		<path fill="#010101" d="M0.7,27.1l-0.1-1.3c-0.2-2.6,0-5.2,0.7-7.6c0.3-1.3,0.8-2.7,1.5-4.1l0.2-0.3l0.3-0.1
			C10.6,10.3,17.2,6,22.8,1L23,0.7l0.4,0c2.2-0.1,4.4,0.2,6.4,0.7c1.2,0.3,2.4,0.7,3.7,1.3l1.2,0.5l-0.8,1
			C23.5,17.1,9.4,23.8,1.9,26.7L0.7,27.1z M4.3,15.3c-0.5,1.1-0.9,2.3-1.2,3.4c-0.5,1.8-0.7,3.8-0.7,5.7C9.8,21.4,22.1,15.2,31.6,4
			c-0.8-0.3-1.5-0.5-2.2-0.7c-1.8-0.5-3.7-0.7-5.6-0.7C18.2,7.6,11.7,11.9,4.3,15.3z"/>
	</g>
	<g>
		<path fill="#010101" d="M23.9,47.3c-2,0-4-0.2-5.8-0.7c-2.6-0.7-5.1-1.8-7.4-3.4l-1.4-1l1.6-0.7c10.1-4.5,24-12.9,32.5-27.7
			l0.9-1.6l0.8,1.6c1.6,3.4,2.4,7.1,2.3,10.8l0,0.3l-0.1,0.2c-5.3,8.6-12.9,16-22.6,22l-0.2,0.1L23.9,47.3z M13.3,42.6
			c1.7,1,3.5,1.7,5.3,2.2c1.7,0.4,3.5,0.6,5.3,0.7c9.3-5.7,16.5-12.8,21.6-21c0.1-2.7-0.4-5.4-1.4-8C35.7,29.9,23.1,38,13.3,42.6z"
			/>
	</g>
	<g>
		<path fill="#010101" d="M3.9,36.1l-0.4-0.7c-1.7-3-2.6-6.2-2.9-9.6l-0.1-0.7l0.7-0.3C8.5,22.1,22.3,15.5,32.4,3l0.5-0.6l0.7,0.3
			c2.5,1.1,4.8,2.6,6.7,4.5l0.6,0.6l-0.4,0.7c-10.4,16-26.8,24-35.7,27.4L3.9,36.1z M2.6,26.4c0.3,2.6,1,5,2.2,7.3
			c8.7-3.4,23.7-11,33.5-25.6c-1.5-1.3-3.1-2.4-4.9-3.3C23.4,16.9,10.1,23.4,2.6,26.4z"/>
	</g>
	<g>
		<path fill="#010101" d="M11.1,43.5l-0.4-0.3c-3-2-5.4-4.7-7.2-7.8l-0.6-1L4,34c8.6-3.3,24.7-11.1,34.8-26.6l0.6-1l0.8,0.8
			c2,1.9,3.6,4.2,4.8,6.6l0.2,0.5l-0.3,0.4c-8.8,15.3-23,24-33.4,28.5L11.1,43.5z M5.8,35.4c1.5,2.3,3.4,4.3,5.6,5.9
			c10-4.5,23.4-12.7,31.8-27.1c-0.9-1.7-2-3.4-3.4-4.8C29.7,24.2,14.6,31.9,5.8,35.4z"/>
	</g>
	<g>
		<path fill="#010101" d="M44.6,16.4l-1.8-0.8c0.9-2.2,1.9-4.6,2.5-7.1c0.5-2.6,0.4-5.1-0.4-7l1.8-0.7C47.6,3.2,47.7,6,47.1,9
			C46.6,11.6,45.5,14.2,44.6,16.4z"/>
	</g>
</g>
</svg>
