<?xml version="1.0" encoding="utf-8"?>
<!-- Generator: Adobe Illustrator 18.1.1, SVG Export Plug-In . SVG Version: 6.00 Build 0)  -->
<svg version="1.1" id="Layer_1" xmlns="http://www.w3.org/2000/svg" xmlns:xlink="http://www.w3.org/1999/xlink" x="0px" y="0px"
	 viewBox="0 0 48 48" enable-background="new 0 0 48 48" xml:space="preserve">
<g>
	<g>
		<path fill="#010101" d="M40.8,39.8H7.2V10.7c0-5.6,4.6-10.2,10.2-10.2h13.2c5.6,0,10.2,4.6,10.2,10.2V39.8z M9.1,37.9h29.8V10.7
			c0-4.6-3.7-8.3-8.3-8.3H17.4c-4.6,0-8.3,3.7-8.3,8.3V37.9z"/>
	</g>
	<g>
		<path fill="#010101" d="M43.2,47.5H4.8c-2.3,0-4.3-1.9-4.3-4.3v-1c0-2.3,1.9-4.3,4.3-4.3h38.5c2.3,0,4.3,1.9,4.3,4.3v1
			C47.5,45.6,45.6,47.5,43.2,47.5z M4.8,40c-1.3,0-2.3,1-2.3,2.3v1c0,1.3,1,2.3,2.3,2.3h38.5c1.3,0,2.3-1,2.3-2.3v-1
			c0-1.3-1-2.3-2.3-2.3H4.8z"/>
	</g>
	<g>
		<path fill="#010101" d="M7.2,22.2v-9.6l0.6-0.3c6.9-3.2,13.5-7.1,19.6-11.6l0.3-0.2h2.3c2.3,0,4.5,0.8,6.7,2.5l1,0.7l-0.9,0.8
			c-8.4,7.1-17.9,12.8-28.1,17.1L7.2,22.2z M9.1,13.8v5.4c9.1-4,17.6-9.2,25.3-15.4c-1.5-0.9-3-1.4-4.5-1.4h-1.6
			C22.2,6.9,15.8,10.7,9.1,13.8z"/>
	</g>
	<g>
		<path fill="#010101" d="M40.8,39.8H13.6l4.4-1.9c5.1-2.2,12.9-6,21.3-12l1.6-1.1V39.8z M23,37.9h15.9v-9.2
			C33,32.7,27.4,35.7,23,37.9z"/>
	</g>
	<g>
		<path fill="#010101" d="M18.6,39.8H7.2v-5.2l0.7-0.2c3.8-1.2,17.3-6.1,31.4-17.1l1.6-1.2v11.1l-0.4,0.3C32,33.6,24,37.5,18.8,39.7
			L18.6,39.8z M9.1,37.9h9.1c5-2.1,12.6-5.9,20.7-11.6v-6.1c-13,9.8-25.3,14.5-29.8,15.9V37.9z"/>
	</g>
	<g>
		<path fill="#010101" d="M7.2,29.5v-9.5l0.6-0.3C17.8,15.6,27.1,10,35.4,3L36,2.5L36.6,3c2.4,1.8,3.8,4,4.1,6.3l0.1,0.5l-0.4,0.3
			C27.7,21,14.9,26.6,8.5,29.1L7.2,29.5z M9.1,21.4v5.3c6.6-2.6,18.1-8,29.6-17.6c-0.3-1.4-1.2-2.8-2.7-4
			C27.9,11.7,18.9,17.2,9.1,21.4z"/>
	</g>
</g>
</svg>
