<?xml version="1.0" encoding="utf-8"?>
<!-- Generator: Adobe Illustrator 18.1.1, SVG Export Plug-In . SVG Version: 6.00 Build 0)  -->
<svg version="1.1" id="Layer_1" xmlns="http://www.w3.org/2000/svg" xmlns:xlink="http://www.w3.org/1999/xlink" x="0px" y="0px"
	 viewBox="0 0 48 48" enable-background="new 0 0 48 48" xml:space="preserve">
<g>
	<path fill="#010101" d="M25.7,47.5c-0.5,0-1.1,0-1.7-0.1c-0.6,0.1-1.1,0.1-1.7,0.1c-2.1,0-3.4-0.6-4.1-1.2c-1,0.6-2,0.9-3,0.9
		c-2.2,0-3.6-1.5-3.7-1.5l-0.2-0.2l-0.1-0.3c-1.3-7.4,1.3-15.8,3.8-21.5c1.5-3.4,1.9-7.1,1.2-10.7l-0.5-2.4h-2.4l-2.3-5.9l0.3-0.4
		c1.8-2.6,6.4-3.6,6.6-3.6l1.2-0.2v4C21.4,4.9,23,5.6,24,6.3c1-0.7,2.6-1.4,4.7-1.7v-4l1.2,0.2c0.2,0,4.8,1,6.6,3.6l0.3,0.4
		l-2.3,5.9h-2.4l-0.5,2.4c-0.7,3.6-0.3,7.3,1.2,10.7c2.5,5.7,5.1,14,3.8,21.5l-0.1,0.3l-0.2,0.2c-0.1,0.1-1.5,1.5-3.7,1.5l0,0
		c-1,0-2-0.3-3-0.9C29.1,46.9,27.8,47.5,25.7,47.5z M24,45.5l0.1,0c0.5,0.1,1.1,0.1,1.5,0.1c2.5,0,3.2-1,3.2-1l0.6-0.9l0.8,0.6
		c0.8,0.7,1.7,1,2.5,1c1,0,1.7-0.5,2.1-0.8c1.1-6.9-1.4-14.7-3.7-20.1c-1.6-3.8-2.1-7.9-1.3-11.8l0.8-3.9h2.7l1.4-3.7
		c-1-1-2.7-1.7-3.9-2.1v3.3l-0.9,0.1c-2.8,0.3-4.5,1.3-5.2,1.9L24,8.6l-0.6-0.5c-0.7-0.6-2.4-1.6-5.2-1.9l-0.9-0.1V2.9
		c-1.3,0.4-3,1.1-3.9,2.1l1.4,3.7h2.7l0.8,3.9c0.8,4,0.3,8.1-1.3,11.8c-2.3,5.4-4.8,13.1-3.7,20.1c0.3,0.3,1.1,0.8,2.1,0.8
		c0.8,0,1.6-0.3,2.5-1l0.9-0.7l0.6,1c0,0,0,0,0,0c0,0,0.7,1,3.2,1c0.5,0,1,0,1.5-0.1L24,45.5z"/>
</g>
</svg>
