<?xml version="1.0" encoding="utf-8"?>
<!-- Generator: Adobe Illustrator 18.1.1, SVG Export Plug-In . SVG Version: 6.00 Build 0)  -->
<svg version="1.1" id="Layer_1" xmlns="http://www.w3.org/2000/svg" xmlns:xlink="http://www.w3.org/1999/xlink" x="0px" y="0px"
	 viewBox="0 0 48 48" enable-background="new 0 0 48 48" xml:space="preserve">
<g>
	<g>
		<path fill="#010101" d="M12.5,25.3l-6.7-1.9c-2.5-0.7-4.4-2.6-5.1-5.1c-0.7-2.5,0-5.1,1.9-6.9l8.8-8.8c1.8-1.8,4.4-2.5,6.9-1.9
			c2.5,0.7,4.4,2.6,5.1,5.1l1.9,6.9l-1.9,0.5l-1.9-6.9c-0.5-1.8-1.9-3.2-3.7-3.7c-1.8-0.5-3.7,0-5.1,1.4L4,12.8
			c-1.3,1.3-1.9,3.2-1.4,5.1c0.5,1.8,1.9,3.2,3.7,3.7l6.7,1.9L12.5,25.3z"/>
	</g>
	<g>
		<path fill="#010101" d="M31.5,47.5c-0.6,0-1.3-0.1-1.9-0.2c-2.5-0.7-4.4-2.6-5.1-5.1l-2-7.1l1.9-0.5l2,7.1
			c0.5,1.8,1.9,3.2,3.7,3.7c1.8,0.5,3.7,0,5.1-1.4l8.8-8.8c1.3-1.3,1.9-3.2,1.4-5.1c-0.5-1.8-1.9-3.2-3.7-3.7l-7-1.9l0.5-1.9l7,1.9
			c2.5,0.7,4.4,2.6,5.1,5.1c0.7,2.5,0,5.1-1.9,6.9l-8.8,8.8C35.2,46.8,33.4,47.5,31.5,47.5z"/>
	</g>
	<g>
		<path fill="#010101" d="M24,35.4c-3.1,0-5.9-1.2-8.1-3.4c-2.2-2.2-3.4-5-3.4-8.1s1.2-5.9,3.4-8.1c2.2-2.2,5-3.4,8.1-3.4
			s5.9,1.2,8.1,3.4c2.2,2.2,3.4,5,3.4,8.1s-1.2,5.9-3.4,8.1C29.9,34.2,27.1,35.4,24,35.4z M24,14.5c-2.5,0-4.9,1-6.7,2.8
			c-1.8,1.8-2.8,4.2-2.8,6.7s1,4.9,2.8,6.7c1.8,1.8,4.2,2.8,6.7,2.8s4.9-1,6.7-2.8c1.8-1.8,2.8-4.2,2.8-6.7s-1-4.9-2.8-6.7
			C28.9,15.5,26.5,14.5,24,14.5z"/>
	</g>
</g>
</svg>
