<?xml version="1.0" encoding="utf-8"?>
<!-- Generator: Adobe Illustrator 18.1.1, SVG Export Plug-In . SVG Version: 6.00 Build 0)  -->
<svg version="1.1" id="Layer_1" xmlns="http://www.w3.org/2000/svg" xmlns:xlink="http://www.w3.org/1999/xlink" x="0px" y="0px"
	 viewBox="0 0 48 48" enable-background="new 0 0 48 48" xml:space="preserve">
<g>
	<g>
		<path fill="#010101" d="M33.9,37.2H14.1L18,23.6c0.4-1.6,0.5-3.2,0-4.8L15,8c-0.2-0.8-0.1-1.5,0.4-2.2c0.5-0.6,1.2-1,2-1h3.4
			l0.3-2.3c0.1-1.2,1.1-2.1,2.3-2.1h1.1c1.2,0,2.2,0.9,2.3,2.1l0.3,2.3h3.4c0.8,0,1.5,0.4,2,1C33,6.5,33.2,7.2,33,8l-3,10.8
			c-0.4,1.6-0.4,3.2,0,4.8L33.9,37.2z M16.7,35.2h14.5l-3.2-11.1c-0.5-1.9-0.6-3.9,0-5.9l3-10.8c0.1-0.2,0-0.4-0.1-0.4
			c-0.1-0.1-0.2-0.2-0.4-0.2h-5.2l-0.5-4c0-0.2-0.2-0.3-0.4-0.3h-1.1c-0.2,0-0.3,0.1-0.4,0.3l-0.5,4h-5.2c-0.2,0-0.4,0.1-0.4,0.2
			c-0.1,0.1-0.1,0.2-0.1,0.4l3,10.8c0.5,1.9,0.5,3.9,0,5.9L16.7,35.2z"/>
	</g>
	<g>
		<rect x="23" y="36.2" fill="#010101" width="2" height="6.3"/>
	</g>
	<g>
		<path fill="#010101" d="M30.6,47.5h-2c0-2.5-2.1-4.6-4.6-4.6s-4.6,2.1-4.6,4.6h-2c0-3.6,2.9-6.6,6.6-6.6
			C27.6,40.9,30.6,43.9,30.6,47.5z"/>
	</g>
</g>
</svg>
