<?xml version="1.0" encoding="utf-8"?>
<!-- Generator: Adobe Illustrator 18.1.1, SVG Export Plug-In . SVG Version: 6.00 Build 0)  -->
<svg version="1.1" id="Layer_1" xmlns="http://www.w3.org/2000/svg" xmlns:xlink="http://www.w3.org/1999/xlink" x="0px" y="0px"
	 viewBox="0 0 48 48" enable-background="new 0 0 48 48" xml:space="preserve">
<g>
	<g>
		<path fill="#010101" d="M33.6,45.9H14.4V14.1L7.8,24l-7.3-5.5L11.8,2.1h7.6l0,0.9c0.1,2.2,2.1,3.8,4.5,3.8c2.4,0,4.4-1.7,4.5-3.8
			l0-0.9h7.6l11.3,16.4L40.2,24l-6.6-9.9V45.9z M16.3,44h15.4v-36l9,13.4l4.2-3.2L35.2,4h-4.9c-0.6,2.7-3.2,4.7-6.2,4.7
			c-3.1,0-5.7-2-6.2-4.7h-4.9L3.1,18.2l4.2,3.2l9-13.4V44z"/>
	</g>
	<g>
		<rect x="23.1" y="7.8" fill="#010101" width="1.9" height="37.1"/>
	</g>
</g>
</svg>
