<?xml version="1.0" encoding="utf-8"?>
<!-- Generator: Adobe Illustrator 18.1.1, SVG Export Plug-In . SVG Version: 6.00 Build 0)  -->
<svg version="1.1" id="Layer_1" xmlns="http://www.w3.org/2000/svg" xmlns:xlink="http://www.w3.org/1999/xlink" x="0px" y="0px"
	 viewBox="0 0 48 48" enable-background="new 0 0 48 48" xml:space="preserve">
<g>
	<g>
		<path fill="#010101" d="M47.5,47.3h-47L7,9.3H41L47.5,47.3z M2.8,45.4h42.5l-5.9-34.2H8.6L2.8,45.4z"/>
	</g>
	<g>
		<path fill="#010101" d="M35.8,11.2H12.2V5.3c0-2.5,2-4.6,4.6-4.6h14.4c2.5,0,4.6,2,4.6,4.6V11.2z M14.1,9.3h19.7v-4
			c0-1.5-1.2-2.7-2.7-2.7H16.8c-1.5,0-2.7,1.2-2.7,2.7V9.3z"/>
	</g>
	<g>
		<g>
			<line fill="#010101" x1="29.1" y1="22.4" x2="18.9" y2="34.2"/>
			
				<rect x="23" y="20.5" transform="matrix(0.7556 0.655 -0.655 0.7556 24.395 -8.8073)" fill="#010101" width="1.9" height="15.6"/>
		</g>
		<g>
			<g>
				<path fill="#010101" d="M27.5,35.1c-1.8,0-3.3-1.5-3.3-3.3c0-1.8,1.5-3.3,3.3-3.3s3.3,1.5,3.3,3.3
					C30.8,33.7,29.3,35.1,27.5,35.1z M27.5,30.5c-0.7,0-1.4,0.6-1.4,1.4c0,0.7,0.6,1.4,1.4,1.4s1.4-0.6,1.4-1.4
					C28.9,31.1,28.3,30.5,27.5,30.5z"/>
			</g>
			<g>
				<path fill="#010101" d="M20.5,27.9c-1.8,0-3.3-1.5-3.3-3.3c0-1.8,1.5-3.3,3.3-3.3c1.8,0,3.3,1.5,3.3,3.3
					C23.7,26.5,22.2,27.9,20.5,27.9z M20.5,23.3c-0.7,0-1.4,0.6-1.4,1.4c0,0.7,0.6,1.4,1.4,1.4s1.4-0.6,1.4-1.4
					C21.8,23.9,21.2,23.3,20.5,23.3z"/>
			</g>
		</g>
	</g>
</g>
</svg>
