<?xml version="1.0" encoding="utf-8"?>
<!-- Generator: Adobe Illustrator 18.1.1, SVG Export Plug-In . SVG Version: 6.00 Build 0)  -->
<svg version="1.1" id="Layer_1" xmlns="http://www.w3.org/2000/svg" xmlns:xlink="http://www.w3.org/1999/xlink" x="0px" y="0px"
	 viewBox="0 0 48 48" enable-background="new 0 0 48 48" xml:space="preserve">
<g>
	<g>
		<path fill="#010101" d="M33.5,47.5c-3.7,0-7.3-1.5-9.9-4.1c-2.6-2.6-4.1-6.2-4.1-9.9c0-3.7,1.5-7.3,4.1-9.9
			c2.6-2.6,6.2-4.1,9.9-4.1c3.7,0,7.3,1.5,9.9,4.1c2.6,2.6,4.1,6.2,4.1,9.9c0,3.7-1.5,7.3-4.1,9.9C40.8,46,37.2,47.5,33.5,47.5z
			 M33.5,21.5c-3.2,0-6.2,1.3-8.5,3.5c-2.3,2.3-3.5,5.3-3.5,8.5c0,3.2,1.3,6.2,3.5,8.5c2.3,2.3,5.3,3.5,8.5,3.5
			c3.2,0,6.2-1.3,8.5-3.5c2.3-2.3,3.5-5.3,3.5-8.5c0-3.2-1.3-6.2-3.5-8.5C39.8,22.7,36.7,21.5,33.5,21.5z"/>
	</g>
	<g>
		<polygon fill="#010101" points="20.1,30.2 7,13.9 13.9,7 30.2,20.1 29,21.6 14,9.6 9.6,14 21.6,29 		"/>
	</g>
	<g>
		<path fill="#010101" d="M10.8,12.8l-7.1-2.3l-3.2-10l10,3.2l2.3,7.1L10.8,12.8z M5.2,9l5,1.6l0.3-0.3L9,5.2L3.5,3.5L5.2,9z"/>
	</g>
</g>
</svg>
