<?xml version="1.0" encoding="utf-8"?>
<!-- Generator: Adobe Illustrator 18.1.1, SVG Export Plug-In . SVG Version: 6.00 Build 0)  -->
<svg version="1.1" id="Layer_1" xmlns="http://www.w3.org/2000/svg" xmlns:xlink="http://www.w3.org/1999/xlink" x="0px" y="0px"
	 viewBox="0 0 48 48" enable-background="new 0 0 48 48" xml:space="preserve">
<g>
	<path fill="#010101" d="M31.3,41.1H16.7l-0.2-0.7c-1-3-2.3-5.8-3.7-8.3c-3.4-5.9-7.6-9.9-11.6-11L0.5,21V6.9h47V21l-0.7,0.2
		c-4,1.1-8.2,5.1-11.6,11c-1.4,2.5-2.7,5.3-3.7,8.3L31.3,41.1z M18.2,39.1h11.6c1-2.9,2.2-5.5,3.6-7.9c3.5-6.1,7.7-10.2,12.1-11.7
		V8.9H2.5v10.5c4.3,1.5,8.6,5.7,12.1,11.7C16,33.6,17.2,36.2,18.2,39.1z"/>
</g>
</svg>
