<?xml version="1.0" encoding="utf-8"?>
<!-- Generator: Adobe Illustrator 18.1.1, SVG Export Plug-In . SVG Version: 6.00 Build 0)  -->
<svg version="1.1" id="Layer_1" xmlns="http://www.w3.org/2000/svg" xmlns:xlink="http://www.w3.org/1999/xlink" x="0px" y="0px"
	 viewBox="0 0 48 48" enable-background="new 0 0 48 48" xml:space="preserve">
<g>
	<g>
		<g>
			<path fill="#010101" d="M17.7,28.3c-2.4,0-4.3-1.9-4.3-4.3c0-2.4,1.9-4.3,4.3-4.3c2.4,0,4.3,1.9,4.3,4.3
				C22.1,26.4,20.1,28.3,17.7,28.3z M17.7,21.6c-1.3,0-2.4,1.1-2.4,2.4c0,1.3,1.1,2.4,2.4,2.4c1.3,0,2.4-1.1,2.4-2.4
				C20.2,22.7,19.1,21.6,17.7,21.6z"/>
		</g>
		<g>
			<path fill="#010101" d="M30.3,28.3c-2.4,0-4.3-1.9-4.3-4.3c0-2.4,1.9-4.3,4.3-4.3c2.4,0,4.3,1.9,4.3,4.3
				C34.6,26.4,32.7,28.3,30.3,28.3z M30.3,21.6c-1.3,0-2.4,1.1-2.4,2.4c0,1.3,1.1,2.4,2.4,2.4s2.4-1.1,2.4-2.4
				C32.7,22.7,31.6,21.6,30.3,21.6z"/>
		</g>
	</g>
	<g>
		<path fill="#010101" d="M34.6,47.5c-1.6,0-3.1-0.6-4.3-1.9L27,42.4c-0.8-0.8-1.9-1.3-3-1.3c-1.1,0-2.2,0.4-3,1.3l-3.2,3.2
			c-1.2,1.2-2.7,1.9-4.3,1.9c-2.1,0-4.2-1.2-5.4-3c-1.2-1.9-1.3-4.2-0.3-6.3l2-4.2c1-2.2,0.2-4.9-1.9-6.1l-4-2.2
			c-2.7-1.5-3.9-4.4-3.1-7.4c0.8-3.2,3.7-5.2,6.9-4.8l4.4,0.6c0.2,0,0.4,0,0.6,0l0,0c2.1,0,3.9-1.6,4.3-3.8l0.8-4.6
			c0.6-3.7,3.6-5.4,6.2-5.4s5.6,1.7,6.2,5.4l0.8,4.6c0.4,2.4,2.5,4.1,4.9,3.7l4.4-0.6c3.2-0.5,6.1,1.5,7,4.8c0.8,3-0.4,5.9-3.1,7.4
			l-4,2.2c-2.1,1.2-2.9,3.8-1.9,6.1l2,4.2c1,2.1,0.9,4.4-0.3,6.3C38.8,46.3,36.7,47.5,34.6,47.5z M24,39.2c1.6,0,3.2,0.6,4.4,1.8
			l3.2,3.2c0.9,0.9,1.9,1.3,3,1.3c1.5,0,2.9-0.8,3.8-2.2c0.5-0.8,1.2-2.4,0.2-4.5l-2-4.2c-1.5-3.1-0.3-6.9,2.7-8.5l4-2.2
			c2.3-1.3,2.6-3.6,2.2-5.2c-0.4-1.6-1.7-3.4-4.1-3.4c-0.2,0-0.5,0-0.7,0.1l-4.4,0.6c-3.4,0.5-6.5-1.9-7.1-5.3l-0.8-4.6
			c-0.5-2.8-2.6-3.8-4.3-3.8s-3.8,1-4.3,3.8l-0.8,4.6c-0.5,3.1-3.1,5.4-6.2,5.4c0,0,0,0,0,0c-0.3,0-0.6,0-0.9-0.1l-4.4-0.6
			c-0.2,0-0.5-0.1-0.7-0.1c-2.4,0-3.7,1.8-4.1,3.4c-0.4,1.6-0.1,4,2.2,5.2l4,2.2c3,1.7,4.2,5.4,2.7,8.5l-2,4.2
			c-1,2.1-0.3,3.7,0.2,4.5c0.8,1.3,2.3,2.2,3.8,2.2c1.1,0,2.1-0.5,3-1.3l3.2-3.2C20.8,39.9,22.4,39.2,24,39.2z"/>
	</g>
</g>
</svg>
