<?xml version="1.0" encoding="utf-8"?>
<!-- Generator: Adobe Illustrator 18.1.1, SVG Export Plug-In . SVG Version: 6.00 Build 0)  -->
<svg version="1.1" id="Layer_1" xmlns="http://www.w3.org/2000/svg" xmlns:xlink="http://www.w3.org/1999/xlink" x="0px" y="0px"
	 viewBox="0 0 48 48" enable-background="new 0 0 48 48" xml:space="preserve">
<g>
	<g>
		<g>
			<path fill="#010101" d="M47.5,35.2H11.2l-0.3-0.5c-4.7-9.5-9.1-11.2-9.1-11.2l-1.3-0.4l0.9-1.1l8.2-9.9h21.5L47.5,35.2z
				 M12.3,33.4h31.5L30.2,14H10.5l-6.9,8.3C5.3,23.4,8.8,26.3,12.3,33.4z M25.2,23.4H14.4c-1.8,0-3.2-1.7-3.2-3.7
				c0-2,1.5-3.7,3.2-3.7h10.7c1.8,0,3.2,1.7,3.2,3.7C28.4,21.7,27,23.4,25.2,23.4z M14.4,17.8c-0.7,0-1.4,0.8-1.4,1.8
				c0,1,0.6,1.8,1.4,1.8h10.7c0.7,0,1.4-0.8,1.4-1.8c0-1-0.6-1.8-1.4-1.8H14.4z"/>
		</g>
		<g>
			<path fill="#010101" d="M28.6,14h-9.7v-4c0-1.3,1.1-2.4,2.4-2.4h4.9c1.3,0,2.4,1.1,2.4,2.4V14z M20.8,12.2h5.9v-2.1
				c0-0.3-0.2-0.5-0.5-0.5h-4.9c-0.3,0-0.5,0.2-0.5,0.5V12.2z"/>
		</g>
		<g>
			
				<rect x="0.8" y="15.1" transform="matrix(0.7433 0.6689 -0.6689 0.7433 11.7123 1.6432)" fill="#010101" width="5.9" height="1.9"/>
		</g>
	</g>
	<g>
		<rect x="11.8" y="38.4" fill="#010101" width="34.7" height="1.9"/>
	</g>
</g>
</svg>
