<?xml version="1.0" encoding="utf-8"?>
<!-- Generator: Adobe Illustrator 18.1.1, SVG Export Plug-In . SVG Version: 6.00 Build 0)  -->
<svg version="1.1" id="Layer_1" xmlns="http://www.w3.org/2000/svg" xmlns:xlink="http://www.w3.org/1999/xlink" x="0px" y="0px"
	 viewBox="0 0 48 48" enable-background="new 0 0 48 48" xml:space="preserve">
<g>
	<g>
		<path fill="#010101" d="M45,42.2H0.5V30.4H45V42.2z M2.5,40.2H43v-7.9H2.5V40.2z"/>
	</g>
	<g>
		<path fill="#010101" d="M41.2,32.3H27.5V22.3c0-3.6-3-6.6-6.7-6.6h-9.3v7H4.5V1.6h1c1.9,0,3.7,0.8,5,2.2c1.1,1.3,2.9,2,4.8,2h26
			V32.3z M29.5,30.4h9.8V7.8h-24c-2.5,0-4.7-1-6.2-2.6C8.4,4.3,7.5,3.8,6.5,3.6v17h3v-7h11.3c4.8,0,8.7,3.8,8.7,8.6V30.4z"/>
	</g>
	<g>
		<rect x="6.9" y="21.6" fill="#010101" width="2" height="4.5"/>
	</g>
	<g>
		<path fill="#010101" d="M33.6,17.8c-2.4,0-4.3-1.9-4.3-4.3s1.9-4.3,4.3-4.3c2.4,0,4.3,1.9,4.3,4.3S36,17.8,33.6,17.8z M33.6,11.1
			c-1.3,0-2.4,1-2.4,2.3s1.1,2.3,2.4,2.3c1.3,0,2.4-1,2.4-2.3S34.9,11.1,33.6,11.1z"/>
	</g>
	<g>
		<rect x="33.2" y="1" fill="#010101" width="2" height="5.8"/>
	</g>
	<g>
		<rect x="14" y="1" fill="#010101" width="2" height="5.8"/>
	</g>
	<g>
		<path fill="#010101" d="M41.4,47H30v-6.8h11.4V47z M32,45.1h7.5v-2.9H32V45.1z"/>
	</g>
	<g>
		<path fill="#010101" d="M15.5,47H4v-6.8h11.4V47z M6,45.1h7.5v-2.9H6V45.1z"/>
	</g>
	<g>
		<path fill="#010101" d="M45,18.6h-5.7v-8.5H45V18.6z M41.2,16.7H43v-4.6h-1.8V16.7z"/>
	</g>
	<g>
		<polygon fill="#010101" points="47.5,23.1 43,23.1 43,6.7 45,6.7 45,21.1 47.5,21.1 		"/>
	</g>
</g>
</svg>
