<?xml version="1.0" encoding="utf-8"?>
<!-- Generator: Adobe Illustrator 18.1.1, SVG Export Plug-In . SVG Version: 6.00 Build 0)  -->
<svg version="1.1" id="Layer_1" xmlns="http://www.w3.org/2000/svg" xmlns:xlink="http://www.w3.org/1999/xlink" x="0px" y="0px"
	 viewBox="0 0 48 48" enable-background="new 0 0 48 48" xml:space="preserve">
<g>
	<g>
		<g>
			<path fill="#010101" d="M16.5,28.4l-0.8-0.7c-0.4-0.3-0.7-0.6-0.9-1C12.5,23.1,6,6,9.6,1.1c0.3-0.4,0.8-0.6,1.3-0.6
				c0.5,0,1,0.3,1.3,0.7l10.6,17L16.5,28.4z M10.9,2.7c-2,4.1,2.5,17.9,5.3,22.6l4.4-7.1L10.9,2.7z"/>
		</g>
		<g>
			<path fill="#010101" d="M33.1,47.5L33.1,47.5c-2.5,0-4.9-1.4-6.3-3.6c-1.4-2.2-1.6-4.9-0.6-7.1L25.2,35l2.9-4.7l0.6,0.1
				c0.4,0.1,0.7,0.1,1.1,0.1c0.1,0,0.1,0,0.2,0l0.5,0l1.6,2.6c2.4,0.1,4.8,1.4,6.1,3.6c2.2,3.5,1.3,7.9-1.8,9.8
				C35.5,47.2,34.3,47.5,33.1,47.5z M27.4,35l1.1,1.7l-0.3,0.5c-0.9,1.7-0.8,3.9,0.3,5.6c1.1,1.7,2.8,2.7,4.7,2.7h0
				c0.8,0,1.6-0.2,2.3-0.7c2.2-1.4,2.8-4.6,1.2-7.2c-1.1-1.8-3.1-2.9-5-2.7l-0.6,0l-1.6-2.6c-0.1,0-0.3,0-0.4,0L27.4,35z"/>
		</g>
	</g>
	<g>
		<path fill="#010101" d="M14.9,47.5c-1.2,0-2.3-0.3-3.3-0.9c-3.1-2-4-6.4-1.8-9.8c1.4-2.2,3.7-3.6,6.1-3.6L35.8,1.2
			c0.3-0.5,0.8-0.7,1.3-0.7c0.5,0,1,0.2,1.3,0.6c3.6,4.8-2.9,22-5.1,25.5c-0.7,1.2-2,1.9-3.4,1.9c-0.8,0-1.5-0.2-2.1-0.6l-0.3-0.2
			l-5.6,9c1,2.2,0.8,4.9-0.6,7.1C19.7,46.1,17.3,47.5,14.9,47.5z M16,35c-1.8,0-3.6,1-4.7,2.7c-1.6,2.6-1.1,5.8,1.2,7.2
			c0.7,0.4,1.5,0.7,2.3,0.7c1.8,0,3.6-1,4.7-2.7c1.1-1.8,1.2-4,0.3-5.6l-0.3-0.5l7.2-11.6l1.9,1.2c1,0.6,2.3,0.3,3-0.7
			c2.7-4.3,7.5-18.8,5.5-22.9L16.9,35.1l-0.6,0C16.2,35,16.1,35,16,35z"/>
	</g>
</g>
</svg>
