<?xml version="1.0" encoding="utf-8"?>
<!-- Generator: Adobe Illustrator 18.1.1, SVG Export Plug-In . SVG Version: 6.00 Build 0)  -->
<svg version="1.1" id="Layer_1" xmlns="http://www.w3.org/2000/svg" xmlns:xlink="http://www.w3.org/1999/xlink" x="0px" y="0px"
	 viewBox="0 0 48 48" enable-background="new 0 0 48 48" xml:space="preserve">
<g>
	<g>
		<path fill="#010101" d="M47.5,47.5h-47v-9.1c0-2.5,2.1-4.6,4.6-4.6h38.2c2.4,0,4.3,1.9,4.3,4.3V47.5z M2.4,45.6h43.2v-7.4
			c0-1.3-1.1-2.4-2.4-2.4H5.1c-1.5,0-2.7,1.2-2.7,2.7V45.6z"/>
	</g>
	<g>
		<path fill="#010101" d="M42.5,14.1H9.9c-2.4,0-4.3-1.9-4.3-4.3v-5c0-2.4,1.9-4.3,4.3-4.3h28.8c2.1,0,3.8,1.7,3.8,3.8V14.1z
			 M9.9,2.4c-1.3,0-2.4,1.1-2.4,2.4v5c0,1.3,1.1,2.4,2.4,2.4h30.7V4.3c0-1-0.8-1.9-1.9-1.9H9.9z"/>
	</g>
	<g>
		<path fill="#010101" d="M42.5,35.8H25V12.2h17.4V35.8z M27,33.9h13.6V14.1H27V33.9z"/>
	</g>
	<g>
		<g>
			<path fill="#010101" d="M20.3,19.3H9.4v-7.1h10.9V19.3z M11.4,17.4h7.1v-3.3h-7.1V17.4z"/>
		</g>
		<g>
			<path fill="#010101" d="M17.9,27.8h-5.7V17.4h5.7V27.8z M14.2,25.9H16v-6.6h-1.8V25.9z"/>
		</g>
		<g>
			<rect x="13.9" y="26.9" fill="#010101" width="1.9" height="5.8"/>
		</g>
	</g>
	<g>
		<path fill="#010101" d="M33.8,29.2c-2.5,0-4.5-2-4.5-4.5s2-4.5,4.5-4.5c2.5,0,4.5,2,4.5,4.5S36.2,29.2,33.8,29.2z M33.8,22.2
			c-1.4,0-2.5,1.1-2.5,2.5c0,1.4,1.1,2.5,2.5,2.5c1.4,0,2.5-1.1,2.5-2.5C36.3,23.4,35.2,22.2,33.8,22.2z"/>
	</g>
</g>
</svg>
