<?xml version="1.0" encoding="utf-8"?>
<!-- Generator: Adobe Illustrator 18.1.1, SVG Export Plug-In . SVG Version: 6.00 Build 0)  -->
<svg version="1.1" id="Layer_1" xmlns="http://www.w3.org/2000/svg" xmlns:xlink="http://www.w3.org/1999/xlink" x="0px" y="0px"
	 viewBox="0 0 48 48" enable-background="new 0 0 48 48" xml:space="preserve">
<g>
	<g>
		<path fill="#010101" d="M24,47.5c-6.3,0-12.2-2.4-16.6-6.9c-9.2-9.2-9.2-24.1,0-33.2C11.8,2.9,17.7,0.5,24,0.5
			c6.3,0,12.2,2.4,16.6,6.9c9.2,9.2,9.2,24.1,0,33.2C36.2,45.1,30.3,47.5,24,47.5z M24,2.4c-5.8,0-11.2,2.2-15.3,6.3
			c-8.4,8.4-8.4,22.1,0,30.5c4.1,4.1,9.5,6.3,15.3,6.3c5.8,0,11.2-2.2,15.3-6.3c8.4-8.4,8.4-22.1,0-30.5C35.2,4.7,29.8,2.4,24,2.4z"
			/>
	</g>
	<g>
		<path fill="#010101" d="M24,40.8c-4.5,0-8.7-1.8-11.9-4.9C8.9,32.7,7.2,28.5,7.2,24c0-4.5,1.8-8.7,4.9-11.9
			c3.2-3.2,7.4-4.9,11.9-4.9c4.5,0,8.7,1.8,11.9,4.9c3.2,3.2,4.9,7.4,4.9,11.9c0,4.5-1.8,8.7-4.9,11.9C32.7,39.1,28.5,40.8,24,40.8z
			 M24,9.1c-4,0-7.7,1.6-10.6,4.4C10.6,16.3,9.1,20,9.1,24s1.6,7.7,4.4,10.6c2.8,2.8,6.6,4.4,10.6,4.4c4,0,7.7-1.6,10.6-4.4
			c2.8-2.8,4.4-6.6,4.4-10.6s-1.6-7.7-4.4-10.6S28,9.1,24,9.1z"/>
	</g>
	<g>
		<g>
			<path fill="#010101" d="M20.8,31c-1,0-2-0.4-2.7-1.1c-0.7-0.7-1.1-1.7-1.1-2.7c0-1,0.4-2,1.1-2.7c1.4-1.4,3.9-1.4,5.3,0
				c1.5,1.5,1.5,3.9,0,5.3C22.7,30.6,21.8,31,20.8,31z M20.8,25.4c-0.5,0-1,0.2-1.3,0.5c-0.3,0.3-0.5,0.8-0.5,1.3
				c0,0.5,0.2,1,0.5,1.3c0.7,0.7,1.9,0.7,2.6,0c0.7-0.7,0.7-1.9,0-2.6C21.7,25.6,21.3,25.4,20.8,25.4z"/>
		</g>
		<g>
			<path fill="#010101" d="M27.2,24.5c-1,0-2-0.4-2.7-1.1c-0.7-0.7-1.1-1.7-1.1-2.7c0-1,0.4-2,1.1-2.7c1.4-1.4,3.9-1.4,5.3,0
				c0.7,0.7,1.1,1.7,1.1,2.7c0,1-0.4,2-1.1,2.7C29.2,24.2,28.2,24.5,27.2,24.5z M27.2,18.9c-0.5,0-1,0.2-1.3,0.5
				c-0.7,0.7-0.7,1.9,0,2.6c0.7,0.7,1.9,0.7,2.6,0c0.3-0.3,0.5-0.8,0.5-1.3c0-0.5-0.2-1-0.5-1.3C28.2,19.1,27.7,18.9,27.2,18.9z"/>
		</g>
	</g>
</g>
</svg>
