<?xml version="1.0" encoding="utf-8"?>
<!-- Generator: Adobe Illustrator 18.1.1, SVG Export Plug-In . SVG Version: 6.00 Build 0)  -->
<svg version="1.1" id="Layer_1" xmlns="http://www.w3.org/2000/svg" xmlns:xlink="http://www.w3.org/1999/xlink" x="0px" y="0px"
	 viewBox="0 0 48 48" enable-background="new 0 0 48 48" xml:space="preserve">
<g>
	<g>
		<g>
			<path fill="#010101" d="M46.4,46.5H0.5V33.3h45.9V46.5z M2.4,44.6h42v-9.4h-42C2.4,35.2,2.4,44.6,2.4,44.6z"/>
		</g>
		<g>
			<path fill="#010101" d="M43.3,35.2h-15V18.5h-9.1c-1.7,0-3.2,1-3.8,2.5l-1.7,4.1H7.1V7.7c0-3,2.6-5.4,5.7-4.9L39,6.5
				c2.4,0.4,4.3,2.5,4.3,4.9V35.2z M30.2,33.3h11.2V11.4c0-1.5-1.1-2.8-2.6-3L12.5,4.6C10.6,4.4,9,5.8,9,7.7v15.6h3.4l1.2-3
				c0.9-2.3,3.1-3.7,5.6-3.7h11C30.2,16.6,30.2,33.3,30.2,33.3z"/>
		</g>
		<g>
			<rect x="9.6" y="24.2" fill="#010101" width="1.9" height="6.7"/>
		</g>
		<g>
			<rect x="34.6" y="1.5" fill="#010101" width="1.9" height="5.5"/>
		</g>
	</g>
	<g>
		<path fill="#010101" d="M44.7,25.2h-3.3V11.5h3.3c1.5,0,2.8,1.3,2.8,2.8v8.1C47.5,23.9,46.2,25.2,44.7,25.2z M43.3,23.3h1.4
			c0.5,0,0.9-0.4,0.9-0.9v-8.1c0-0.5-0.4-0.9-0.9-0.9h-1.4V23.3z"/>
	</g>
</g>
</svg>
