<?xml version="1.0" encoding="utf-8"?>
<!-- Generator: Adobe Illustrator 18.1.1, SVG Export Plug-In . SVG Version: 6.00 Build 0)  -->
<svg version="1.1" id="Layer_1" xmlns="http://www.w3.org/2000/svg" xmlns:xlink="http://www.w3.org/1999/xlink" x="0px" y="0px"
	 viewBox="0 0 48 48" enable-background="new 0 0 48 48" xml:space="preserve">
<g>
	<g>
		<path fill="#010101" d="M24,47.5c-4.3,0-8.6-0.8-12.8-2.5l-0.8-0.3l0.2-0.8c0.6-2.5,1.5-5,2.4-7.3c1.7-4.8,3.3-9.4,3.3-14.3
			c-0.5-1.6-3.2-11.1-1.1-14.7c0.4-0.8,1.1-1.3,1.9-1.5c0.2,0,0.3-0.1,0.6-0.1c0.3,0,0.7,0,0.7,0l0,0c1.7,0,3.4,1,4.2,2.5L24,11
			l1.3-2.5C26.2,6.9,27.8,6,29.6,6c0.1,0,0.4,0,0.7,0c0.3,0,0.6,0,0.8,0.1c5.2,2.3,1.3,14.2,0.6,16.2c0,4.9,1.6,9.5,3.3,14.3
			c0.8,2.4,1.7,4.8,2.4,7.3l0.2,0.8L36.8,45C32.6,46.7,28.3,47.5,24,47.5z M12.8,43.5c7.3,2.7,15.2,2.7,22.5,0
			c-0.6-2.1-1.4-4.3-2.1-6.3c-1.7-4.8-3.5-9.8-3.5-15.1v-0.2l0.1-0.2c1.7-4.7,3.3-12.5,0.6-13.9c-0.2,0-0.6,0-0.6,0h-0.1
			c-1.1,0-2.1,0.6-2.6,1.5l-1.8,3.3c-0.3,0.5-0.7,0.7-1.3,0.7c-0.5,0-1-0.3-1.3-0.7l-1.8-3.3c-0.5-0.9-1.5-1.5-2.6-1.5
			c-0.1,0-0.6-0.1-0.8,0c-0.1,0-0.4,0.1-0.6,0.6c-1.4,2.6,0.5,10.5,1.4,13.3V22c0,5.3-1.8,10.3-3.5,15.1
			C14.1,39.2,13.4,41.3,12.8,43.5z"/>
	</g>
	<g>
		<g>
			<rect x="28.5" y="0.5" fill="#010101" width="2" height="6.4"/>
		</g>
		<g>
			<rect x="17.6" y="0.5" fill="#010101" width="2" height="6.4"/>
		</g>
	</g>
	<g>
		<rect x="17.3" y="19.7" fill="#010101" width="13.3" height="2"/>
	</g>
</g>
</svg>
