<?xml version="1.0" encoding="utf-8"?>
<!-- Generator: Adobe Illustrator 18.1.1, SVG Export Plug-In . SVG Version: 6.00 Build 0)  -->
<svg version="1.1" id="Layer_1" xmlns="http://www.w3.org/2000/svg" xmlns:xlink="http://www.w3.org/1999/xlink" x="0px" y="0px"
	 viewBox="0 0 48 48" enable-background="new 0 0 48 48" xml:space="preserve">
<g>
	<g>
		<path fill="#010101" d="M1.5,47.5c-0.2,0-0.5-0.1-0.7-0.3c-0.3-0.3-0.4-0.8-0.1-1.2L28.9,5.1c1.9-2.9,5-4.6,8.5-4.6
			c2.7,0,5.2,1.1,7.1,3c2.2,2.2,3.2,5.2,2.9,8.2c-0.3,3.1-2,5.8-4.6,7.4L2,47.3C1.8,47.4,1.6,47.5,1.5,47.5z M37.4,2.4
			c-2.8,0-5.4,1.4-6.9,3.8L5.2,42.8l36.6-25.2c2.1-1.4,3.5-3.6,3.7-6c0.3-2.5-0.6-4.9-2.4-6.7C41.6,3.3,39.6,2.4,37.4,2.4z"/>
	</g>
	<g>
		
			<rect x="34.7" y="7.2" transform="matrix(0.7071 0.7071 -0.7071 0.7071 19.1533 -21.6452)" fill="#010101" width="1.9" height="10.1"/>
	</g>
</g>
</svg>
