<?xml version="1.0" encoding="utf-8"?>
<!-- Generator: Adobe Illustrator 18.1.1, SVG Export Plug-In . SVG Version: 6.00 Build 0)  -->
<svg version="1.1" id="Layer_1" xmlns="http://www.w3.org/2000/svg" xmlns:xlink="http://www.w3.org/1999/xlink" x="0px" y="0px"
	 viewBox="0 0 48 48" enable-background="new 0 0 48 48" xml:space="preserve">
<g>
	<g>
		<g>
			<path fill="#010101" d="M31.6,6.9H4.9L0.5,0.5H36L31.6,6.9z M5.9,5h24.6l1.8-2.5H4.2L5.9,5z"/>
		</g>
		<g>
			<path fill="#010101" d="M36,47.5H0.5l4.4-6.4h26.7L36,47.5z M4.2,45.6h28.1L30.5,43H5.9L4.2,45.6z"/>
		</g>
	</g>
	<g>
		<g>
			<rect x="5.6" y="11.2" fill="#010101" width="25.6" height="1.9"/>
		</g>
		<g>
			<rect x="5.6" y="17.1" fill="#010101" width="25.6" height="1.9"/>
		</g>
		<g>
			<rect x="5.6" y="23" fill="#010101" width="25.6" height="1.9"/>
		</g>
		<g>
			<rect x="5.6" y="29" fill="#010101" width="25.6" height="1.9"/>
		</g>
		<g>
			<rect x="5.6" y="34.9" fill="#010101" width="25.6" height="1.9"/>
		</g>
	</g>
	<g>
		<path fill="#010101" d="M31.6,43H5.1V5h26.5V43z M7,41.1h22.7V6.9H7V41.1z"/>
	</g>
	<g>
		<path fill="#010101" d="M47.3,33.6c-1.9-0.2-3.9-0.5-5.8-1.2c-2.2-0.8-3.8-2.2-4.3-3.7C37,28,37,27.3,37,26.6c0-0.2,0-0.3,0-0.5
			c0-1.4-0.4-3.4-2.1-5.1c-1.4-1.4-3.9-2.2-6.5-2.1l-0.1-1.9c3.1-0.2,6.1,0.8,7.9,2.6c1.7,1.7,2.7,4,2.7,6.4c0,0.2,0,0.3,0,0.5
			c0,0.5,0,1,0.1,1.5c0.3,0.9,1.5,1.9,3.1,2.5c1.6,0.6,3.5,0.8,5.3,1.1L47.3,33.6z"/>
	</g>
</g>
</svg>
