<?xml version="1.0" encoding="utf-8"?>
<!-- Generator: Adobe Illustrator 18.1.1, SVG Export Plug-In . SVG Version: 6.00 Build 0)  -->
<svg version="1.1" id="Layer_1" xmlns="http://www.w3.org/2000/svg" xmlns:xlink="http://www.w3.org/1999/xlink" x="0px" y="0px"
	 viewBox="0 0 48 48" enable-background="new 0 0 48 48" xml:space="preserve">
<g>
	<g>
		<path fill="#010101" d="M40.7,35.3H26V24.2c0-3-2.5-5.5-5.5-5.5h-2.4c-2.4,0-4.3,1.9-4.3,4.3v1H6.1V8.7h7.6l0.2,0.2
			c2.2,1.4,5.4,2.2,8.9,2.2c3.5,0,6.7-0.8,8.9-2.2L32,8.7h8.8V35.3z M28,33.4h10.9V10.6h-6.3c-2.4,1.5-6,2.4-9.7,2.4
			c-3.7,0-7.2-0.9-9.7-2.4H8V22H12c0.5-3,3-5.3,6.1-5.3h2.4c4.1,0,7.4,3.3,7.4,7.4V33.4z"/>
	</g>
	<g>
		<path fill="#010101" d="M45.2,20.5h-6.4v-8.2h6.4V20.5z M40.7,18.6h2.6v-4.3h-2.6V18.6z"/>
	</g>
	<g>
		<rect x="43.3" y="10.2" fill="#010101" width="1.9" height="12.6"/>
	</g>
	<g>
		<path fill="#010101" d="M44.5,39.3h-41c-1.6,0-3-1.3-3-3s1.3-3,3-3h41c1.6,0,3,1.3,3,3S46.2,39.3,44.5,39.3z M3.5,35.3
			c-0.6,0-1.1,0.5-1.1,1.1c0,0.6,0.5,1.1,1.1,1.1h41c0.6,0,1.1-0.5,1.1-1.1c0-0.6-0.5-1.1-1.1-1.1H3.5z"/>
	</g>
	<g>
		<path fill="#010101" d="M33.3,27.5c-2.2,0-4-1.8-4-4c0-2.2,1.8-4,4-4c2.2,0,4,1.8,4,4C37.3,25.7,35.5,27.5,33.3,27.5z M33.3,21.4
			c-1.2,0-2.1,0.9-2.1,2.1c0,1.2,0.9,2.1,2.1,2.1c1.2,0,2.1-0.9,2.1-2.1C35.4,22.4,34.4,21.4,33.3,21.4z"/>
	</g>
	<g>
		<rect x="8.7" y="23" fill="#010101" width="1.9" height="6.5"/>
	</g>
</g>
</svg>
