<?xml version="1.0" encoding="utf-8"?>
<!-- Generator: Adobe Illustrator 18.1.1, SVG Export Plug-In . SVG Version: 6.00 Build 0)  -->
<svg version="1.1" id="Layer_1" xmlns="http://www.w3.org/2000/svg" xmlns:xlink="http://www.w3.org/1999/xlink" x="0px" y="0px"
	 viewBox="0 0 48 48" enable-background="new 0 0 48 48" xml:space="preserve">
<g>
	<g>
		<path fill="#010101" d="M29.3,21.2H18.7l0-0.9c0-2.2-0.5-5.5-1.6-6.4c-0.8-0.3-4.6-2-6.4-5.4l-0.2-0.4l0.2-0.4
			c0.1-0.3,3.2-6.8,8.9-6.2l0.5,0L20.3,2c0.1,0.2,2.4,4,3.7,6.8C25.3,6,27.6,2.2,27.7,2L28,1.6l0.5,0c5.8-0.6,8.8,6,8.9,6.2l0.2,0.4
			l-0.2,0.4c-1.8,3.4-5.6,5.1-6.4,5.4c-1,0.9-1.5,4.2-1.6,6.4L29.3,21.2z M20.5,19.4h7.1c0.1-1.9,0.6-5.7,2.4-7l0.2-0.1
			c0,0,3.6-1.4,5.3-4.2c-0.7-1.2-2.9-4.8-6.3-4.8c0,0-0.1,0-0.1,0c-0.8,1.4-3.4,5.9-4,7.9c-0.1,0.5-0.5,0.8-1,0.8
			c-0.5,0-0.9-0.3-1-0.8c-0.6-2-3.2-6.5-4-7.9c0,0-0.1,0-0.1,0c-3.4,0-5.6,3.5-6.3,4.8c1.8,2.8,5.3,4.2,5.3,4.2l0.2,0.1
			C19.9,13.7,20.4,17.5,20.5,19.4z"/>
	</g>
	<g>
		<path fill="#010101" d="M24,46.5c-7.5,0-14.9-1.5-21.9-4.4l-1.6-0.7l1.4-1C10.2,34.8,16,26.2,18.8,20l0.2-0.6h10l0.2,0.6
			c2.7,6.2,8.6,14.9,16.8,20.5l1.4,1l-1.6,0.7C38.9,45,31.5,46.5,24,46.5z M4.3,41c6.4,2.4,13,3.6,19.7,3.6c6.7,0,13.3-1.2,19.7-3.6
			C36,35.3,30.6,27.3,27.8,21.2h-7.6C17.4,27.3,12,35.3,4.3,41z"/>
	</g>
</g>
</svg>
