<?xml version="1.0" encoding="utf-8"?>
<!-- Generator: Adobe Illustrator 18.1.1, SVG Export Plug-In . SVG Version: 6.00 Build 0)  -->
<svg version="1.1" id="Layer_1" xmlns="http://www.w3.org/2000/svg" xmlns:xlink="http://www.w3.org/1999/xlink" x="0px" y="0px"
	 viewBox="0 0 48 48" enable-background="new 0 0 48 48" xml:space="preserve">
<g>
	<g>
		<path fill="#010101" d="M24,47.5c-1.8,0-3.3-1.1-3.9-2.7l-1.4-3.9c-0.4-1.2-1.8-1.8-3-1.2L12,41.4c-1.9,0.9-4.1,0.2-5.2-1.5
			C6,38.7,6,37.3,6.6,36l1.8-3.7c0.3-0.6,0.3-1.2,0-1.8c-0.2-0.6-0.7-1-1.3-1.2l-3.9-1.4c-1.7-0.6-2.7-2.1-2.7-3.9
			c0-1.8,1.1-3.3,2.7-3.9l3.9-1.4c0.6-0.2,1-0.6,1.3-1.2c0.2-0.6,0.2-1.2,0-1.8L6.6,12C6,10.7,6,9.3,6.8,8.1
			c1.1-1.7,3.4-2.4,5.2-1.5l3.7,1.8c1.1,0.5,2.6-0.1,3-1.2l1.4-3.9c0.6-1.7,2.1-2.7,3.9-2.7c1.8,0,3.3,1.1,3.9,2.7l1.4,3.9
			c0.4,1.2,1.8,1.8,3,1.2L36,6.6c1.9-0.9,4.1-0.2,5.2,1.5C42,9.3,42,10.7,41.4,12l-1.8,3.7c-0.3,0.6-0.3,1.2,0,1.8
			c0.2,0.6,0.7,1,1.3,1.2l3.9,1.4c1.7,0.6,2.7,2.1,2.7,3.9c0,1.8-1.1,3.3-2.7,3.9l-3.9,1.4c-0.6,0.2-1,0.6-1.3,1.2
			c-0.2,0.6-0.2,1.2,0,1.8l1.8,3.7c0.6,1.3,0.5,2.7-0.2,3.9c-1.1,1.7-3.4,2.4-5.2,1.5l-3.7-1.8c-1.1-0.5-2.6,0.1-3,1.2l-1.4,3.9
			C27.3,46.4,25.8,47.5,24,47.5z M16.7,37.5c1.7,0,3.3,1.1,3.9,2.7l1.4,3.9c0.4,1.1,1.3,1.4,2.1,1.4c0.7,0,1.7-0.4,2.1-1.4l1.4-3.9
			c0.6-1.6,2.1-2.7,3.9-2.7c0.6,0,1.2,0.1,1.8,0.4l3.7,1.8c1,0.5,2.2,0.1,2.8-0.8c0.2-0.4,0.6-1.1,0.1-2.1l-1.8-3.7
			c-0.5-1-0.5-2.3-0.1-3.3c0.4-1.1,1.3-1.9,2.4-2.3l3.9-1.4c1.1-0.4,1.4-1.3,1.4-2.1c0-0.7-0.4-1.7-1.4-2.1l-3.9-1.4
			c-1.1-0.4-2-1.2-2.4-2.3c-0.4-1.1-0.4-2.3,0.1-3.3l1.8-3.7c0.4-0.9,0.1-1.7-0.1-2.1c-0.6-0.9-1.8-1.3-2.8-0.8l-3.7,1.8
			c-0.6,0.3-1.1,0.4-1.8,0.4c-1.7,0-3.3-1.1-3.9-2.7l-1.4-3.9c-0.4-1.1-1.3-1.4-2.1-1.4c-0.7,0-1.7,0.4-2.1,1.4l-1.4,3.9
			c-0.6,1.6-2.1,2.7-3.9,2.7l0,0c-0.6,0-1.2-0.1-1.8-0.4l-3.7-1.8c-1-0.5-2.2-0.1-2.8,0.8c-0.2,0.4-0.6,1.1-0.1,2.1l1.8,3.7
			c0.5,1,0.5,2.3,0.1,3.3c-0.4,1.1-1.3,1.9-2.4,2.3l-3.9,1.4c-1.1,0.4-1.4,1.3-1.4,2.1c0,0.7,0.4,1.7,1.4,2.1l3.9,1.4
			c1.1,0.4,2,1.2,2.4,2.3c0.4,1.1,0.4,2.3-0.1,3.3l-1.8,3.7c-0.4,0.9-0.1,1.7,0.1,2.1c0.6,0.9,1.8,1.3,2.8,0.8l3.7-1.8
			C15.5,37.6,16.1,37.5,16.7,37.5z"/>
	</g>
	<g>
		<g>
			<path fill="#010101" d="M17.7,28.3c-2.4,0-4.3-1.9-4.3-4.3c0-2.4,1.9-4.3,4.3-4.3c2.4,0,4.3,1.9,4.3,4.3
				C22.1,26.4,20.1,28.3,17.7,28.3z M17.7,21.6c-1.3,0-2.4,1.1-2.4,2.4c0,1.3,1.1,2.4,2.4,2.4c1.3,0,2.4-1.1,2.4-2.4
				C20.2,22.7,19.1,21.6,17.7,21.6z"/>
		</g>
		<g>
			<path fill="#010101" d="M30.3,28.3c-2.4,0-4.3-1.9-4.3-4.3c0-2.4,1.9-4.3,4.3-4.3c2.4,0,4.3,1.9,4.3,4.3
				C34.6,26.4,32.7,28.3,30.3,28.3z M30.3,21.6c-1.3,0-2.4,1.1-2.4,2.4c0,1.3,1.1,2.4,2.4,2.4c1.3,0,2.4-1.1,2.4-2.4
				C32.7,22.7,31.6,21.6,30.3,21.6z"/>
		</g>
	</g>
</g>
</svg>
