<?xml version="1.0" encoding="utf-8"?>
<!-- Generator: Adobe Illustrator 18.1.1, SVG Export Plug-In . SVG Version: 6.00 Build 0)  -->
<svg version="1.1" id="Layer_1" xmlns="http://www.w3.org/2000/svg" xmlns:xlink="http://www.w3.org/1999/xlink" x="0px" y="0px"
	 viewBox="0 0 48 48" enable-background="new 0 0 48 48" xml:space="preserve">
<g>
	<g>
		<path fill="#010101" d="M43,47.5H0.5V35.8H43V47.5z M2.4,45.6h38.7v-7.9H2.4V45.6z"/>
	</g>
	<g>
		<path fill="#010101" d="M43,37.7H25.6V20.2c0-2.6-2.1-4.7-4.6-4.7c-1.8,0-3.4,1-4.1,2.6l-3.5,7.1H3.6V0.5H43V37.7z M27.5,35.8
			h13.6V2.4H5.5v20.8h6.6l2.9-6c1.1-2.3,3.4-3.7,5.9-3.7c3.6,0,6.5,3,6.5,6.6V35.8z"/>
	</g>
	<g>
		<path fill="#010101" d="M44.5,13h-3.3V3.9h3.3c1.7,0,3,1.4,3,3V10C47.5,11.7,46.1,13,44.5,13z M43,11.1h1.4c0.6,0,1.1-0.5,1.1-1.1
			V6.9c0-0.6-0.5-1.1-1.1-1.1H43V11.1z"/>
	</g>
	<g>
		<rect x="8" y="24.2" fill="#010101" width="1.9" height="8.8"/>
	</g>
	<g>
		<path fill="#010101" d="M33.7,12.4c-2.2,0-3.9-1.8-3.9-4c0-2.2,1.8-4,3.9-4c2.2,0,3.9,1.8,3.9,4C37.6,10.6,35.9,12.4,33.7,12.4z
			 M33.7,6.4c-1.1,0-2,0.9-2,2.1c0,1.1,0.9,2.1,2,2.1c1.1,0,2-0.9,2-2.1C35.7,7.3,34.8,6.4,33.7,6.4z"/>
	</g>
</g>
</svg>
