<?xml version="1.0" encoding="utf-8"?>
<!-- Generator: Adobe Illustrator 18.1.1, SVG Export Plug-In . SVG Version: 6.00 Build 0)  -->
<svg version="1.1" id="Layer_1" xmlns="http://www.w3.org/2000/svg" xmlns:xlink="http://www.w3.org/1999/xlink" x="0px" y="0px"
	 viewBox="0 0 48 48" enable-background="new 0 0 48 48" xml:space="preserve">
<g>
	<g>
		<rect x="23.1" y="43" fill="#010101" width="1.9" height="3.2"/>
	</g>
	<g>
		<rect x="23.1" y="31.9" fill="#010101" width="1.9" height="6.2"/>
	</g>
	<g>
		<rect x="23.1" y="19.4" fill="#010101" width="1.9" height="7.5"/>
	</g>
	<g>
		<rect x="23.1" y="9.8" fill="#010101" width="1.9" height="4.7"/>
	</g>
	<g>
		<path fill="#010101" d="M24,20.4c-1.9,0-3.4-1.5-3.4-3.4c0-1.9,1.5-3.4,3.4-3.4s3.4,1.5,3.4,3.4C27.4,18.8,25.9,20.4,24,20.4z
			 M24,15.4c-0.8,0-1.5,0.7-1.5,1.5c0,0.8,0.7,1.5,1.5,1.5c0.8,0,1.5-0.7,1.5-1.5C25.5,16.1,24.8,15.4,24,15.4z"/>
	</g>
	<g>
		<path fill="#010101" d="M24,32.8c-1.9,0-3.4-1.5-3.4-3.4c0-1.9,1.5-3.4,3.4-3.4s3.4,1.5,3.4,3.4C27.4,31.3,25.9,32.8,24,32.8z
			 M24,27.8c-0.8,0-1.5,0.7-1.5,1.5c0,0.8,0.7,1.5,1.5,1.5c0.8,0,1.5-0.7,1.5-1.5C25.5,28.5,24.8,27.8,24,27.8z"/>
	</g>
	<g>
		<path fill="#010101" d="M24,44c-1.9,0-3.4-1.5-3.4-3.4c0-1.9,1.5-3.4,3.4-3.4s3.4,1.5,3.4,3.4C27.4,42.4,25.9,44,24,44z M24,39
			c-0.8,0-1.5,0.7-1.5,1.5c0,0.8,0.7,1.5,1.5,1.5c0.8,0,1.5-0.7,1.5-1.5C25.5,39.7,24.8,39,24,39z"/>
	</g>
	<g>
		<path fill="#010101" d="M34.3,47.1H13.7V13.5L6.4,24.4l-5.9-3.8L13.7,0.9h4.6L24,8.7l5.7-7.8h4.6l13.2,19.7l-5.9,3.8l-7.3-10.8
			V47.1z M15.6,45.2h16.8V7.3l9.7,14.4l2.8-1.8L33.3,2.8h-2.6L24,11.9l-6.7-9.1h-2.6L3.1,20l2.8,1.8l9.7-14.4V45.2z"/>
	</g>
</g>
</svg>
