<?xml version="1.0" encoding="utf-8"?>
<!-- Generator: Adobe Illustrator 18.1.1, SVG Export Plug-In . SVG Version: 6.00 Build 0)  -->
<svg version="1.1" id="Layer_1" xmlns="http://www.w3.org/2000/svg" xmlns:xlink="http://www.w3.org/1999/xlink" x="0px" y="0px"
	 viewBox="0 0 48 48" enable-background="new 0 0 48 48" xml:space="preserve">
<g>
	<g>
		<path fill="#010101" d="M20.5,47.5l-20-20l27-27l17.2,2.8l2.8,17.2L20.5,47.5z M3.3,27.5l17.2,17.2l24.9-24.9L43,5L28.2,2.6
			L3.3,27.5z"/>
	</g>
	<g>
		<path fill="#010101" d="M36.1,16.9c-1.3,0-2.6-0.5-3.6-1.5c-2-2-2-5.1,0-7.1c0.9-0.9,2.2-1.5,3.6-1.5c1.3,0,2.6,0.5,3.6,1.5
			c0.9,0.9,1.5,2.2,1.5,3.6c0,1.3-0.5,2.6-1.5,3.6C38.7,16.4,37.5,16.9,36.1,16.9z M36.1,8.8c-0.8,0-1.6,0.3-2.2,0.9
			c-1.2,1.2-1.2,3.1,0,4.3c1.2,1.2,3.2,1.2,4.3,0c0.6-0.6,0.9-1.3,0.9-2.2s-0.3-1.6-0.9-2.2C37.7,9.1,37,8.8,36.1,8.8z"/>
	</g>
</g>
</svg>
