<?xml version="1.0" encoding="utf-8"?>
<!-- Generator: Adobe Illustrator 18.1.1, SVG Export Plug-In . SVG Version: 6.00 Build 0)  -->
<svg version="1.1" id="Layer_1" xmlns="http://www.w3.org/2000/svg" xmlns:xlink="http://www.w3.org/1999/xlink" x="0px" y="0px"
	 viewBox="0 0 48 48" enable-background="new 0 0 48 48" xml:space="preserve">
<g>
	<g>
		<g>
			<path fill="#010101" d="M24,19.8l-9.6-9.6L24,0.5l9.6,9.6L24,19.8z M17,10.1l7,7l7-7l-7-7L17,10.1z"/>
		</g>
		<g>
			<path fill="#010101" d="M24,47.5l-9.6-9.6l9.6-9.6l9.6,9.6L24,47.5z M17,37.9l7,7l7-7l-7-7L17,37.9z"/>
		</g>
	</g>
	<g>
		<g>
			<path fill="#010101" d="M37.9,33.6L28.2,24l9.6-9.6l9.6,9.6L37.9,33.6z M30.9,24l7,7l7-7l-7-7L30.9,24z"/>
		</g>
		<g>
			<path fill="#010101" d="M10.1,33.6L0.5,24l9.6-9.6l9.6,9.6L10.1,33.6z M3.2,24l7,7l7-7l-7-7L3.2,24z"/>
		</g>
	</g>
</g>
</svg>
