<?xml version="1.0" encoding="utf-8"?>
<!-- Generator: Adobe Illustrator 18.1.1, SVG Export Plug-In . SVG Version: 6.00 Build 0)  -->
<svg version="1.1" id="Layer_1" xmlns="http://www.w3.org/2000/svg" xmlns:xlink="http://www.w3.org/1999/xlink" x="0px" y="0px"
	 viewBox="0 0 48 48" enable-background="new 0 0 48 48" xml:space="preserve">
<g>
	<g>
		<path fill="#010101" d="M41.7,47.5H6.3c-3.2,0-5.8-2.6-5.8-5.8V6.3c0-3.2,2.6-5.8,5.8-5.8h35.4c3.2,0,5.8,2.6,5.8,5.8v35.4
			C47.5,44.9,44.9,47.5,41.7,47.5z M6.3,2.4c-2.1,0-3.9,1.7-3.9,3.9v35.4c0,2.1,1.7,3.9,3.9,3.9h35.4c2.1,0,3.9-1.7,3.9-3.9V6.3
			c0-2.1-1.7-3.9-3.9-3.9H6.3z"/>
	</g>
	<g>
		<g>
			<path fill="#010101" d="M31.6,23.6c-3,0-5.5-2.5-5.5-5.5s2.5-5.5,5.5-5.5s5.5,2.5,5.5,5.5S34.6,23.6,31.6,23.6z M31.6,14.6
				c-2,0-3.5,1.6-3.5,3.5c0,2,1.6,3.6,3.5,3.6c2,0,3.5-1.6,3.5-3.6C35.2,16.2,33.6,14.6,31.6,14.6z"/>
		</g>
		<g>
			<path fill="#010101" d="M16.4,35.3c-3,0-5.5-2.5-5.5-5.5s2.5-5.5,5.5-5.5s5.5,2.5,5.5,5.5C21.8,32.9,19.4,35.3,16.4,35.3z
				 M16.4,26.3c-2,0-3.5,1.6-3.5,3.5c0,2,1.6,3.6,3.5,3.6c2,0,3.5-1.6,3.5-3.6C19.9,27.9,18.3,26.3,16.4,26.3z"/>
		</g>
	</g>
</g>
</svg>
