<?xml version="1.0" encoding="utf-8"?>
<!-- Generator: Adobe Illustrator 18.1.1, SVG Export Plug-In . SVG Version: 6.00 Build 0)  -->
<svg version="1.1" id="Layer_1" xmlns="http://www.w3.org/2000/svg" xmlns:xlink="http://www.w3.org/1999/xlink" x="0px" y="0px"
	 viewBox="0 0 48 48" enable-background="new 0 0 48 48" xml:space="preserve">
<g>
	<g>
		<path fill="#010101" d="M18.4,47.5c-0.5,0-1.1,0-1.6-0.1c-0.2,0-6.4-0.7-10.9-9.5c-1.3-2.5-0.8-5.5,1.1-7.3
			c2.2-2.1,8.6-2.9,13.3-2.9c3.4,0,6.7,0.4,9.5,1l0.3,0.1l2.6,2.6l-0.1,0.5C32.5,32.5,29.5,47.5,18.4,47.5z M20.3,29.6
			c-6.2,0-10.7,1.2-12,2.4c-1.3,1.3-1.6,3.3-0.7,5.1c4,7.9,9.3,8.4,9.3,8.4c0.5,0.1,1,0.1,1.4,0.1c8.5,0,11.6-11.1,12.2-13.6
			l-1.5-1.5C26.5,29.9,23.5,29.6,20.3,29.6z"/>
	</g>
	<g>
		<path fill="#010101" d="M31.4,32.7l-2.6-2.6l-0.1-0.3c-1.9-8.1-1-19.9,1.9-22.8c1.1-1.2,2.7-1.8,4.4-1.8c1,0,2.1,0.3,3,0.7
			c8.8,4.5,9.4,10.6,9.5,10.9C49,29.2,32,32.6,31.9,32.6L31.4,32.7z M30.5,29.1l1.5,1.5c2.6-0.6,14.7-4,13.5-13.6
			c0-0.2-0.6-5.4-8.4-9.4c-1.7-0.9-3.8-0.6-5.1,0.7C29.8,10.6,28.7,21.2,30.5,29.1z"/>
	</g>
	<g>
		<rect x="0" y="28.4" transform="matrix(0.7071 0.7071 -0.7071 0.7071 21.9173 5.7627)" fill="#010101" width="8" height="1.9"/>
	</g>
	<g>
		<rect x="25.3" y="3" transform="matrix(0.7071 0.7071 -0.7071 0.7071 11.4237 -19.5695)" fill="#010101" width="8" height="1.9"/>
	</g>
</g>
</svg>
