<?xml version="1.0" encoding="utf-8"?>
<!-- Generator: Adobe Illustrator 18.1.1, SVG Export Plug-In . SVG Version: 6.00 Build 0)  -->
<svg version="1.1" id="Layer_1" xmlns="http://www.w3.org/2000/svg" xmlns:xlink="http://www.w3.org/1999/xlink" x="0px" y="0px"
	 viewBox="0 0 48 48" enable-background="new 0 0 48 48" xml:space="preserve">
<g>
	<g>
		<path fill="#010101" d="M37.9,42.3H10.1V5.7h27.8V42.3z M12.1,40.3h23.9V7.7H12.1V40.3z"/>
	</g>
	<g>
		<path fill="#010101" d="M37.9,32.1l-1.6-1.4c-7.4-6.5-13.7-14.6-18.1-23.6l-0.7-1.4h20.4V32.1z M20.6,7.7
			c2.9,5.6,7.8,13.2,15.3,20.1V7.7H20.6z"/>
	</g>
	<g>
		<path fill="#010101" d="M36.9,41.9c-0.2,0-0.4-0.1-0.6-0.2C21.6,31.3,14,18,10.2,8.7c0-0.1-0.1-0.2-0.1-0.4V6.7c0-0.5,0.4-1,1-1
			H19c0.4,0,0.7,0.2,0.9,0.5c3,6.1,8.5,15,17.6,23c0.2,0.2,0.3,0.5,0.3,0.7v10.9c0,0.4-0.2,0.7-0.5,0.9
			C37.2,41.9,37.1,41.9,36.9,41.9z M12.1,8.1c3.6,8.8,10.6,21,23.9,30.9v-8.6c-7.1-6.3-13.2-14.1-17.5-22.7h-6.4V8.1z"/>
	</g>
	<g>
		<path fill="#010101" d="M26.2,42.3H10.1V22.7l1.8,2.9c3.5,5.6,7.6,10.6,12.4,15L26.2,42.3z M12.1,40.3h9.2
			c-3.4-3.3-6.5-7-9.2-10.9V40.3z"/>
	</g>
	<g>
		<path fill="#010101" d="M31.1,7.7H16.9V0.5h14.2V7.7z M18.9,5.7h10.3V2.5H18.9V5.7z"/>
	</g>
	<g>
		<path fill="#010101" d="M31.1,47.5H16.9v-7.2h14.2V47.5z M18.9,45.5h10.3v-3.2H18.9V45.5z"/>
	</g>
</g>
</svg>
