<?xml version="1.0" encoding="utf-8"?>
<!-- Generator: Adobe Illustrator 18.1.1, SVG Export Plug-In . SVG Version: 6.00 Build 0)  -->
<svg version="1.1" id="Layer_1" xmlns="http://www.w3.org/2000/svg" xmlns:xlink="http://www.w3.org/1999/xlink" x="0px" y="0px"
	 viewBox="0 0 48 48" enable-background="new 0 0 48 48" xml:space="preserve">
<g>
	<g>
		<path fill="#010101" d="M24,47.5c-6.1,0-12.3-0.6-18.3-1.9l-1-0.2l0.2-1c0.5-2.6,1.2-5.2,1.9-7.4c1.1-3.9,0.7-8.1-1-11.6
			c-1-2.1-1.4-4.5-0.9-6.9c0.7-3.9,3.6-7.2,7.4-8.4l0.9-0.3l0.3,0.9c1.4,4.1,5.7,6.9,10.5,6.9c4.8,0,9.1-2.9,10.5-6.9l0.3-0.9
			l0.9,0.3c3.8,1.3,6.7,4.6,7.4,8.4c0.4,2.4,0.1,4.8-0.9,6.9c-1.7,3.6-2.1,7.7-1,11.6c0.6,2.2,1.3,4.8,1.9,7.4l0.2,1l-1,0.2
			C36.3,46.9,30.1,47.5,24,47.5z M7.1,43.9c11.1,2.2,22.7,2.2,33.9,0c-0.5-2.2-1.1-4.4-1.6-6.3c-1.2-4.4-0.8-9,1.1-13
			c0.9-1.8,1.1-3.7,0.7-5.7c-0.5-2.9-2.5-5.4-5.2-6.6c-2,4.4-6.7,7.3-12,7.3c-5.3,0-10-2.9-12-7.3c-2.7,1.2-4.7,3.7-5.2,6.6
			c-0.4,2-0.1,4,0.7,5.7c1.9,4,2.3,8.6,1.1,13C8.2,39.5,7.6,41.7,7.1,43.9z"/>
	</g>
	<g>
		<g>
			<rect x="34.4" y="0.5" fill="#010101" width="2" height="10.9"/>
		</g>
		<g>
			<rect x="11.6" y="0.5" fill="#010101" width="2" height="10.9"/>
		</g>
	</g>
</g>
</svg>
