<?xml version="1.0" encoding="utf-8"?>
<!-- Generator: Adobe Illustrator 18.1.1, SVG Export Plug-In . SVG Version: 6.00 Build 0)  -->
<svg version="1.1" id="Layer_1" xmlns="http://www.w3.org/2000/svg" xmlns:xlink="http://www.w3.org/1999/xlink" x="0px" y="0px"
	 viewBox="0 0 48 48" enable-background="new 0 0 48 48" xml:space="preserve">
<g>
	<g>
		<path fill="#010101" d="M24,47.5c-1.6,0-3.2-0.2-4.8-0.5C13,45.7,7.8,42.1,4.3,36.8C0.9,31.6-0.3,25.3,1,19.2
			C3.3,8.4,12.9,0.5,24,0.5c1.6,0,3.2,0.2,4.8,0.5C35,2.3,40.2,5.9,43.7,11.2c3.4,5.3,4.6,11.5,3.3,17.7
			C44.7,39.6,35.1,47.5,24,47.5z M24,2.6c-10.1,0-18.9,7.2-21,17c-1.2,5.6-0.1,11.3,3,16.1c3.1,4.8,7.9,8.1,13.5,9.3
			c1.5,0.3,2.9,0.5,4.4,0.5c10.1,0,18.9-7.2,21-17c2.4-11.6-5-23-16.6-25.4C26.9,2.7,25.5,2.6,24,2.6z"/>
	</g>
	<g>
		<path fill="#010101" d="M39,42.1l-0.7-0.5C22.5,30.3,13.6,16.6,8.9,7.1L8.5,6.3l0.6-0.5c3.2-2.6,7-4.3,11.1-5L21,0.7l0.3,0.7
			C25.4,9.2,33,20.7,45.8,30.7l0.6,0.5l-0.2,0.7c-1.3,3.7-3.6,7-6.5,9.6L39,42.1z M11.1,6.9c4.6,9.1,13.1,21.9,27.7,32.5
			c2.2-2.1,3.9-4.7,5.1-7.6C31.6,22,24.1,10.9,19.8,3C16.7,3.6,13.7,5,11.1,6.9z"/>
	</g>
	<g>
		<path fill="#010101" d="M27.3,47.2L26.9,47c-10.4-7.8-19-17.5-25.3-28.9l-0.2-0.4l0.1-0.4c1.3-4.6,4-8.5,7.7-11.5l1-0.8l0.6,1.2
			c4.6,9.3,13.3,22.7,28.8,33.8l1.1,0.7l-1,0.9c-3.4,3-7.5,4.9-11.9,5.6L27.3,47.2z M3.6,17.5c6.1,10.8,14.3,20.1,24.2,27.6
			c3.5-0.6,6.7-2.1,9.4-4.3C22.7,30.1,14.2,17.5,9.5,8.2C6.7,10.8,4.7,13.9,3.6,17.5z"/>
	</g>
	<g>
		<path fill="#010101" d="M45.3,46.3c-1.8-3.1-5.4-4.8-9.3-6.3l0.7-1.9C41,39.7,45,41.5,47,45.2L45.3,46.3z"/>
	</g>
</g>
</svg>
