<?xml version="1.0" encoding="utf-8"?>
<!-- Generator: Adobe Illustrator 18.1.1, SVG Export Plug-In . SVG Version: 6.00 Build 0)  -->
<svg version="1.1" id="Layer_1" xmlns="http://www.w3.org/2000/svg" xmlns:xlink="http://www.w3.org/1999/xlink" x="0px" y="0px"
	 viewBox="0 0 48 48" enable-background="new 0 0 48 48" xml:space="preserve">
<g>
	<g>
		<path fill="#010101" d="M37,8.7H11c-2.2,0-4.1-1.8-4.1-4.1S8.7,0.5,11,0.5H37c2.2,0,4.1,1.8,4.1,4.1S39.3,8.7,37,8.7z M11,2.4
			c-1.2,0-2.2,1-2.2,2.2s1,2.2,2.2,2.2H37c1.2,0,2.2-1,2.2-2.2s-1-2.2-2.2-2.2H11z"/>
	</g>
	<g>
		<path fill="#010101" d="M37,18.4H11c-2.2,0-4.1-1.8-4.1-4.1s1.8-4.1,4.1-4.1H37c2.2,0,4.1,1.8,4.1,4.1S39.3,18.4,37,18.4z
			 M11,12.1c-1.2,0-2.2,1-2.2,2.2c0,1.2,1,2.2,2.2,2.2H37c1.2,0,2.2-1,2.2-2.2c0-1.2-1-2.2-2.2-2.2H11z"/>
	</g>
	<g>
		<path fill="#010101" d="M37,28.1H11c-2.2,0-4.1-1.8-4.1-4.1s1.8-4.1,4.1-4.1H37c2.2,0,4.1,1.8,4.1,4.1S39.3,28.1,37,28.1z
			 M11,21.8c-1.2,0-2.2,1-2.2,2.2c0,1.2,1,2.2,2.2,2.2H37c1.2,0,2.2-1,2.2-2.2c0-1.2-1-2.2-2.2-2.2H11z"/>
	</g>
	<g>
		<path fill="#010101" d="M37,37.8H11c-2.2,0-4.1-1.8-4.1-4.1c0-2.3,1.8-4.1,4.1-4.1H37c2.2,0,4.1,1.8,4.1,4.1
			C41.1,36,39.3,37.8,37,37.8z M11,31.5c-1.2,0-2.2,1-2.2,2.2c0,1.2,1,2.2,2.2,2.2H37c1.2,0,2.2-1,2.2-2.2c0-1.2-1-2.2-2.2-2.2H11z"
			/>
	</g>
	<g>
		<path fill="#010101" d="M37,47.5H11c-2.2,0-4.1-1.8-4.1-4.1s1.8-4.1,4.1-4.1H37c2.2,0,4.1,1.8,4.1,4.1S39.3,47.5,37,47.5z
			 M11,41.3c-1.2,0-2.2,1-2.2,2.2c0,1.2,1,2.2,2.2,2.2H37c1.2,0,2.2-1,2.2-2.2c0-1.2-1-2.2-2.2-2.2H11z"/>
	</g>
</g>
</svg>
