<?xml version="1.0" encoding="utf-8"?>
<!-- Generator: Adobe Illustrator 18.1.1, SVG Export Plug-In . SVG Version: 6.00 Build 0)  -->
<svg version="1.1" id="Layer_1" xmlns="http://www.w3.org/2000/svg" xmlns:xlink="http://www.w3.org/1999/xlink" x="0px" y="0px"
	 viewBox="0 0 48 48" enable-background="new 0 0 48 48" xml:space="preserve">
<g>
	<g>
		<path fill="#010101" d="M45,27.2h-7.6v-1.9H45c0.4,0,0.5-0.3,0.6-0.4c0-0.1,0.1-0.5-0.3-0.6l-18.4-9.7c-1.8-0.9-4-0.9-5.8,0
			L2.7,24.2c-0.4,0.2-0.3,0.5-0.3,0.6c0,0.1,0.2,0.4,0.6,0.4h7.6v1.9H3c-1.2,0-2.1-0.8-2.4-1.9c-0.3-1.1,0.2-2.3,1.3-2.8l18.4-9.7
			c2.4-1.2,5.2-1.2,7.5,0l18.4,9.7c1,0.5,1.5,1.7,1.3,2.8C47.1,26.4,46.2,27.2,45,27.2z"/>
	</g>
	<g>
		<path fill="#010101" d="M25,12.4H23V9.8c-2.1-0.4-3.7-2.3-3.7-4.6c0-2.6,2.1-4.7,4.7-4.7c2.6,0,4.7,2.1,4.7,4.7h-1.9
			c0-1.5-1.2-2.8-2.8-2.8s-2.8,1.2-2.8,2.8c0,1.5,1.2,2.8,2.8,2.8h1V12.4z"/>
	</g>
	<g>
		<path fill="#010101" d="M38.3,47.5H9.7V22h28.6V47.5z M11.6,45.6h24.8V24H11.6V45.6z"/>
	</g>
	<g>
		<rect x="28.9" y="23" fill="#010101" width="1.9" height="23.5"/>
	</g>
	<g>
		<rect x="10.6" y="38.6" fill="#010101" width="26.7" height="1.9"/>
	</g>
</g>
</svg>
