<?xml version="1.0" encoding="utf-8"?>
<!-- Generator: Adobe Illustrator 18.1.1, SVG Export Plug-In . SVG Version: 6.00 Build 0)  -->
<svg version="1.1" id="Layer_1" xmlns="http://www.w3.org/2000/svg" xmlns:xlink="http://www.w3.org/1999/xlink" x="0px" y="0px"
	 viewBox="0 0 48 48" enable-background="new 0 0 48 48" xml:space="preserve">
<g>
	<g>
		<path fill="#010101" d="M36.5,39.3H11.5V8.7h25.1V39.3z M13.2,37.6h21.6V10.4H13.2V37.6z"/>
	</g>
	<g>
		<g>
			<rect x="12.3" y="13.2" fill="#010101" width="23.3" height="1.8"/>
		</g>
		<g>
			<rect x="12.3" y="18.2" fill="#010101" width="23.3" height="1.8"/>
		</g>
		<g>
			<rect x="12.3" y="23.1" fill="#010101" width="23.3" height="1.8"/>
		</g>
		<g>
			<rect x="12.3" y="28.1" fill="#010101" width="23.3" height="1.8"/>
		</g>
		<g>
			<rect x="12.3" y="33" fill="#010101" width="23.3" height="1.8"/>
		</g>
	</g>
	<g>
		<path fill="#010101" d="M35.9,10.4H12.1l-11.6-8h47L35.9,10.4z M12.6,8.7h22.8l6.5-4.4H6.2L12.6,8.7z"/>
	</g>
	<g>
		<path fill="#010101" d="M47.5,45.6h-47l11.6-8h23.9L47.5,45.6z M6.2,43.8h35.7l-6.5-4.4H12.6L6.2,43.8z"/>
	</g>
</g>
</svg>
